solid CATIA STL
  facet normal  1.000000e+000  0.000000e+000  -0.000000e+000
    outer loop
      vertex  4.500000e+001  6.150000e+000  9.000000e+000
      vertex  4.500000e+001  6.586764e+000  7.800000e+000
      vertex  4.500000e+001  8.913236e+000  7.800000e+000
    endloop
  endfacet
  facet normal  1.000000e+000  0.000000e+000  -0.000000e+000
    outer loop
      vertex  4.500000e+001  6.150000e+000  9.000000e+000
      vertex  4.500000e+001  8.913236e+000  7.800000e+000
      vertex  4.500000e+001  9.350000e+000  9.000000e+000
    endloop
  endfacet
  facet normal  1.000000e+000  0.000000e+000  0.000000e+000
    outer loop
      vertex  4.500000e+001  6.150000e+000  9.000000e+000
      vertex  4.500000e+001  9.350000e+000  9.000000e+000
      vertex  4.500000e+001  4.350000e+000  1.000000e+001
    endloop
  endfacet
  facet normal  1.000000e+000  0.000000e+000  0.000000e+000
    outer loop
      vertex  4.500000e+001  6.150000e+000  9.000000e+000
      vertex  4.500000e+001  4.350000e+000  1.000000e+001
      vertex  4.500000e+001  4.350000e+000  9.000000e+000
    endloop
  endfacet
  facet normal  1.000000e+000  0.000000e+000  -0.000000e+000
    outer loop
      vertex  4.500000e+001  3.913236e+000  7.800000e+000
      vertex  4.500000e+001  4.350000e+000  9.000000e+000
      vertex  4.500000e+001  4.350000e+000  1.000000e+001
    endloop
  endfacet
  facet normal  1.000000e+000  0.000000e+000  -0.000000e+000
    outer loop
      vertex  4.500000e+001  3.913236e+000  7.800000e+000
      vertex  4.500000e+001  4.350000e+000  1.000000e+001
      vertex  4.500000e+001  4.350000e+000  1.400000e+001
    endloop
  endfacet
  facet normal  1.000000e+000  0.000000e+000  0.000000e+000
    outer loop
      vertex  4.500000e+001  3.913236e+000  7.800000e+000
      vertex  4.500000e+001  4.350000e+000  1.400000e+001
      vertex  4.500000e+001 -2.250000e+000  1.775000e+001
    endloop
  endfacet
  facet normal  1.000000e+000  0.000000e+000  0.000000e+000
    outer loop
      vertex  4.500000e+001  3.913236e+000  7.800000e+000
      vertex  4.500000e+001 -2.250000e+000  1.775000e+001
      vertex  4.500000e+001 -2.250000e+000 -2.250000e+000
    endloop
  endfacet
  facet normal  9.999999e-001  0.000000e+000  0.000000e+000
    outer loop
      vertex  4.500000e+001  3.913236e+000  7.800000e+000
      vertex  4.500000e+001 -2.250000e+000 -2.250000e+000
      vertex  4.500000e+001  3.913236e+000  5.000000e+000
    endloop
  endfacet
  facet normal  1.000000e+000  0.000000e+000  0.000000e+000
    outer loop
      vertex  4.500000e+001  1.115000e+001  1.400000e+001
      vertex  4.500000e+001  1.115000e+001  1.000000e+001
      vertex  4.500000e+001  1.775000e+001  1.775000e+001
    endloop
  endfacet
  facet normal  1.000000e+000  0.000000e+000  0.000000e+000
    outer loop
      vertex  4.500000e+001  1.775000e+001  1.775000e+001
      vertex  4.500000e+001  1.115000e+001  1.000000e+001
      vertex  4.500000e+001  1.158676e+001  7.800000e+000
    endloop
  endfacet
  facet normal  1.000000e+000  -0.000000e+000  0.000000e+000
    outer loop
      vertex  4.500000e+001  1.775000e+001  1.775000e+001
      vertex  4.500000e+001  1.158676e+001  7.800000e+000
      vertex  4.500000e+001  1.775000e+001 -2.250000e+000
    endloop
  endfacet
  facet normal  9.999999e-001  0.000000e+000  0.000000e+000
    outer loop
      vertex  4.500000e+001  1.775000e+001 -2.250000e+000
      vertex  4.500000e+001  1.158676e+001  7.800000e+000
      vertex  4.500000e+001  1.158676e+001  5.000000e+000
    endloop
  endfacet
  facet normal  1.000000e+000  0.000000e+000  0.000000e+000
    outer loop
      vertex  4.500000e+001  1.775000e+001 -2.250000e+000
      vertex  4.500000e+001  1.158676e+001  5.000000e+000
      vertex  4.500000e+001 -2.250000e+000 -2.250000e+000
    endloop
  endfacet
  facet normal  1.000000e+000  0.000000e+000  0.000000e+000
    outer loop
      vertex  4.500000e+001 -2.250000e+000 -2.250000e+000
      vertex  4.500000e+001  1.158676e+001  5.000000e+000
      vertex  4.500000e+001  3.913236e+000  5.000000e+000
    endloop
  endfacet
  facet normal  1.000000e+000  0.000000e+000  -0.000000e+000
    outer loop
      vertex  4.500000e+001  4.350000e+000  1.000000e+001
      vertex  4.500000e+001  9.350000e+000  9.000000e+000
      vertex  4.500000e+001  1.115000e+001  1.000000e+001
    endloop
  endfacet
  facet normal  1.000000e+000  0.000000e+000  0.000000e+000
    outer loop
      vertex  4.500000e+001  1.115000e+001  1.000000e+001
      vertex  4.500000e+001  9.350000e+000  9.000000e+000
      vertex  4.500000e+001  1.115000e+001  9.000000e+000
    endloop
  endfacet
  facet normal  1.000000e+000  -0.000000e+000  0.000000e+000
    outer loop
      vertex  4.500000e+001  1.115000e+001  1.000000e+001
      vertex  4.500000e+001  1.115000e+001  9.000000e+000
      vertex  4.500000e+001  1.158676e+001  7.800000e+000
    endloop
  endfacet
  facet normal  1.000000e+000  0.000000e+000  -0.000000e+000
    outer loop
      vertex  4.500000e+001 -2.250000e+000  1.775000e+001
      vertex  4.500000e+001  4.350000e+000  1.400000e+001
      vertex  4.500000e+001  1.775000e+001  1.775000e+001
    endloop
  endfacet
  facet normal  1.000000e+000  0.000000e+000  0.000000e+000
    outer loop
      vertex  4.500000e+001  1.775000e+001  1.775000e+001
      vertex  4.500000e+001  4.350000e+000  1.400000e+001
      vertex  4.500000e+001  1.115000e+001  1.400000e+001
    endloop
  endfacet
  facet normal  0.000000e+000 -1.000000e+000  0.000000e+000
    outer loop
      vertex  4.500000e+001  4.350000e+000  1.400000e+001
      vertex  4.500000e+001  4.350000e+000  1.000000e+001
      vertex  6.000000e+001  4.350000e+000  1.400000e+001
    endloop
  endfacet
  facet normal  0.000000e+000 -1.000000e+000  -0.000000e+000
    outer loop
      vertex  6.000000e+001  4.350000e+000  1.400000e+001
      vertex  4.500000e+001  4.350000e+000  1.000000e+001
      vertex  6.000000e+001  4.350000e+000  1.000000e+001
    endloop
  endfacet
  facet normal  0.000000e+000  0.000000e+000  9.999999e-001
    outer loop
      vertex  4.500000e+001  1.115000e+001  1.400000e+001
      vertex  4.500000e+001  4.350000e+000  1.400000e+001
      vertex  6.000000e+001  1.115000e+001  1.400000e+001
    endloop
  endfacet
  facet normal  0.000000e+000  0.000000e+000  9.999999e-001
    outer loop
      vertex  6.000000e+001  1.115000e+001  1.400000e+001
      vertex  4.500000e+001  4.350000e+000  1.400000e+001
      vertex  6.000000e+001  4.350000e+000  1.400000e+001
    endloop
  endfacet
  facet normal  0.000000e+000  1.000000e+000  0.000000e+000
    outer loop
      vertex  4.500000e+001  1.115000e+001  1.000000e+001
      vertex  4.500000e+001  1.115000e+001  1.400000e+001
      vertex  6.000000e+001  1.115000e+001  1.000000e+001
    endloop
  endfacet
  facet normal  0.000000e+000  1.000000e+000  -0.000000e+000
    outer loop
      vertex  6.000000e+001  1.115000e+001  1.000000e+001
      vertex  4.500000e+001  1.115000e+001  1.400000e+001
      vertex  6.000000e+001  1.115000e+001  1.400000e+001
    endloop
  endfacet
  facet normal  0.000000e+000  0.000000e+000 -9.999999e-001
    outer loop
      vertex  4.500000e+001  4.350000e+000  1.000000e+001
      vertex  4.500000e+001  1.115000e+001  1.000000e+001
      vertex  6.000000e+001  4.350000e+000  1.000000e+001
    endloop
  endfacet
  facet normal  0.000000e+000  0.000000e+000 -9.999999e-001
    outer loop
      vertex  6.000000e+001  4.350000e+000  1.000000e+001
      vertex  4.500000e+001  1.115000e+001  1.000000e+001
      vertex  6.000000e+001  1.115000e+001  1.000000e+001
    endloop
  endfacet
  facet normal  0.000000e+000  1.000000e+000  0.000000e+000
    outer loop
      vertex  4.500000e+001  1.158676e+001  7.800000e+000
      vertex  6.000000e+001  1.158676e+001  7.800000e+000
      vertex  4.500000e+001  1.158676e+001  5.000000e+000
    endloop
  endfacet
  facet normal  0.000000e+000  1.000000e+000  0.000000e+000
    outer loop
      vertex  4.500000e+001  1.158676e+001  5.000000e+000
      vertex  6.000000e+001  1.158676e+001  7.800000e+000
      vertex  6.000000e+001  1.158676e+001  5.000000e+000
    endloop
  endfacet
  facet normal  -0.000000e+000  0.000000e+000 -1.000000e+000
    outer loop
      vertex  4.500000e+001  1.158676e+001  5.000000e+000
      vertex  6.000000e+001  1.158676e+001  5.000000e+000
      vertex  4.500000e+001  3.913236e+000  5.000000e+000
    endloop
  endfacet
  facet normal  0.000000e+000  0.000000e+000 -1.000000e+000
    outer loop
      vertex  4.500000e+001  3.913236e+000  5.000000e+000
      vertex  6.000000e+001  1.158676e+001  5.000000e+000
      vertex  6.000000e+001  3.913236e+000  5.000000e+000
    endloop
  endfacet
  facet normal  0.000000e+000 -1.000000e+000  0.000000e+000
    outer loop
      vertex  4.500000e+001  3.913236e+000  7.800000e+000
      vertex  4.500000e+001  3.913236e+000  5.000000e+000
      vertex  6.000000e+001  3.913236e+000  7.800000e+000
    endloop
  endfacet
  facet normal  0.000000e+000 -1.000000e+000  -0.000000e+000
    outer loop
      vertex  6.000000e+001  3.913236e+000  7.800000e+000
      vertex  4.500000e+001  3.913236e+000  5.000000e+000
      vertex  6.000000e+001  3.913236e+000  5.000000e+000
    endloop
  endfacet
  facet normal  0.000000e+000 -9.396926e-001  3.420202e-001
    outer loop
      vertex  4.500000e+001  3.913236e+000  7.800000e+000
      vertex  6.000000e+001  3.913236e+000  7.800000e+000
      vertex  4.500000e+001  4.350000e+000  9.000000e+000
    endloop
  endfacet
  facet normal  0.000000e+000 -9.396926e-001  3.420202e-001
    outer loop
      vertex  4.500000e+001  4.350000e+000  9.000000e+000
      vertex  6.000000e+001  3.913236e+000  7.800000e+000
      vertex  6.000000e+001  4.350000e+000  9.000000e+000
    endloop
  endfacet
  facet normal  0.000000e+000  0.000000e+000  1.000000e+000
    outer loop
      vertex  4.500000e+001  6.150000e+000  9.000000e+000
      vertex  4.500000e+001  4.350000e+000  9.000000e+000
      vertex  6.000000e+001  6.150000e+000  9.000000e+000
    endloop
  endfacet
  facet normal  0.000000e+000  0.000000e+000  1.000000e+000
    outer loop
      vertex  6.000000e+001  6.150000e+000  9.000000e+000
      vertex  4.500000e+001  4.350000e+000  9.000000e+000
      vertex  6.000000e+001  4.350000e+000  9.000000e+000
    endloop
  endfacet
  facet normal  0.000000e+000  9.396926e-001  3.420202e-001
    outer loop
      vertex  4.500000e+001  6.586764e+000  7.800000e+000
      vertex  4.500000e+001  6.150000e+000  9.000000e+000
      vertex  6.000000e+001  6.586764e+000  7.800000e+000
    endloop
  endfacet
  facet normal  0.000000e+000  9.396926e-001  3.420202e-001
    outer loop
      vertex  6.000000e+001  6.586764e+000  7.800000e+000
      vertex  4.500000e+001  6.150000e+000  9.000000e+000
      vertex  6.000000e+001  6.150000e+000  9.000000e+000
    endloop
  endfacet
  facet normal  0.000000e+000  0.000000e+000  9.999999e-001
    outer loop
      vertex  4.500000e+001  8.913236e+000  7.800000e+000
      vertex  4.500000e+001  6.586764e+000  7.800000e+000
      vertex  6.000000e+001  8.913236e+000  7.800000e+000
    endloop
  endfacet
  facet normal  0.000000e+000  0.000000e+000  9.999999e-001
    outer loop
      vertex  6.000000e+001  8.913236e+000  7.800000e+000
      vertex  4.500000e+001  6.586764e+000  7.800000e+000
      vertex  6.000000e+001  6.586764e+000  7.800000e+000
    endloop
  endfacet
  facet normal  0.000000e+000 -9.396925e-001  3.420205e-001
    outer loop
      vertex  4.500000e+001  8.913236e+000  7.800000e+000
      vertex  6.000000e+001  8.913236e+000  7.800000e+000
      vertex  4.500000e+001  9.350000e+000  9.000000e+000
    endloop
  endfacet
  facet normal  0.000000e+000 -9.396925e-001  3.420205e-001
    outer loop
      vertex  4.500000e+001  9.350000e+000  9.000000e+000
      vertex  6.000000e+001  8.913236e+000  7.800000e+000
      vertex  6.000000e+001  9.350000e+000  9.000000e+000
    endloop
  endfacet
  facet normal  0.000000e+000  0.000000e+000  1.000000e+000
    outer loop
      vertex  4.500000e+001  1.115000e+001  9.000000e+000
      vertex  4.500000e+001  9.350000e+000  9.000000e+000
      vertex  6.000000e+001  1.115000e+001  9.000000e+000
    endloop
  endfacet
  facet normal  0.000000e+000  0.000000e+000  1.000000e+000
    outer loop
      vertex  6.000000e+001  1.115000e+001  9.000000e+000
      vertex  4.500000e+001  9.350000e+000  9.000000e+000
      vertex  6.000000e+001  9.350000e+000  9.000000e+000
    endloop
  endfacet
  facet normal  0.000000e+000  9.396925e-001  3.420205e-001
    outer loop
      vertex  4.500000e+001  1.158676e+001  7.800000e+000
      vertex  4.500000e+001  1.115000e+001  9.000000e+000
      vertex  6.000000e+001  1.158676e+001  7.800000e+000
    endloop
  endfacet
  facet normal  0.000000e+000  9.396925e-001  3.420205e-001
    outer loop
      vertex  6.000000e+001  1.158676e+001  7.800000e+000
      vertex  4.500000e+001  1.115000e+001  9.000000e+000
      vertex  6.000000e+001  1.115000e+001  9.000000e+000
    endloop
  endfacet
  facet normal  1.000000e+000  0.000000e+000  0.000000e+000
    outer loop
      vertex  6.000000e+001  4.350000e+000  1.000000e+001
      vertex  6.000000e+001  1.115000e+001  1.000000e+001
      vertex  6.000000e+001  4.350000e+000  1.400000e+001
    endloop
  endfacet
  facet normal  1.000000e+000  -0.000000e+000  0.000000e+000
    outer loop
      vertex  6.000000e+001  4.350000e+000  1.400000e+001
      vertex  6.000000e+001  1.115000e+001  1.000000e+001
      vertex  6.000000e+001  1.115000e+001  1.400000e+001
    endloop
  endfacet
  facet normal  1.000000e+000  0.000000e+000  0.000000e+000
    outer loop
      vertex  6.000000e+001  1.158676e+001  7.800000e+000
      vertex  6.000000e+001  3.913236e+000  5.000000e+000
      vertex  6.000000e+001  1.158676e+001  5.000000e+000
    endloop
  endfacet
  facet normal  1.000000e+000  -0.000000e+000  0.000000e+000
    outer loop
      vertex  6.000000e+001  8.913236e+000  7.800000e+000
      vertex  6.000000e+001  6.586764e+000  7.800000e+000
      vertex  6.000000e+001  3.913236e+000  5.000000e+000
    endloop
  endfacet
  facet normal  1.000000e+000  0.000000e+000  0.000000e+000
    outer loop
      vertex  6.000000e+001  8.913236e+000  7.800000e+000
      vertex  6.000000e+001  3.913236e+000  5.000000e+000
      vertex  6.000000e+001  1.158676e+001  7.800000e+000
    endloop
  endfacet
  facet normal  1.000000e+000  0.000000e+000  0.000000e+000
    outer loop
      vertex  6.000000e+001  8.913236e+000  7.800000e+000
      vertex  6.000000e+001  1.158676e+001  7.800000e+000
      vertex  6.000000e+001  1.115000e+001  9.000000e+000
    endloop
  endfacet
  facet normal  1.000000e+000  0.000000e+000  0.000000e+000
    outer loop
      vertex  6.000000e+001  8.913236e+000  7.800000e+000
      vertex  6.000000e+001  1.115000e+001  9.000000e+000
      vertex  6.000000e+001  9.350000e+000  9.000000e+000
    endloop
  endfacet
  facet normal  1.000000e+000  -0.000000e+000  0.000000e+000
    outer loop
      vertex  6.000000e+001  6.150000e+000  9.000000e+000
      vertex  6.000000e+001  4.350000e+000  9.000000e+000
      vertex  6.000000e+001  6.586764e+000  7.800000e+000
    endloop
  endfacet
  facet normal  1.000000e+000  0.000000e+000  0.000000e+000
    outer loop
      vertex  6.000000e+001  6.586764e+000  7.800000e+000
      vertex  6.000000e+001  4.350000e+000  9.000000e+000
      vertex  6.000000e+001  3.913236e+000  7.800000e+000
    endloop
  endfacet
  facet normal  1.000000e+000  -0.000000e+000  0.000000e+000
    outer loop
      vertex  6.000000e+001  6.586764e+000  7.800000e+000
      vertex  6.000000e+001  3.913236e+000  7.800000e+000
      vertex  6.000000e+001  3.913236e+000  5.000000e+000
    endloop
  endfacet
  facet normal -1.000000e+000  -0.000000e+000  0.000000e+000
    outer loop
      vertex  4.000000e+001 -2.250000e+000  1.775000e+001
      vertex  4.000000e+001  0.000000e+000  0.000000e+000
      vertex  4.000000e+001 -2.250000e+000 -2.250000e+000
    endloop
  endfacet
  facet normal -1.000000e+000  0.000000e+000  0.000000e+000
    outer loop
      vertex  4.000000e+001 -2.250000e+000 -2.250000e+000
      vertex  4.000000e+001  0.000000e+000  0.000000e+000
      vertex  4.000000e+001  1.550000e+001  0.000000e+000
    endloop
  endfacet
  facet normal -1.000000e+000  0.000000e+000  -0.000000e+000
    outer loop
      vertex  4.000000e+001 -2.250000e+000 -2.250000e+000
      vertex  4.000000e+001  1.550000e+001  0.000000e+000
      vertex  4.000000e+001  1.775000e+001 -2.250000e+000
    endloop
  endfacet
  facet normal -1.000000e+000  0.000000e+000  0.000000e+000
    outer loop
      vertex  4.000000e+001  0.000000e+000  0.000000e+000
      vertex  4.000000e+001 -2.250000e+000  1.775000e+001
      vertex  4.000000e+001  0.000000e+000  1.550000e+001
    endloop
  endfacet
  facet normal -1.000000e+000  0.000000e+000  0.000000e+000
    outer loop
      vertex  4.000000e+001  0.000000e+000  1.550000e+001
      vertex  4.000000e+001 -2.250000e+000  1.775000e+001
      vertex  4.000000e+001  1.775000e+001  1.775000e+001
    endloop
  endfacet
  facet normal -1.000000e+000  0.000000e+000  0.000000e+000
    outer loop
      vertex  4.000000e+001  0.000000e+000  1.550000e+001
      vertex  4.000000e+001  1.775000e+001  1.775000e+001
      vertex  4.000000e+001  1.550000e+001  1.550000e+001
    endloop
  endfacet
  facet normal -1.000000e+000  0.000000e+000  0.000000e+000
    outer loop
      vertex  4.000000e+001  1.550000e+001  1.550000e+001
      vertex  4.000000e+001  1.775000e+001  1.775000e+001
      vertex  4.000000e+001  1.775000e+001 -2.250000e+000
    endloop
  endfacet
  facet normal -1.000000e+000  0.000000e+000  0.000000e+000
    outer loop
      vertex  4.000000e+001  1.550000e+001  1.550000e+001
      vertex  4.000000e+001  1.775000e+001 -2.250000e+000
      vertex  4.000000e+001  1.550000e+001  0.000000e+000
    endloop
  endfacet
  facet normal  8.881784e-017 -1.000000e+000 -2.292073e-016
    outer loop
      vertex  0.000000e+000 -3.552714e-015  1.550000e+001
      vertex  0.000000e+000  0.000000e+000  0.000000e+000
      vertex  4.000000e+001  0.000000e+000  1.550000e+001
    endloop
  endfacet
  facet normal  0.000000e+000 -1.000000e+000  -0.000000e+000
    outer loop
      vertex  4.000000e+001  0.000000e+000  1.550000e+001
      vertex  0.000000e+000  0.000000e+000  0.000000e+000
      vertex  4.000000e+001  0.000000e+000  0.000000e+000
    endloop
  endfacet
  facet normal  0.000000e+000  0.000000e+000  1.000000e+000
    outer loop
      vertex  0.000000e+000  1.550000e+001  1.550000e+001
      vertex  0.000000e+000 -3.552714e-015  1.550000e+001
      vertex  4.000000e+001  1.550000e+001  1.550000e+001
    endloop
  endfacet
  facet normal  0.000000e+000  0.000000e+000  1.000000e+000
    outer loop
      vertex  4.000000e+001  1.550000e+001  1.550000e+001
      vertex  0.000000e+000 -3.552714e-015  1.550000e+001
      vertex  4.000000e+001  0.000000e+000  1.550000e+001
    endloop
  endfacet
  facet normal  0.000000e+000  1.000000e+000  0.000000e+000
    outer loop
      vertex  0.000000e+000  1.550000e+001  0.000000e+000
      vertex  0.000000e+000  1.550000e+001  1.550000e+001
      vertex  4.000000e+001  1.550000e+001  0.000000e+000
    endloop
  endfacet
  facet normal  0.000000e+000  1.000000e+000  -0.000000e+000
    outer loop
      vertex  4.000000e+001  1.550000e+001  0.000000e+000
      vertex  0.000000e+000  1.550000e+001  1.550000e+001
      vertex  4.000000e+001  1.550000e+001  1.550000e+001
    endloop
  endfacet
  facet normal  0.000000e+000  0.000000e+000 -1.000000e+000
    outer loop
      vertex  0.000000e+000  0.000000e+000  0.000000e+000
      vertex  0.000000e+000  1.550000e+001  0.000000e+000
      vertex  4.000000e+001  0.000000e+000  0.000000e+000
    endloop
  endfacet
  facet normal  0.000000e+000  0.000000e+000 -1.000000e+000
    outer loop
      vertex  4.000000e+001  0.000000e+000  0.000000e+000
      vertex  0.000000e+000  1.550000e+001  0.000000e+000
      vertex  4.000000e+001  1.550000e+001  0.000000e+000
    endloop
  endfacet
  facet normal  0.000000e+000  0.000000e+000 -1.000000e+000
    outer loop
      vertex  4.500000e+001 -2.250000e+000 -2.250000e+000
      vertex  4.000000e+001 -2.250000e+000 -2.250000e+000
      vertex  4.500000e+001  1.775000e+001 -2.250000e+000
    endloop
  endfacet
  facet normal  -0.000000e+000  0.000000e+000 -1.000000e+000
    outer loop
      vertex  4.500000e+001  1.775000e+001 -2.250000e+000
      vertex  4.000000e+001 -2.250000e+000 -2.250000e+000
      vertex  4.000000e+001  1.775000e+001 -2.250000e+000
    endloop
  endfacet
  facet normal  0.000000e+000 -1.000000e+000  -0.000000e+000
    outer loop
      vertex  4.500000e+001 -2.250000e+000 -2.250000e+000
      vertex  4.500000e+001 -2.250000e+000  1.775000e+001
      vertex  4.000000e+001 -2.250000e+000 -2.250000e+000
    endloop
  endfacet
  facet normal  0.000000e+000 -1.000000e+000  0.000000e+000
    outer loop
      vertex  4.000000e+001 -2.250000e+000 -2.250000e+000
      vertex  4.500000e+001 -2.250000e+000  1.775000e+001
      vertex  4.000000e+001 -2.250000e+000  1.775000e+001
    endloop
  endfacet
  facet normal  -0.000000e+000  0.000000e+000  1.000000e+000
    outer loop
      vertex  4.500000e+001  1.775000e+001  1.775000e+001
      vertex  4.000000e+001  1.775000e+001  1.775000e+001
      vertex  4.500000e+001 -2.250000e+000  1.775000e+001
    endloop
  endfacet
  facet normal  0.000000e+000  0.000000e+000  1.000000e+000
    outer loop
      vertex  4.500000e+001 -2.250000e+000  1.775000e+001
      vertex  4.000000e+001  1.775000e+001  1.775000e+001
      vertex  4.000000e+001 -2.250000e+000  1.775000e+001
    endloop
  endfacet
  facet normal  0.000000e+000  1.000000e+000  -0.000000e+000
    outer loop
      vertex  4.500000e+001  1.775000e+001  1.775000e+001
      vertex  4.500000e+001  1.775000e+001 -2.250000e+000
      vertex  4.000000e+001  1.775000e+001  1.775000e+001
    endloop
  endfacet
  facet normal  0.000000e+000  1.000000e+000  0.000000e+000
    outer loop
      vertex  4.000000e+001  1.775000e+001  1.775000e+001
      vertex  4.500000e+001  1.775000e+001 -2.250000e+000
      vertex  4.000000e+001  1.775000e+001 -2.250000e+000
    endloop
  endfacet
  facet normal -1.000000e+000  0.000000e+000  0.000000e+000
    outer loop
      vertex  0.000000e+000  0.000000e+000  0.000000e+000
      vertex  0.000000e+000 -3.552714e-015  1.550000e+001
      vertex  0.000000e+000  1.550000e+001  0.000000e+000
    endloop
  endfacet
  facet normal -1.000000e+000  0.000000e+000  0.000000e+000
    outer loop
      vertex  0.000000e+000  1.550000e+001  0.000000e+000
      vertex  0.000000e+000 -3.552714e-015  1.550000e+001
      vertex  0.000000e+000  1.550000e+001  1.550000e+001
    endloop
  endfacet
endsolid CATIA STL
