solid CATIA STL
  facet normal  1.000000e+000  -0.000000e+000  0.000000e+000
    outer loop
      vertex  1.300000e+001  4.400000e+001  3.000000e+001
      vertex  1.300000e+001 -4.000000e+000  3.000000e+001
      vertex  1.300000e+001  3.400000e+001  2.200000e+001
    endloop
  endfacet
  facet normal  1.000000e+000  -0.000000e+000  0.000000e+000
    outer loop
      vertex  1.300000e+001  4.400000e+001  3.000000e+001
      vertex  1.300000e+001  3.400000e+001  2.200000e+001
      vertex  1.300000e+001  3.650000e+001  1.350000e+001
    endloop
  endfacet
  facet normal  1.000000e+000  -0.000000e+000  0.000000e+000
    outer loop
      vertex  1.300000e+001  4.400000e+001  3.000000e+001
      vertex  1.300000e+001  3.650000e+001  1.350000e+001
      vertex  1.300000e+001  3.679264e+001  1.347118e+001
    endloop
  endfacet
  facet normal  1.000000e+000  -0.000000e+000  0.000000e+000
    outer loop
      vertex  1.300000e+001  4.400000e+001  3.000000e+001
      vertex  1.300000e+001  3.679264e+001  1.347118e+001
      vertex  1.300000e+001  3.707402e+001  1.338582e+001
    endloop
  endfacet
  facet normal  9.999999e-001  -0.000000e+000  0.000000e+000
    outer loop
      vertex  1.300000e+001  4.400000e+001  3.000000e+001
      vertex  1.300000e+001  3.707402e+001  1.338582e+001
      vertex  1.300000e+001  3.733335e+001  1.324720e+001
    endloop
  endfacet
  facet normal  9.999999e-001  -0.000000e+000  0.000000e+000
    outer loop
      vertex  1.300000e+001  4.400000e+001  3.000000e+001
      vertex  1.300000e+001  3.733335e+001  1.324720e+001
      vertex  1.300000e+001  3.756066e+001  1.306066e+001
    endloop
  endfacet
  facet normal  1.000000e+000  -0.000000e+000  0.000000e+000
    outer loop
      vertex  1.300000e+001  4.400000e+001  3.000000e+001
      vertex  1.300000e+001  3.756066e+001  1.306066e+001
      vertex  1.300000e+001  3.774720e+001  1.283335e+001
    endloop
  endfacet
  facet normal  1.000000e+000  -0.000000e+000  0.000000e+000
    outer loop
      vertex  1.300000e+001  4.400000e+001  3.000000e+001
      vertex  1.300000e+001  3.774720e+001  1.283335e+001
      vertex  1.300000e+001  3.788582e+001  1.257403e+001
    endloop
  endfacet
  facet normal  1.000000e+000  -0.000000e+000  0.000000e+000
    outer loop
      vertex  1.300000e+001  4.400000e+001  3.000000e+001
      vertex  1.300000e+001  3.788582e+001  1.257403e+001
      vertex  1.300000e+001  3.797118e+001  1.229264e+001
    endloop
  endfacet
  facet normal  1.000000e+000  -0.000000e+000  0.000000e+000
    outer loop
      vertex  1.300000e+001  4.400000e+001  3.000000e+001
      vertex  1.300000e+001  3.797118e+001  1.229264e+001
      vertex  1.300000e+001  4.400000e+001 -6.000000e+000
    endloop
  endfacet
  facet normal  1.000000e+000  0.000000e+000  0.000000e+000
    outer loop
      vertex  1.300000e+001 -4.000000e+000  3.000000e+001
      vertex  1.300000e+001 -4.000000e+000 -6.000000e+000
      vertex  1.300000e+001  2.028822e+000  1.229264e+001
    endloop
  endfacet
  facet normal  1.000000e+000  0.000000e+000  -0.000000e+000
    outer loop
      vertex  1.300000e+001 -4.000000e+000  3.000000e+001
      vertex  1.300000e+001  2.028822e+000  1.229264e+001
      vertex  1.300000e+001  2.114181e+000  1.257403e+001
    endloop
  endfacet
  facet normal  1.000000e+000  0.000000e+000  -0.000000e+000
    outer loop
      vertex  1.300000e+001 -4.000000e+000  3.000000e+001
      vertex  1.300000e+001  2.114181e+000  1.257403e+001
      vertex  1.300000e+001  2.252796e+000  1.283335e+001
    endloop
  endfacet
  facet normal  1.000000e+000  0.000000e+000  -0.000000e+000
    outer loop
      vertex  1.300000e+001 -4.000000e+000  3.000000e+001
      vertex  1.300000e+001  2.252796e+000  1.283335e+001
      vertex  1.300000e+001  2.439340e+000  1.306066e+001
    endloop
  endfacet
  facet normal  1.000000e+000  0.000000e+000  -0.000000e+000
    outer loop
      vertex  1.300000e+001 -4.000000e+000  3.000000e+001
      vertex  1.300000e+001  2.439340e+000  1.306066e+001
      vertex  1.300000e+001  2.666645e+000  1.324720e+001
    endloop
  endfacet
  facet normal  1.000000e+000  0.000000e+000  -0.000000e+000
    outer loop
      vertex  1.300000e+001 -4.000000e+000  3.000000e+001
      vertex  1.300000e+001  2.666645e+000  1.324720e+001
      vertex  1.300000e+001  2.925975e+000  1.338582e+001
    endloop
  endfacet
  facet normal  1.000000e+000  0.000000e+000  -0.000000e+000
    outer loop
      vertex  1.300000e+001 -4.000000e+000  3.000000e+001
      vertex  1.300000e+001  2.925975e+000  1.338582e+001
      vertex  1.300000e+001  3.207365e+000  1.347118e+001
    endloop
  endfacet
  facet normal  1.000000e+000  0.000000e+000  -0.000000e+000
    outer loop
      vertex  1.300000e+001 -4.000000e+000  3.000000e+001
      vertex  1.300000e+001  3.207365e+000  1.347118e+001
      vertex  1.300000e+001  3.500000e+000  1.350000e+001
    endloop
  endfacet
  facet normal  1.000000e+000  0.000000e+000  -0.000000e+000
    outer loop
      vertex  1.300000e+001 -4.000000e+000  3.000000e+001
      vertex  1.300000e+001  3.500000e+000  1.350000e+001
      vertex  1.300000e+001  6.000000e+000  2.200000e+001
    endloop
  endfacet
  facet normal  1.000000e+000  0.000000e+000  -0.000000e+000
    outer loop
      vertex  1.300000e+001 -4.000000e+000  3.000000e+001
      vertex  1.300000e+001  6.000000e+000  2.200000e+001
      vertex  1.300000e+001  3.400000e+001  2.200000e+001
    endloop
  endfacet
  facet normal  1.000000e+000  0.000000e+000  0.000000e+000
    outer loop
      vertex  1.300000e+001 -4.000000e+000 -6.000000e+000
      vertex  1.300000e+001  4.400000e+001 -6.000000e+000
      vertex  1.300000e+001  3.400000e+001  2.000000e+000
    endloop
  endfacet
  facet normal  1.000000e+000  0.000000e+000  0.000000e+000
    outer loop
      vertex  1.300000e+001 -4.000000e+000 -6.000000e+000
      vertex  1.300000e+001  3.400000e+001  2.000000e+000
      vertex  1.300000e+001  6.000000e+000  2.000000e+000
    endloop
  endfacet
  facet normal  1.000000e+000  0.000000e+000  0.000000e+000
    outer loop
      vertex  1.300000e+001 -4.000000e+000 -6.000000e+000
      vertex  1.300000e+001  6.000000e+000  2.000000e+000
      vertex  1.300000e+001  3.500000e+000  1.050000e+001
    endloop
  endfacet
  facet normal  1.000000e+000  0.000000e+000  0.000000e+000
    outer loop
      vertex  1.300000e+001 -4.000000e+000 -6.000000e+000
      vertex  1.300000e+001  3.500000e+000  1.050000e+001
      vertex  1.300000e+001  3.207365e+000  1.052882e+001
    endloop
  endfacet
  facet normal  1.000000e+000  0.000000e+000  0.000000e+000
    outer loop
      vertex  1.300000e+001 -4.000000e+000 -6.000000e+000
      vertex  1.300000e+001  3.207365e+000  1.052882e+001
      vertex  1.300000e+001  2.925975e+000  1.061418e+001
    endloop
  endfacet
  facet normal  1.000000e+000  0.000000e+000  0.000000e+000
    outer loop
      vertex  1.300000e+001 -4.000000e+000 -6.000000e+000
      vertex  1.300000e+001  2.925975e+000  1.061418e+001
      vertex  1.300000e+001  2.666645e+000  1.075280e+001
    endloop
  endfacet
  facet normal  1.000000e+000  0.000000e+000  0.000000e+000
    outer loop
      vertex  1.300000e+001 -4.000000e+000 -6.000000e+000
      vertex  1.300000e+001  2.666645e+000  1.075280e+001
      vertex  1.300000e+001  2.439340e+000  1.093934e+001
    endloop
  endfacet
  facet normal  1.000000e+000  0.000000e+000  0.000000e+000
    outer loop
      vertex  1.300000e+001 -4.000000e+000 -6.000000e+000
      vertex  1.300000e+001  2.439340e+000  1.093934e+001
      vertex  1.300000e+001  2.252796e+000  1.116665e+001
    endloop
  endfacet
  facet normal  1.000000e+000  0.000000e+000  0.000000e+000
    outer loop
      vertex  1.300000e+001 -4.000000e+000 -6.000000e+000
      vertex  1.300000e+001  2.252796e+000  1.116665e+001
      vertex  1.300000e+001  2.114181e+000  1.142597e+001
    endloop
  endfacet
  facet normal  1.000000e+000  0.000000e+000  0.000000e+000
    outer loop
      vertex  1.300000e+001 -4.000000e+000 -6.000000e+000
      vertex  1.300000e+001  2.114181e+000  1.142597e+001
      vertex  1.300000e+001  2.028822e+000  1.170736e+001
    endloop
  endfacet
  facet normal  1.000000e+000  0.000000e+000  0.000000e+000
    outer loop
      vertex  1.300000e+001 -4.000000e+000 -6.000000e+000
      vertex  1.300000e+001  2.028822e+000  1.170736e+001
      vertex  1.300000e+001  2.000000e+000  1.200000e+001
    endloop
  endfacet
  facet normal  1.000000e+000  0.000000e+000  -0.000000e+000
    outer loop
      vertex  1.300000e+001 -4.000000e+000 -6.000000e+000
      vertex  1.300000e+001  2.000000e+000  1.200000e+001
      vertex  1.300000e+001  2.028822e+000  1.229264e+001
    endloop
  endfacet
  facet normal  1.000000e+000  0.000000e+000  0.000000e+000
    outer loop
      vertex  1.300000e+001  6.000000e+000  2.000000e+000
      vertex  1.300000e+001  5.000000e+000  1.200000e+001
      vertex  1.300000e+001  4.971178e+000  1.170736e+001
    endloop
  endfacet
  facet normal  1.000000e+000  0.000000e+000  0.000000e+000
    outer loop
      vertex  1.300000e+001  6.000000e+000  2.000000e+000
      vertex  1.300000e+001  4.971178e+000  1.170736e+001
      vertex  1.300000e+001  4.885819e+000  1.142597e+001
    endloop
  endfacet
  facet normal  1.000000e+000  0.000000e+000  0.000000e+000
    outer loop
      vertex  1.300000e+001  6.000000e+000  2.000000e+000
      vertex  1.300000e+001  4.885819e+000  1.142597e+001
      vertex  1.300000e+001  4.747204e+000  1.116665e+001
    endloop
  endfacet
  facet normal  1.000000e+000  0.000000e+000  0.000000e+000
    outer loop
      vertex  1.300000e+001  6.000000e+000  2.000000e+000
      vertex  1.300000e+001  4.747204e+000  1.116665e+001
      vertex  1.300000e+001  4.560660e+000  1.093934e+001
    endloop
  endfacet
  facet normal  1.000000e+000  0.000000e+000  0.000000e+000
    outer loop
      vertex  1.300000e+001  6.000000e+000  2.000000e+000
      vertex  1.300000e+001  4.560660e+000  1.093934e+001
      vertex  1.300000e+001  4.333355e+000  1.075280e+001
    endloop
  endfacet
  facet normal  1.000000e+000  0.000000e+000  0.000000e+000
    outer loop
      vertex  1.300000e+001  6.000000e+000  2.000000e+000
      vertex  1.300000e+001  4.333355e+000  1.075280e+001
      vertex  1.300000e+001  4.074025e+000  1.061418e+001
    endloop
  endfacet
  facet normal  1.000000e+000  0.000000e+000  0.000000e+000
    outer loop
      vertex  1.300000e+001  6.000000e+000  2.000000e+000
      vertex  1.300000e+001  4.074025e+000  1.061418e+001
      vertex  1.300000e+001  3.792635e+000  1.052882e+001
    endloop
  endfacet
  facet normal  1.000000e+000  0.000000e+000  0.000000e+000
    outer loop
      vertex  1.300000e+001  6.000000e+000  2.000000e+000
      vertex  1.300000e+001  3.792635e+000  1.052882e+001
      vertex  1.300000e+001  3.500000e+000  1.050000e+001
    endloop
  endfacet
  facet normal  1.000000e+000  -0.000000e+000  0.000000e+000
    outer loop
      vertex  1.300000e+001  6.000000e+000  2.200000e+001
      vertex  1.300000e+001  3.500000e+000  1.350000e+001
      vertex  1.300000e+001  3.792635e+000  1.347118e+001
    endloop
  endfacet
  facet normal  1.000000e+000  -0.000000e+000  0.000000e+000
    outer loop
      vertex  1.300000e+001  6.000000e+000  2.200000e+001
      vertex  1.300000e+001  3.792635e+000  1.347118e+001
      vertex  1.300000e+001  4.074025e+000  1.338582e+001
    endloop
  endfacet
  facet normal  1.000000e+000  -0.000000e+000  0.000000e+000
    outer loop
      vertex  1.300000e+001  6.000000e+000  2.200000e+001
      vertex  1.300000e+001  4.074025e+000  1.338582e+001
      vertex  1.300000e+001  4.333355e+000  1.324720e+001
    endloop
  endfacet
  facet normal  1.000000e+000  -0.000000e+000  0.000000e+000
    outer loop
      vertex  1.300000e+001  6.000000e+000  2.200000e+001
      vertex  1.300000e+001  4.333355e+000  1.324720e+001
      vertex  1.300000e+001  4.560660e+000  1.306066e+001
    endloop
  endfacet
  facet normal  1.000000e+000  -0.000000e+000  0.000000e+000
    outer loop
      vertex  1.300000e+001  6.000000e+000  2.200000e+001
      vertex  1.300000e+001  4.560660e+000  1.306066e+001
      vertex  1.300000e+001  4.747204e+000  1.283335e+001
    endloop
  endfacet
  facet normal  1.000000e+000  -0.000000e+000  0.000000e+000
    outer loop
      vertex  1.300000e+001  6.000000e+000  2.200000e+001
      vertex  1.300000e+001  4.747204e+000  1.283335e+001
      vertex  1.300000e+001  4.885819e+000  1.257403e+001
    endloop
  endfacet
  facet normal  1.000000e+000  -0.000000e+000  0.000000e+000
    outer loop
      vertex  1.300000e+001  6.000000e+000  2.200000e+001
      vertex  1.300000e+001  4.885819e+000  1.257403e+001
      vertex  1.300000e+001  4.971178e+000  1.229264e+001
    endloop
  endfacet
  facet normal  1.000000e+000  -0.000000e+000  0.000000e+000
    outer loop
      vertex  1.300000e+001  6.000000e+000  2.200000e+001
      vertex  1.300000e+001  4.971178e+000  1.229264e+001
      vertex  1.300000e+001  5.000000e+000  1.200000e+001
    endloop
  endfacet
  facet normal  1.000000e+000  -0.000000e+000  0.000000e+000
    outer loop
      vertex  1.300000e+001  6.000000e+000  2.200000e+001
      vertex  1.300000e+001  5.000000e+000  1.200000e+001
      vertex  1.300000e+001  6.000000e+000  2.000000e+000
    endloop
  endfacet
  facet normal  1.000000e+000  0.000000e+000  0.000000e+000
    outer loop
      vertex  1.300000e+001  3.400000e+001  2.000000e+000
      vertex  1.300000e+001  4.400000e+001 -6.000000e+000
      vertex  1.300000e+001  3.650000e+001  1.050000e+001
    endloop
  endfacet
  facet normal  1.000000e+000  0.000000e+000  0.000000e+000
    outer loop
      vertex  1.300000e+001  3.400000e+001  2.000000e+000
      vertex  1.300000e+001  3.650000e+001  1.050000e+001
      vertex  1.300000e+001  3.620736e+001  1.052882e+001
    endloop
  endfacet
  facet normal  1.000000e+000  0.000000e+000  0.000000e+000
    outer loop
      vertex  1.300000e+001  3.400000e+001  2.000000e+000
      vertex  1.300000e+001  3.620736e+001  1.052882e+001
      vertex  1.300000e+001  3.592598e+001  1.061418e+001
    endloop
  endfacet
  facet normal  1.000000e+000  0.000000e+000  0.000000e+000
    outer loop
      vertex  1.300000e+001  3.400000e+001  2.000000e+000
      vertex  1.300000e+001  3.592598e+001  1.061418e+001
      vertex  1.300000e+001  3.566665e+001  1.075280e+001
    endloop
  endfacet
  facet normal  1.000000e+000  0.000000e+000  0.000000e+000
    outer loop
      vertex  1.300000e+001  3.400000e+001  2.000000e+000
      vertex  1.300000e+001  3.566665e+001  1.075280e+001
      vertex  1.300000e+001  3.543934e+001  1.093934e+001
    endloop
  endfacet
  facet normal  1.000000e+000  0.000000e+000  0.000000e+000
    outer loop
      vertex  1.300000e+001  3.400000e+001  2.000000e+000
      vertex  1.300000e+001  3.543934e+001  1.093934e+001
      vertex  1.300000e+001  3.525280e+001  1.116665e+001
    endloop
  endfacet
  facet normal  1.000000e+000  0.000000e+000  0.000000e+000
    outer loop
      vertex  1.300000e+001  3.400000e+001  2.000000e+000
      vertex  1.300000e+001  3.525280e+001  1.116665e+001
      vertex  1.300000e+001  3.511418e+001  1.142597e+001
    endloop
  endfacet
  facet normal  1.000000e+000  0.000000e+000  0.000000e+000
    outer loop
      vertex  1.300000e+001  3.400000e+001  2.000000e+000
      vertex  1.300000e+001  3.511418e+001  1.142597e+001
      vertex  1.300000e+001  3.502882e+001  1.170736e+001
    endloop
  endfacet
  facet normal  1.000000e+000  0.000000e+000  0.000000e+000
    outer loop
      vertex  1.300000e+001  3.400000e+001  2.000000e+000
      vertex  1.300000e+001  3.502882e+001  1.170736e+001
      vertex  1.300000e+001  3.500000e+001  1.200000e+001
    endloop
  endfacet
  facet normal  1.000000e+000  0.000000e+000  0.000000e+000
    outer loop
      vertex  1.300000e+001  3.400000e+001  2.200000e+001
      vertex  1.300000e+001  3.400000e+001  2.000000e+000
      vertex  1.300000e+001  3.500000e+001  1.200000e+001
    endloop
  endfacet
  facet normal  1.000000e+000  0.000000e+000  -0.000000e+000
    outer loop
      vertex  1.300000e+001  3.400000e+001  2.200000e+001
      vertex  1.300000e+001  3.500000e+001  1.200000e+001
      vertex  1.300000e+001  3.502882e+001  1.229264e+001
    endloop
  endfacet
  facet normal  1.000000e+000  0.000000e+000  -0.000000e+000
    outer loop
      vertex  1.300000e+001  3.400000e+001  2.200000e+001
      vertex  1.300000e+001  3.502882e+001  1.229264e+001
      vertex  1.300000e+001  3.511418e+001  1.257403e+001
    endloop
  endfacet
  facet normal  1.000000e+000  0.000000e+000  -0.000000e+000
    outer loop
      vertex  1.300000e+001  3.400000e+001  2.200000e+001
      vertex  1.300000e+001  3.511418e+001  1.257403e+001
      vertex  1.300000e+001  3.525280e+001  1.283335e+001
    endloop
  endfacet
  facet normal  1.000000e+000  0.000000e+000  -0.000000e+000
    outer loop
      vertex  1.300000e+001  3.400000e+001  2.200000e+001
      vertex  1.300000e+001  3.525280e+001  1.283335e+001
      vertex  1.300000e+001  3.543934e+001  1.306066e+001
    endloop
  endfacet
  facet normal  1.000000e+000  0.000000e+000  -0.000000e+000
    outer loop
      vertex  1.300000e+001  3.400000e+001  2.200000e+001
      vertex  1.300000e+001  3.543934e+001  1.306066e+001
      vertex  1.300000e+001  3.566665e+001  1.324720e+001
    endloop
  endfacet
  facet normal  1.000000e+000  0.000000e+000  -0.000000e+000
    outer loop
      vertex  1.300000e+001  3.400000e+001  2.200000e+001
      vertex  1.300000e+001  3.566665e+001  1.324720e+001
      vertex  1.300000e+001  3.592598e+001  1.338582e+001
    endloop
  endfacet
  facet normal  1.000000e+000  0.000000e+000  -0.000000e+000
    outer loop
      vertex  1.300000e+001  3.400000e+001  2.200000e+001
      vertex  1.300000e+001  3.592598e+001  1.338582e+001
      vertex  1.300000e+001  3.620736e+001  1.347118e+001
    endloop
  endfacet
  facet normal  1.000000e+000  0.000000e+000  -0.000000e+000
    outer loop
      vertex  1.300000e+001  3.400000e+001  2.200000e+001
      vertex  1.300000e+001  3.620736e+001  1.347118e+001
      vertex  1.300000e+001  3.650000e+001  1.350000e+001
    endloop
  endfacet
  facet normal  1.000000e+000  0.000000e+000  0.000000e+000
    outer loop
      vertex  1.300000e+001  4.400000e+001 -6.000000e+000
      vertex  1.300000e+001  3.797118e+001  1.229264e+001
      vertex  1.300000e+001  3.800000e+001  1.200000e+001
    endloop
  endfacet
  facet normal  1.000000e+000  0.000000e+000  0.000000e+000
    outer loop
      vertex  1.300000e+001  4.400000e+001 -6.000000e+000
      vertex  1.300000e+001  3.800000e+001  1.200000e+001
      vertex  1.300000e+001  3.797118e+001  1.170736e+001
    endloop
  endfacet
  facet normal  1.000000e+000  0.000000e+000  0.000000e+000
    outer loop
      vertex  1.300000e+001  4.400000e+001 -6.000000e+000
      vertex  1.300000e+001  3.797118e+001  1.170736e+001
      vertex  1.300000e+001  3.788582e+001  1.142597e+001
    endloop
  endfacet
  facet normal  1.000000e+000  0.000000e+000  0.000000e+000
    outer loop
      vertex  1.300000e+001  4.400000e+001 -6.000000e+000
      vertex  1.300000e+001  3.788582e+001  1.142597e+001
      vertex  1.300000e+001  3.774720e+001  1.116665e+001
    endloop
  endfacet
  facet normal  1.000000e+000  0.000000e+000  0.000000e+000
    outer loop
      vertex  1.300000e+001  4.400000e+001 -6.000000e+000
      vertex  1.300000e+001  3.774720e+001  1.116665e+001
      vertex  1.300000e+001  3.756066e+001  1.093934e+001
    endloop
  endfacet
  facet normal  9.999999e-001  0.000000e+000  0.000000e+000
    outer loop
      vertex  1.300000e+001  4.400000e+001 -6.000000e+000
      vertex  1.300000e+001  3.756066e+001  1.093934e+001
      vertex  1.300000e+001  3.733335e+001  1.075280e+001
    endloop
  endfacet
  facet normal  9.999999e-001  0.000000e+000  0.000000e+000
    outer loop
      vertex  1.300000e+001  4.400000e+001 -6.000000e+000
      vertex  1.300000e+001  3.733335e+001  1.075280e+001
      vertex  1.300000e+001  3.707402e+001  1.061418e+001
    endloop
  endfacet
  facet normal  1.000000e+000  0.000000e+000  0.000000e+000
    outer loop
      vertex  1.300000e+001  4.400000e+001 -6.000000e+000
      vertex  1.300000e+001  3.707402e+001  1.061418e+001
      vertex  1.300000e+001  3.679264e+001  1.052882e+001
    endloop
  endfacet
  facet normal  1.000000e+000  0.000000e+000  0.000000e+000
    outer loop
      vertex  1.300000e+001  4.400000e+001 -6.000000e+000
      vertex  1.300000e+001  3.679264e+001  1.052882e+001
      vertex  1.300000e+001  3.650000e+001  1.050000e+001
    endloop
  endfacet
  facet normal -1.000000e+000  0.000000e+000  0.000000e+000
    outer loop
      vertex  0.000000e+000  4.000000e+001  2.500000e+001
      vertex  0.000000e+000  4.000000e+001  0.000000e+000
      vertex  0.000000e+000  3.797118e+001  1.229264e+001
    endloop
  endfacet
  facet normal -1.000000e+000  0.000000e+000  0.000000e+000
    outer loop
      vertex  0.000000e+000  4.000000e+001  2.500000e+001
      vertex  0.000000e+000  3.797118e+001  1.229264e+001
      vertex  0.000000e+000  3.788582e+001  1.257403e+001
    endloop
  endfacet
  facet normal -1.000000e+000  0.000000e+000  0.000000e+000
    outer loop
      vertex  0.000000e+000  4.000000e+001  2.500000e+001
      vertex  0.000000e+000  3.788582e+001  1.257403e+001
      vertex  0.000000e+000  3.774720e+001  1.283335e+001
    endloop
  endfacet
  facet normal -1.000000e+000  0.000000e+000  0.000000e+000
    outer loop
      vertex  0.000000e+000  4.000000e+001  2.500000e+001
      vertex  0.000000e+000  3.774720e+001  1.283335e+001
      vertex  0.000000e+000  3.756066e+001  1.306066e+001
    endloop
  endfacet
  facet normal -1.000000e+000  0.000000e+000  0.000000e+000
    outer loop
      vertex  0.000000e+000  4.000000e+001  2.500000e+001
      vertex  0.000000e+000  3.756066e+001  1.306066e+001
      vertex  0.000000e+000  3.733335e+001  1.324720e+001
    endloop
  endfacet
  facet normal -1.000000e+000  0.000000e+000  0.000000e+000
    outer loop
      vertex  0.000000e+000  4.000000e+001  2.500000e+001
      vertex  0.000000e+000  3.733335e+001  1.324720e+001
      vertex  0.000000e+000  3.707402e+001  1.338582e+001
    endloop
  endfacet
  facet normal -1.000000e+000  0.000000e+000  0.000000e+000
    outer loop
      vertex  0.000000e+000  4.000000e+001  2.500000e+001
      vertex  0.000000e+000  3.707402e+001  1.338582e+001
      vertex  0.000000e+000  3.679264e+001  1.347118e+001
    endloop
  endfacet
  facet normal -1.000000e+000  0.000000e+000  0.000000e+000
    outer loop
      vertex  0.000000e+000  4.000000e+001  2.500000e+001
      vertex  0.000000e+000  3.679264e+001  1.347118e+001
      vertex  0.000000e+000  3.650000e+001  1.350000e+001
    endloop
  endfacet
  facet normal -1.000000e+000  0.000000e+000  0.000000e+000
    outer loop
      vertex  0.000000e+000  4.000000e+001  2.500000e+001
      vertex  0.000000e+000  3.650000e+001  1.350000e+001
      vertex  0.000000e+000  3.400000e+001  2.200000e+001
    endloop
  endfacet
  facet normal -1.000000e+000  0.000000e+000  0.000000e+000
    outer loop
      vertex  0.000000e+000  4.000000e+001  2.500000e+001
      vertex  0.000000e+000  3.400000e+001  2.200000e+001
      vertex  0.000000e+000  0.000000e+000  2.500000e+001
    endloop
  endfacet
  facet normal -1.000000e+000  0.000000e+000  0.000000e+000
    outer loop
      vertex  0.000000e+000  0.000000e+000  2.500000e+001
      vertex  0.000000e+000  3.400000e+001  2.200000e+001
      vertex  0.000000e+000  6.000000e+000  2.200000e+001
    endloop
  endfacet
  facet normal -1.000000e+000  -0.000000e+000  0.000000e+000
    outer loop
      vertex  0.000000e+000  0.000000e+000  2.500000e+001
      vertex  0.000000e+000  6.000000e+000  2.200000e+001
      vertex  0.000000e+000  3.500000e+000  1.350000e+001
    endloop
  endfacet
  facet normal -1.000000e+000  -0.000000e+000  0.000000e+000
    outer loop
      vertex  0.000000e+000  0.000000e+000  2.500000e+001
      vertex  0.000000e+000  3.500000e+000  1.350000e+001
      vertex  0.000000e+000  3.207365e+000  1.347118e+001
    endloop
  endfacet
  facet normal -1.000000e+000  -0.000000e+000  0.000000e+000
    outer loop
      vertex  0.000000e+000  0.000000e+000  2.500000e+001
      vertex  0.000000e+000  3.207365e+000  1.347118e+001
      vertex  0.000000e+000  2.925975e+000  1.338582e+001
    endloop
  endfacet
  facet normal -1.000000e+000  -0.000000e+000  0.000000e+000
    outer loop
      vertex  0.000000e+000  0.000000e+000  2.500000e+001
      vertex  0.000000e+000  2.925975e+000  1.338582e+001
      vertex  0.000000e+000  2.666645e+000  1.324720e+001
    endloop
  endfacet
  facet normal -1.000000e+000  -0.000000e+000  0.000000e+000
    outer loop
      vertex  0.000000e+000  0.000000e+000  2.500000e+001
      vertex  0.000000e+000  2.666645e+000  1.324720e+001
      vertex  0.000000e+000  2.439340e+000  1.306066e+001
    endloop
  endfacet
  facet normal -1.000000e+000  -0.000000e+000  0.000000e+000
    outer loop
      vertex  0.000000e+000  0.000000e+000  2.500000e+001
      vertex  0.000000e+000  2.439340e+000  1.306066e+001
      vertex  0.000000e+000  2.252796e+000  1.283335e+001
    endloop
  endfacet
  facet normal -9.999999e-001  -0.000000e+000  0.000000e+000
    outer loop
      vertex  0.000000e+000  0.000000e+000  2.500000e+001
      vertex  0.000000e+000  2.252796e+000  1.283335e+001
      vertex  0.000000e+000  2.114181e+000  1.257403e+001
    endloop
  endfacet
  facet normal -9.999999e-001  -0.000000e+000  0.000000e+000
    outer loop
      vertex  0.000000e+000  0.000000e+000  2.500000e+001
      vertex  0.000000e+000  2.114181e+000  1.257403e+001
      vertex  0.000000e+000  2.028822e+000  1.229264e+001
    endloop
  endfacet
  facet normal -1.000000e+000  -0.000000e+000  0.000000e+000
    outer loop
      vertex  0.000000e+000  0.000000e+000  2.500000e+001
      vertex  0.000000e+000  2.028822e+000  1.229264e+001
      vertex  0.000000e+000  0.000000e+000  0.000000e+000
    endloop
  endfacet
  facet normal -9.999999e-001  0.000000e+000  0.000000e+000
    outer loop
      vertex  0.000000e+000  0.000000e+000  0.000000e+000
      vertex  0.000000e+000  2.028822e+000  1.229264e+001
      vertex  0.000000e+000  2.000000e+000  1.200000e+001
    endloop
  endfacet
  facet normal -9.999999e-001  0.000000e+000  -0.000000e+000
    outer loop
      vertex  0.000000e+000  0.000000e+000  0.000000e+000
      vertex  0.000000e+000  2.000000e+000  1.200000e+001
      vertex  0.000000e+000  2.028822e+000  1.170736e+001
    endloop
  endfacet
  facet normal -1.000000e+000  0.000000e+000  -0.000000e+000
    outer loop
      vertex  0.000000e+000  0.000000e+000  0.000000e+000
      vertex  0.000000e+000  2.028822e+000  1.170736e+001
      vertex  0.000000e+000  2.114181e+000  1.142597e+001
    endloop
  endfacet
  facet normal -1.000000e+000  0.000000e+000  -0.000000e+000
    outer loop
      vertex  0.000000e+000  0.000000e+000  0.000000e+000
      vertex  0.000000e+000  2.114181e+000  1.142597e+001
      vertex  0.000000e+000  2.252796e+000  1.116665e+001
    endloop
  endfacet
  facet normal -1.000000e+000  0.000000e+000  -0.000000e+000
    outer loop
      vertex  0.000000e+000  0.000000e+000  0.000000e+000
      vertex  0.000000e+000  2.252796e+000  1.116665e+001
      vertex  0.000000e+000  2.439340e+000  1.093934e+001
    endloop
  endfacet
  facet normal -1.000000e+000  0.000000e+000  -0.000000e+000
    outer loop
      vertex  0.000000e+000  0.000000e+000  0.000000e+000
      vertex  0.000000e+000  2.439340e+000  1.093934e+001
      vertex  0.000000e+000  2.666645e+000  1.075280e+001
    endloop
  endfacet
  facet normal -1.000000e+000  0.000000e+000  -0.000000e+000
    outer loop
      vertex  0.000000e+000  0.000000e+000  0.000000e+000
      vertex  0.000000e+000  2.666645e+000  1.075280e+001
      vertex  0.000000e+000  2.925975e+000  1.061418e+001
    endloop
  endfacet
  facet normal -1.000000e+000  0.000000e+000  -0.000000e+000
    outer loop
      vertex  0.000000e+000  0.000000e+000  0.000000e+000
      vertex  0.000000e+000  2.925975e+000  1.061418e+001
      vertex  0.000000e+000  3.207365e+000  1.052882e+001
    endloop
  endfacet
  facet normal -1.000000e+000  0.000000e+000  -0.000000e+000
    outer loop
      vertex  0.000000e+000  0.000000e+000  0.000000e+000
      vertex  0.000000e+000  3.207365e+000  1.052882e+001
      vertex  0.000000e+000  3.500000e+000  1.050000e+001
    endloop
  endfacet
  facet normal -1.000000e+000  0.000000e+000  -0.000000e+000
    outer loop
      vertex  0.000000e+000  0.000000e+000  0.000000e+000
      vertex  0.000000e+000  3.500000e+000  1.050000e+001
      vertex  0.000000e+000  6.000000e+000  2.000000e+000
    endloop
  endfacet
  facet normal -1.000000e+000  0.000000e+000  -0.000000e+000
    outer loop
      vertex  0.000000e+000  0.000000e+000  0.000000e+000
      vertex  0.000000e+000  6.000000e+000  2.000000e+000
      vertex  0.000000e+000  3.400000e+001  2.000000e+000
    endloop
  endfacet
  facet normal -1.000000e+000  0.000000e+000  -0.000000e+000
    outer loop
      vertex  0.000000e+000  0.000000e+000  0.000000e+000
      vertex  0.000000e+000  3.400000e+001  2.000000e+000
      vertex  0.000000e+000  4.000000e+001  0.000000e+000
    endloop
  endfacet
  facet normal -1.000000e+000  0.000000e+000  0.000000e+000
    outer loop
      vertex  0.000000e+000  6.000000e+000  2.000000e+000
      vertex  0.000000e+000  3.500000e+000  1.050000e+001
      vertex  0.000000e+000  3.792635e+000  1.052882e+001
    endloop
  endfacet
  facet normal -1.000000e+000  0.000000e+000  0.000000e+000
    outer loop
      vertex  0.000000e+000  6.000000e+000  2.000000e+000
      vertex  0.000000e+000  3.792635e+000  1.052882e+001
      vertex  0.000000e+000  4.074025e+000  1.061418e+001
    endloop
  endfacet
  facet normal -1.000000e+000  0.000000e+000  0.000000e+000
    outer loop
      vertex  0.000000e+000  6.000000e+000  2.000000e+000
      vertex  0.000000e+000  4.074025e+000  1.061418e+001
      vertex  0.000000e+000  4.333355e+000  1.075280e+001
    endloop
  endfacet
  facet normal -1.000000e+000  0.000000e+000  0.000000e+000
    outer loop
      vertex  0.000000e+000  6.000000e+000  2.000000e+000
      vertex  0.000000e+000  4.333355e+000  1.075280e+001
      vertex  0.000000e+000  4.560660e+000  1.093934e+001
    endloop
  endfacet
  facet normal -1.000000e+000  0.000000e+000  0.000000e+000
    outer loop
      vertex  0.000000e+000  6.000000e+000  2.000000e+000
      vertex  0.000000e+000  4.560660e+000  1.093934e+001
      vertex  0.000000e+000  4.747204e+000  1.116665e+001
    endloop
  endfacet
  facet normal -1.000000e+000  0.000000e+000  0.000000e+000
    outer loop
      vertex  0.000000e+000  6.000000e+000  2.000000e+000
      vertex  0.000000e+000  4.747204e+000  1.116665e+001
      vertex  0.000000e+000  4.885819e+000  1.142597e+001
    endloop
  endfacet
  facet normal -1.000000e+000  0.000000e+000  0.000000e+000
    outer loop
      vertex  0.000000e+000  6.000000e+000  2.000000e+000
      vertex  0.000000e+000  4.885819e+000  1.142597e+001
      vertex  0.000000e+000  4.971178e+000  1.170736e+001
    endloop
  endfacet
  facet normal -1.000000e+000  0.000000e+000  0.000000e+000
    outer loop
      vertex  0.000000e+000  6.000000e+000  2.000000e+000
      vertex  0.000000e+000  4.971178e+000  1.170736e+001
      vertex  0.000000e+000  5.000000e+000  1.200000e+001
    endloop
  endfacet
  facet normal -1.000000e+000  0.000000e+000  0.000000e+000
    outer loop
      vertex  0.000000e+000  6.000000e+000  2.200000e+001
      vertex  0.000000e+000  6.000000e+000  2.000000e+000
      vertex  0.000000e+000  5.000000e+000  1.200000e+001
    endloop
  endfacet
  facet normal -1.000000e+000  0.000000e+000  0.000000e+000
    outer loop
      vertex  0.000000e+000  6.000000e+000  2.200000e+001
      vertex  0.000000e+000  5.000000e+000  1.200000e+001
      vertex  0.000000e+000  4.971178e+000  1.229264e+001
    endloop
  endfacet
  facet normal -1.000000e+000  0.000000e+000  0.000000e+000
    outer loop
      vertex  0.000000e+000  6.000000e+000  2.200000e+001
      vertex  0.000000e+000  4.971178e+000  1.229264e+001
      vertex  0.000000e+000  4.885819e+000  1.257403e+001
    endloop
  endfacet
  facet normal -1.000000e+000  0.000000e+000  0.000000e+000
    outer loop
      vertex  0.000000e+000  6.000000e+000  2.200000e+001
      vertex  0.000000e+000  4.885819e+000  1.257403e+001
      vertex  0.000000e+000  4.747204e+000  1.283335e+001
    endloop
  endfacet
  facet normal -1.000000e+000  0.000000e+000  0.000000e+000
    outer loop
      vertex  0.000000e+000  6.000000e+000  2.200000e+001
      vertex  0.000000e+000  4.747204e+000  1.283335e+001
      vertex  0.000000e+000  4.560660e+000  1.306066e+001
    endloop
  endfacet
  facet normal -1.000000e+000  0.000000e+000  0.000000e+000
    outer loop
      vertex  0.000000e+000  6.000000e+000  2.200000e+001
      vertex  0.000000e+000  4.560660e+000  1.306066e+001
      vertex  0.000000e+000  4.333355e+000  1.324720e+001
    endloop
  endfacet
  facet normal -1.000000e+000  0.000000e+000  0.000000e+000
    outer loop
      vertex  0.000000e+000  6.000000e+000  2.200000e+001
      vertex  0.000000e+000  4.333355e+000  1.324720e+001
      vertex  0.000000e+000  4.074025e+000  1.338582e+001
    endloop
  endfacet
  facet normal -1.000000e+000  0.000000e+000  0.000000e+000
    outer loop
      vertex  0.000000e+000  6.000000e+000  2.200000e+001
      vertex  0.000000e+000  4.074025e+000  1.338582e+001
      vertex  0.000000e+000  3.792635e+000  1.347118e+001
    endloop
  endfacet
  facet normal -1.000000e+000  0.000000e+000  0.000000e+000
    outer loop
      vertex  0.000000e+000  6.000000e+000  2.200000e+001
      vertex  0.000000e+000  3.792635e+000  1.347118e+001
      vertex  0.000000e+000  3.500000e+000  1.350000e+001
    endloop
  endfacet
  facet normal -1.000000e+000  0.000000e+000  -0.000000e+000
    outer loop
      vertex  0.000000e+000  3.400000e+001  2.000000e+000
      vertex  0.000000e+000  3.500000e+001  1.200000e+001
      vertex  0.000000e+000  3.502882e+001  1.170736e+001
    endloop
  endfacet
  facet normal -1.000000e+000  0.000000e+000  -0.000000e+000
    outer loop
      vertex  0.000000e+000  3.400000e+001  2.000000e+000
      vertex  0.000000e+000  3.502882e+001  1.170736e+001
      vertex  0.000000e+000  3.511418e+001  1.142597e+001
    endloop
  endfacet
  facet normal -1.000000e+000  0.000000e+000  -0.000000e+000
    outer loop
      vertex  0.000000e+000  3.400000e+001  2.000000e+000
      vertex  0.000000e+000  3.511418e+001  1.142597e+001
      vertex  0.000000e+000  3.525280e+001  1.116665e+001
    endloop
  endfacet
  facet normal -1.000000e+000  0.000000e+000  -0.000000e+000
    outer loop
      vertex  0.000000e+000  3.400000e+001  2.000000e+000
      vertex  0.000000e+000  3.525280e+001  1.116665e+001
      vertex  0.000000e+000  3.543934e+001  1.093934e+001
    endloop
  endfacet
  facet normal -1.000000e+000  0.000000e+000  -0.000000e+000
    outer loop
      vertex  0.000000e+000  3.400000e+001  2.000000e+000
      vertex  0.000000e+000  3.543934e+001  1.093934e+001
      vertex  0.000000e+000  3.566665e+001  1.075280e+001
    endloop
  endfacet
  facet normal -1.000000e+000  0.000000e+000  -0.000000e+000
    outer loop
      vertex  0.000000e+000  3.400000e+001  2.000000e+000
      vertex  0.000000e+000  3.566665e+001  1.075280e+001
      vertex  0.000000e+000  3.592598e+001  1.061418e+001
    endloop
  endfacet
  facet normal -1.000000e+000  0.000000e+000  -0.000000e+000
    outer loop
      vertex  0.000000e+000  3.400000e+001  2.000000e+000
      vertex  0.000000e+000  3.592598e+001  1.061418e+001
      vertex  0.000000e+000  3.620736e+001  1.052882e+001
    endloop
  endfacet
  facet normal -1.000000e+000  0.000000e+000  -0.000000e+000
    outer loop
      vertex  0.000000e+000  3.400000e+001  2.000000e+000
      vertex  0.000000e+000  3.620736e+001  1.052882e+001
      vertex  0.000000e+000  3.650000e+001  1.050000e+001
    endloop
  endfacet
  facet normal -1.000000e+000  0.000000e+000  -0.000000e+000
    outer loop
      vertex  0.000000e+000  3.400000e+001  2.000000e+000
      vertex  0.000000e+000  3.650000e+001  1.050000e+001
      vertex  0.000000e+000  4.000000e+001  0.000000e+000
    endloop
  endfacet
  facet normal -1.000000e+000  -0.000000e+000  0.000000e+000
    outer loop
      vertex  0.000000e+000  3.400000e+001  2.200000e+001
      vertex  0.000000e+000  3.650000e+001  1.350000e+001
      vertex  0.000000e+000  3.620736e+001  1.347118e+001
    endloop
  endfacet
  facet normal -1.000000e+000  -0.000000e+000  0.000000e+000
    outer loop
      vertex  0.000000e+000  3.400000e+001  2.200000e+001
      vertex  0.000000e+000  3.620736e+001  1.347118e+001
      vertex  0.000000e+000  3.592598e+001  1.338582e+001
    endloop
  endfacet
  facet normal -1.000000e+000  -0.000000e+000  0.000000e+000
    outer loop
      vertex  0.000000e+000  3.400000e+001  2.200000e+001
      vertex  0.000000e+000  3.592598e+001  1.338582e+001
      vertex  0.000000e+000  3.566665e+001  1.324720e+001
    endloop
  endfacet
  facet normal -1.000000e+000  -0.000000e+000  0.000000e+000
    outer loop
      vertex  0.000000e+000  3.400000e+001  2.200000e+001
      vertex  0.000000e+000  3.566665e+001  1.324720e+001
      vertex  0.000000e+000  3.543934e+001  1.306066e+001
    endloop
  endfacet
  facet normal -1.000000e+000  -0.000000e+000  0.000000e+000
    outer loop
      vertex  0.000000e+000  3.400000e+001  2.200000e+001
      vertex  0.000000e+000  3.543934e+001  1.306066e+001
      vertex  0.000000e+000  3.525280e+001  1.283335e+001
    endloop
  endfacet
  facet normal -1.000000e+000  -0.000000e+000  0.000000e+000
    outer loop
      vertex  0.000000e+000  3.400000e+001  2.200000e+001
      vertex  0.000000e+000  3.525280e+001  1.283335e+001
      vertex  0.000000e+000  3.511418e+001  1.257403e+001
    endloop
  endfacet
  facet normal -1.000000e+000  -0.000000e+000  0.000000e+000
    outer loop
      vertex  0.000000e+000  3.400000e+001  2.200000e+001
      vertex  0.000000e+000  3.511418e+001  1.257403e+001
      vertex  0.000000e+000  3.502882e+001  1.229264e+001
    endloop
  endfacet
  facet normal -1.000000e+000  -0.000000e+000  0.000000e+000
    outer loop
      vertex  0.000000e+000  3.400000e+001  2.200000e+001
      vertex  0.000000e+000  3.502882e+001  1.229264e+001
      vertex  0.000000e+000  3.500000e+001  1.200000e+001
    endloop
  endfacet
  facet normal -1.000000e+000  -0.000000e+000  0.000000e+000
    outer loop
      vertex  0.000000e+000  3.400000e+001  2.200000e+001
      vertex  0.000000e+000  3.500000e+001  1.200000e+001
      vertex  0.000000e+000  3.400000e+001  2.000000e+000
    endloop
  endfacet
  facet normal -1.000000e+000  0.000000e+000  0.000000e+000
    outer loop
      vertex  0.000000e+000  4.000000e+001  0.000000e+000
      vertex  0.000000e+000  3.650000e+001  1.050000e+001
      vertex  0.000000e+000  3.679264e+001  1.052882e+001
    endloop
  endfacet
  facet normal -1.000000e+000  0.000000e+000  0.000000e+000
    outer loop
      vertex  0.000000e+000  4.000000e+001  0.000000e+000
      vertex  0.000000e+000  3.679264e+001  1.052882e+001
      vertex  0.000000e+000  3.707402e+001  1.061418e+001
    endloop
  endfacet
  facet normal -1.000000e+000  0.000000e+000  0.000000e+000
    outer loop
      vertex  0.000000e+000  4.000000e+001  0.000000e+000
      vertex  0.000000e+000  3.707402e+001  1.061418e+001
      vertex  0.000000e+000  3.733335e+001  1.075280e+001
    endloop
  endfacet
  facet normal -9.999999e-001  0.000000e+000  0.000000e+000
    outer loop
      vertex  0.000000e+000  4.000000e+001  0.000000e+000
      vertex  0.000000e+000  3.733335e+001  1.075280e+001
      vertex  0.000000e+000  3.756066e+001  1.093934e+001
    endloop
  endfacet
  facet normal -1.000000e+000  0.000000e+000  0.000000e+000
    outer loop
      vertex  0.000000e+000  4.000000e+001  0.000000e+000
      vertex  0.000000e+000  3.756066e+001  1.093934e+001
      vertex  0.000000e+000  3.774720e+001  1.116665e+001
    endloop
  endfacet
  facet normal -1.000000e+000  0.000000e+000  0.000000e+000
    outer loop
      vertex  0.000000e+000  4.000000e+001  0.000000e+000
      vertex  0.000000e+000  3.774720e+001  1.116665e+001
      vertex  0.000000e+000  3.788582e+001  1.142597e+001
    endloop
  endfacet
  facet normal -1.000000e+000  0.000000e+000  0.000000e+000
    outer loop
      vertex  0.000000e+000  4.000000e+001  0.000000e+000
      vertex  0.000000e+000  3.788582e+001  1.142597e+001
      vertex  0.000000e+000  3.797118e+001  1.170736e+001
    endloop
  endfacet
  facet normal -1.000000e+000  0.000000e+000  0.000000e+000
    outer loop
      vertex  0.000000e+000  4.000000e+001  0.000000e+000
      vertex  0.000000e+000  3.797118e+001  1.170736e+001
      vertex  0.000000e+000  3.800000e+001  1.200000e+001
    endloop
  endfacet
  facet normal -1.000000e+000  0.000000e+000  0.000000e+000
    outer loop
      vertex  0.000000e+000  4.000000e+001  0.000000e+000
      vertex  0.000000e+000  3.800000e+001  1.200000e+001
      vertex  0.000000e+000  3.797118e+001  1.229264e+001
    endloop
  endfacet
  facet normal  0.000000e+000  9.801669e-002 -9.951847e-001
    outer loop
      vertex  0.000000e+000  3.500000e+000  1.350000e+001
      vertex  1.300000e+001  3.207365e+000  1.347118e+001
      vertex  0.000000e+000  3.207365e+000  1.347118e+001
    endloop
  endfacet
  facet normal  0.000000e+000  2.902846e-001 -9.569404e-001
    outer loop
      vertex  0.000000e+000  3.207365e+000  1.347118e+001
      vertex  1.300000e+001  3.207365e+000  1.347118e+001
      vertex  1.300000e+001  2.925975e+000  1.338582e+001
    endloop
  endfacet
  facet normal  0.000000e+000  2.902846e-001 -9.569404e-001
    outer loop
      vertex  0.000000e+000  3.207365e+000  1.347118e+001
      vertex  1.300000e+001  2.925975e+000  1.338582e+001
      vertex  0.000000e+000  2.925975e+000  1.338582e+001
    endloop
  endfacet
  facet normal  0.000000e+000  4.713960e-001 -8.819216e-001
    outer loop
      vertex  0.000000e+000  2.925975e+000  1.338582e+001
      vertex  1.300000e+001  2.925975e+000  1.338582e+001
      vertex  1.300000e+001  2.666645e+000  1.324720e+001
    endloop
  endfacet
  facet normal  0.000000e+000  4.713960e-001 -8.819216e-001
    outer loop
      vertex  0.000000e+000  2.925975e+000  1.338582e+001
      vertex  1.300000e+001  2.666645e+000  1.324720e+001
      vertex  0.000000e+000  2.666645e+000  1.324720e+001
    endloop
  endfacet
  facet normal  0.000000e+000  6.343938e-001 -7.730100e-001
    outer loop
      vertex  0.000000e+000  2.666645e+000  1.324720e+001
      vertex  1.300000e+001  2.666645e+000  1.324720e+001
      vertex  1.300000e+001  2.439340e+000  1.306066e+001
    endloop
  endfacet
  facet normal  0.000000e+000  6.343938e-001 -7.730100e-001
    outer loop
      vertex  0.000000e+000  2.666645e+000  1.324720e+001
      vertex  1.300000e+001  2.439340e+000  1.306066e+001
      vertex  0.000000e+000  2.439340e+000  1.306066e+001
    endloop
  endfacet
  facet normal  0.000000e+000  7.730114e-001 -6.343922e-001
    outer loop
      vertex  0.000000e+000  2.439340e+000  1.306066e+001
      vertex  1.300000e+001  2.439340e+000  1.306066e+001
      vertex  1.300000e+001  2.252796e+000  1.283335e+001
    endloop
  endfacet
  facet normal  0.000000e+000  7.730114e-001 -6.343922e-001
    outer loop
      vertex  0.000000e+000  2.439340e+000  1.306066e+001
      vertex  1.300000e+001  2.252796e+000  1.283335e+001
      vertex  0.000000e+000  2.252796e+000  1.283335e+001
    endloop
  endfacet
  facet normal  0.000000e+000  8.819209e-001 -4.713973e-001
    outer loop
      vertex  0.000000e+000  2.252796e+000  1.283335e+001
      vertex  1.300000e+001  2.252796e+000  1.283335e+001
      vertex  1.300000e+001  2.114181e+000  1.257403e+001
    endloop
  endfacet
  facet normal  0.000000e+000  8.819209e-001 -4.713973e-001
    outer loop
      vertex  0.000000e+000  2.252796e+000  1.283335e+001
      vertex  1.300000e+001  2.114181e+000  1.257403e+001
      vertex  0.000000e+000  2.114181e+000  1.257403e+001
    endloop
  endfacet
  facet normal  0.000000e+000  9.569402e-001 -2.902851e-001
    outer loop
      vertex  0.000000e+000  2.114181e+000  1.257403e+001
      vertex  1.300000e+001  2.114181e+000  1.257403e+001
      vertex  1.300000e+001  2.028822e+000  1.229264e+001
    endloop
  endfacet
  facet normal  0.000000e+000  9.569402e-001 -2.902851e-001
    outer loop
      vertex  0.000000e+000  2.114181e+000  1.257403e+001
      vertex  1.300000e+001  2.028822e+000  1.229264e+001
      vertex  0.000000e+000  2.028822e+000  1.229264e+001
    endloop
  endfacet
  facet normal  0.000000e+000  9.951847e-001 -9.801735e-002
    outer loop
      vertex  0.000000e+000  2.028822e+000  1.229264e+001
      vertex  1.300000e+001  2.028822e+000  1.229264e+001
      vertex  1.300000e+001  2.000000e+000  1.200000e+001
    endloop
  endfacet
  facet normal  0.000000e+000  9.951847e-001 -9.801735e-002
    outer loop
      vertex  0.000000e+000  2.028822e+000  1.229264e+001
      vertex  1.300000e+001  2.000000e+000  1.200000e+001
      vertex  0.000000e+000  2.000000e+000  1.200000e+001
    endloop
  endfacet
  facet normal  0.000000e+000  9.801669e-002 -9.951847e-001
    outer loop
      vertex  1.300000e+001  3.207365e+000  1.347118e+001
      vertex  0.000000e+000  3.500000e+000  1.350000e+001
      vertex  1.300000e+001  3.500000e+000  1.350000e+001
    endloop
  endfacet
  facet normal  -0.000000e+000 -9.801669e-002 -9.951847e-001
    outer loop
      vertex  1.300000e+001  3.500000e+000  1.350000e+001
      vertex  0.000000e+000  3.500000e+000  1.350000e+001
      vertex  0.000000e+000  3.792635e+000  1.347118e+001
    endloop
  endfacet
  facet normal  0.000000e+000 -9.801669e-002 -9.951847e-001
    outer loop
      vertex  1.300000e+001  3.500000e+000  1.350000e+001
      vertex  0.000000e+000  3.792635e+000  1.347118e+001
      vertex  1.300000e+001  3.792635e+000  1.347118e+001
    endloop
  endfacet
  facet normal  -0.000000e+000 -2.902846e-001 -9.569404e-001
    outer loop
      vertex  1.300000e+001  3.792635e+000  1.347118e+001
      vertex  0.000000e+000  3.792635e+000  1.347118e+001
      vertex  0.000000e+000  4.074025e+000  1.338582e+001
    endloop
  endfacet
  facet normal  0.000000e+000 -2.902846e-001 -9.569404e-001
    outer loop
      vertex  1.300000e+001  3.792635e+000  1.347118e+001
      vertex  0.000000e+000  4.074025e+000  1.338582e+001
      vertex  1.300000e+001  4.074025e+000  1.338582e+001
    endloop
  endfacet
  facet normal  -0.000000e+000 -4.713960e-001 -8.819216e-001
    outer loop
      vertex  1.300000e+001  4.074025e+000  1.338582e+001
      vertex  0.000000e+000  4.074025e+000  1.338582e+001
      vertex  0.000000e+000  4.333355e+000  1.324720e+001
    endloop
  endfacet
  facet normal  0.000000e+000 -4.713960e-001 -8.819216e-001
    outer loop
      vertex  1.300000e+001  4.074025e+000  1.338582e+001
      vertex  0.000000e+000  4.333355e+000  1.324720e+001
      vertex  1.300000e+001  4.333355e+000  1.324720e+001
    endloop
  endfacet
  facet normal  -0.000000e+000 -6.343935e-001 -7.730103e-001
    outer loop
      vertex  1.300000e+001  4.333355e+000  1.324720e+001
      vertex  0.000000e+000  4.333355e+000  1.324720e+001
      vertex  0.000000e+000  4.560660e+000  1.306066e+001
    endloop
  endfacet
  facet normal  0.000000e+000 -6.343935e-001 -7.730103e-001
    outer loop
      vertex  1.300000e+001  4.333355e+000  1.324720e+001
      vertex  0.000000e+000  4.560660e+000  1.306066e+001
      vertex  1.300000e+001  4.560660e+000  1.306066e+001
    endloop
  endfacet
  facet normal  -0.000000e+000 -7.730117e-001 -6.343917e-001
    outer loop
      vertex  1.300000e+001  4.560660e+000  1.306066e+001
      vertex  0.000000e+000  4.560660e+000  1.306066e+001
      vertex  0.000000e+000  4.747204e+000  1.283335e+001
    endloop
  endfacet
  facet normal  0.000000e+000 -7.730117e-001 -6.343917e-001
    outer loop
      vertex  1.300000e+001  4.560660e+000  1.306066e+001
      vertex  0.000000e+000  4.747204e+000  1.283335e+001
      vertex  1.300000e+001  4.747204e+000  1.283335e+001
    endloop
  endfacet
  facet normal  -0.000000e+000 -8.819206e-001 -4.713980e-001
    outer loop
      vertex  1.300000e+001  4.747204e+000  1.283335e+001
      vertex  0.000000e+000  4.747204e+000  1.283335e+001
      vertex  0.000000e+000  4.885819e+000  1.257403e+001
    endloop
  endfacet
  facet normal  0.000000e+000 -8.819206e-001 -4.713980e-001
    outer loop
      vertex  1.300000e+001  4.747204e+000  1.283335e+001
      vertex  0.000000e+000  4.885819e+000  1.257403e+001
      vertex  1.300000e+001  4.885819e+000  1.257403e+001
    endloop
  endfacet
  facet normal  -0.000000e+000 -9.569402e-001 -2.902851e-001
    outer loop
      vertex  1.300000e+001  4.885819e+000  1.257403e+001
      vertex  0.000000e+000  4.885819e+000  1.257403e+001
      vertex  0.000000e+000  4.971178e+000  1.229264e+001
    endloop
  endfacet
  facet normal  0.000000e+000 -9.569402e-001 -2.902851e-001
    outer loop
      vertex  1.300000e+001  4.885819e+000  1.257403e+001
      vertex  0.000000e+000  4.971178e+000  1.229264e+001
      vertex  1.300000e+001  4.971178e+000  1.229264e+001
    endloop
  endfacet
  facet normal  -0.000000e+000 -9.951847e-001 -9.801654e-002
    outer loop
      vertex  1.300000e+001  4.971178e+000  1.229264e+001
      vertex  0.000000e+000  4.971178e+000  1.229264e+001
      vertex  0.000000e+000  5.000000e+000  1.200000e+001
    endloop
  endfacet
  facet normal  0.000000e+000 -9.951847e-001 -9.801654e-002
    outer loop
      vertex  1.300000e+001  4.971178e+000  1.229264e+001
      vertex  0.000000e+000  5.000000e+000  1.200000e+001
      vertex  1.300000e+001  5.000000e+000  1.200000e+001
    endloop
  endfacet
  facet normal  0.000000e+000 -9.801669e-002  9.951847e-001
    outer loop
      vertex  0.000000e+000  3.500000e+000  1.050000e+001
      vertex  1.300000e+001  3.792635e+000  1.052882e+001
      vertex  0.000000e+000  3.792635e+000  1.052882e+001
    endloop
  endfacet
  facet normal  0.000000e+000 -2.902846e-001  9.569404e-001
    outer loop
      vertex  0.000000e+000  3.792635e+000  1.052882e+001
      vertex  1.300000e+001  3.792635e+000  1.052882e+001
      vertex  1.300000e+001  4.074025e+000  1.061418e+001
    endloop
  endfacet
  facet normal  0.000000e+000 -2.902846e-001  9.569404e-001
    outer loop
      vertex  0.000000e+000  3.792635e+000  1.052882e+001
      vertex  1.300000e+001  4.074025e+000  1.061418e+001
      vertex  0.000000e+000  4.074025e+000  1.061418e+001
    endloop
  endfacet
  facet normal  0.000000e+000 -4.713960e-001  8.819216e-001
    outer loop
      vertex  0.000000e+000  4.074025e+000  1.061418e+001
      vertex  1.300000e+001  4.074025e+000  1.061418e+001
      vertex  1.300000e+001  4.333355e+000  1.075280e+001
    endloop
  endfacet
  facet normal  0.000000e+000 -4.713960e-001  8.819216e-001
    outer loop
      vertex  0.000000e+000  4.074025e+000  1.061418e+001
      vertex  1.300000e+001  4.333355e+000  1.075280e+001
      vertex  0.000000e+000  4.333355e+000  1.075280e+001
    endloop
  endfacet
  facet normal  0.000000e+000 -6.343935e-001  7.730103e-001
    outer loop
      vertex  0.000000e+000  4.333355e+000  1.075280e+001
      vertex  1.300000e+001  4.333355e+000  1.075280e+001
      vertex  1.300000e+001  4.560660e+000  1.093934e+001
    endloop
  endfacet
  facet normal  0.000000e+000 -6.343935e-001  7.730103e-001
    outer loop
      vertex  0.000000e+000  4.333355e+000  1.075280e+001
      vertex  1.300000e+001  4.560660e+000  1.093934e+001
      vertex  0.000000e+000  4.560660e+000  1.093934e+001
    endloop
  endfacet
  facet normal  0.000000e+000 -7.730117e-001  6.343917e-001
    outer loop
      vertex  0.000000e+000  4.560660e+000  1.093934e+001
      vertex  1.300000e+001  4.560660e+000  1.093934e+001
      vertex  1.300000e+001  4.747204e+000  1.116665e+001
    endloop
  endfacet
  facet normal  0.000000e+000 -7.730117e-001  6.343917e-001
    outer loop
      vertex  0.000000e+000  4.560660e+000  1.093934e+001
      vertex  1.300000e+001  4.747204e+000  1.116665e+001
      vertex  0.000000e+000  4.747204e+000  1.116665e+001
    endloop
  endfacet
  facet normal  0.000000e+000 -8.819206e-001  4.713980e-001
    outer loop
      vertex  0.000000e+000  4.747204e+000  1.116665e+001
      vertex  1.300000e+001  4.747204e+000  1.116665e+001
      vertex  1.300000e+001  4.885819e+000  1.142597e+001
    endloop
  endfacet
  facet normal  0.000000e+000 -8.819206e-001  4.713980e-001
    outer loop
      vertex  0.000000e+000  4.747204e+000  1.116665e+001
      vertex  1.300000e+001  4.885819e+000  1.142597e+001
      vertex  0.000000e+000  4.885819e+000  1.142597e+001
    endloop
  endfacet
  facet normal  0.000000e+000 -9.569402e-001  2.902851e-001
    outer loop
      vertex  0.000000e+000  4.885819e+000  1.142597e+001
      vertex  1.300000e+001  4.885819e+000  1.142597e+001
      vertex  1.300000e+001  4.971178e+000  1.170736e+001
    endloop
  endfacet
  facet normal  0.000000e+000 -9.569402e-001  2.902851e-001
    outer loop
      vertex  0.000000e+000  4.885819e+000  1.142597e+001
      vertex  1.300000e+001  4.971178e+000  1.170736e+001
      vertex  0.000000e+000  4.971178e+000  1.170736e+001
    endloop
  endfacet
  facet normal  0.000000e+000 -9.951847e-001  9.801654e-002
    outer loop
      vertex  0.000000e+000  4.971178e+000  1.170736e+001
      vertex  1.300000e+001  4.971178e+000  1.170736e+001
      vertex  1.300000e+001  5.000000e+000  1.200000e+001
    endloop
  endfacet
  facet normal  0.000000e+000 -9.951847e-001  9.801654e-002
    outer loop
      vertex  0.000000e+000  4.971178e+000  1.170736e+001
      vertex  1.300000e+001  5.000000e+000  1.200000e+001
      vertex  0.000000e+000  5.000000e+000  1.200000e+001
    endloop
  endfacet
  facet normal  0.000000e+000 -9.801669e-002  9.951847e-001
    outer loop
      vertex  1.300000e+001  3.792635e+000  1.052882e+001
      vertex  0.000000e+000  3.500000e+000  1.050000e+001
      vertex  1.300000e+001  3.500000e+000  1.050000e+001
    endloop
  endfacet
  facet normal  0.000000e+000  9.801669e-002  9.951847e-001
    outer loop
      vertex  1.300000e+001  3.500000e+000  1.050000e+001
      vertex  0.000000e+000  3.500000e+000  1.050000e+001
      vertex  0.000000e+000  3.207365e+000  1.052882e+001
    endloop
  endfacet
  facet normal  -0.000000e+000  9.801669e-002  9.951847e-001
    outer loop
      vertex  1.300000e+001  3.500000e+000  1.050000e+001
      vertex  0.000000e+000  3.207365e+000  1.052882e+001
      vertex  1.300000e+001  3.207365e+000  1.052882e+001
    endloop
  endfacet
  facet normal  0.000000e+000  2.902846e-001  9.569404e-001
    outer loop
      vertex  1.300000e+001  3.207365e+000  1.052882e+001
      vertex  0.000000e+000  3.207365e+000  1.052882e+001
      vertex  0.000000e+000  2.925975e+000  1.061418e+001
    endloop
  endfacet
  facet normal  -0.000000e+000  2.902846e-001  9.569404e-001
    outer loop
      vertex  1.300000e+001  3.207365e+000  1.052882e+001
      vertex  0.000000e+000  2.925975e+000  1.061418e+001
      vertex  1.300000e+001  2.925975e+000  1.061418e+001
    endloop
  endfacet
  facet normal  0.000000e+000  4.713960e-001  8.819216e-001
    outer loop
      vertex  1.300000e+001  2.925975e+000  1.061418e+001
      vertex  0.000000e+000  2.925975e+000  1.061418e+001
      vertex  0.000000e+000  2.666645e+000  1.075280e+001
    endloop
  endfacet
  facet normal  -0.000000e+000  4.713960e-001  8.819216e-001
    outer loop
      vertex  1.300000e+001  2.925975e+000  1.061418e+001
      vertex  0.000000e+000  2.666645e+000  1.075280e+001
      vertex  1.300000e+001  2.666645e+000  1.075280e+001
    endloop
  endfacet
  facet normal  0.000000e+000  6.343938e-001  7.730100e-001
    outer loop
      vertex  1.300000e+001  2.666645e+000  1.075280e+001
      vertex  0.000000e+000  2.666645e+000  1.075280e+001
      vertex  0.000000e+000  2.439340e+000  1.093934e+001
    endloop
  endfacet
  facet normal  -0.000000e+000  6.343938e-001  7.730100e-001
    outer loop
      vertex  1.300000e+001  2.666645e+000  1.075280e+001
      vertex  0.000000e+000  2.439340e+000  1.093934e+001
      vertex  1.300000e+001  2.439340e+000  1.093934e+001
    endloop
  endfacet
  facet normal  0.000000e+000  7.730114e-001  6.343922e-001
    outer loop
      vertex  1.300000e+001  2.439340e+000  1.093934e+001
      vertex  0.000000e+000  2.439340e+000  1.093934e+001
      vertex  0.000000e+000  2.252796e+000  1.116665e+001
    endloop
  endfacet
  facet normal  -0.000000e+000  7.730114e-001  6.343922e-001
    outer loop
      vertex  1.300000e+001  2.439340e+000  1.093934e+001
      vertex  0.000000e+000  2.252796e+000  1.116665e+001
      vertex  1.300000e+001  2.252796e+000  1.116665e+001
    endloop
  endfacet
  facet normal  0.000000e+000  8.819209e-001  4.713973e-001
    outer loop
      vertex  1.300000e+001  2.252796e+000  1.116665e+001
      vertex  0.000000e+000  2.252796e+000  1.116665e+001
      vertex  0.000000e+000  2.114181e+000  1.142597e+001
    endloop
  endfacet
  facet normal  -0.000000e+000  8.819209e-001  4.713973e-001
    outer loop
      vertex  1.300000e+001  2.252796e+000  1.116665e+001
      vertex  0.000000e+000  2.114181e+000  1.142597e+001
      vertex  1.300000e+001  2.114181e+000  1.142597e+001
    endloop
  endfacet
  facet normal  0.000000e+000  9.569402e-001  2.902851e-001
    outer loop
      vertex  1.300000e+001  2.114181e+000  1.142597e+001
      vertex  0.000000e+000  2.114181e+000  1.142597e+001
      vertex  0.000000e+000  2.028822e+000  1.170736e+001
    endloop
  endfacet
  facet normal  -0.000000e+000  9.569402e-001  2.902851e-001
    outer loop
      vertex  1.300000e+001  2.114181e+000  1.142597e+001
      vertex  0.000000e+000  2.028822e+000  1.170736e+001
      vertex  1.300000e+001  2.028822e+000  1.170736e+001
    endloop
  endfacet
  facet normal  0.000000e+000  9.951847e-001  9.801735e-002
    outer loop
      vertex  1.300000e+001  2.028822e+000  1.170736e+001
      vertex  0.000000e+000  2.028822e+000  1.170736e+001
      vertex  0.000000e+000  2.000000e+000  1.200000e+001
    endloop
  endfacet
  facet normal  -0.000000e+000  9.951847e-001  9.801735e-002
    outer loop
      vertex  1.300000e+001  2.028822e+000  1.170736e+001
      vertex  0.000000e+000  2.000000e+000  1.200000e+001
      vertex  1.300000e+001  2.000000e+000  1.200000e+001
    endloop
  endfacet
  facet normal  0.000000e+000  9.801622e-002 -9.951848e-001
    outer loop
      vertex  0.000000e+000  3.650000e+001  1.350000e+001
      vertex  1.300000e+001  3.620736e+001  1.347118e+001
      vertex  0.000000e+000  3.620736e+001  1.347118e+001
    endloop
  endfacet
  facet normal  0.000000e+000  2.902869e-001 -9.569397e-001
    outer loop
      vertex  0.000000e+000  3.620736e+001  1.347118e+001
      vertex  1.300000e+001  3.620736e+001  1.347118e+001
      vertex  1.300000e+001  3.592598e+001  1.338582e+001
    endloop
  endfacet
  facet normal  0.000000e+000  2.902869e-001 -9.569397e-001
    outer loop
      vertex  0.000000e+000  3.620736e+001  1.347118e+001
      vertex  1.300000e+001  3.592598e+001  1.338582e+001
      vertex  0.000000e+000  3.592598e+001  1.338582e+001
    endloop
  endfacet
  facet normal  0.000000e+000  4.713954e-001 -8.819220e-001
    outer loop
      vertex  0.000000e+000  3.592598e+001  1.338582e+001
      vertex  1.300000e+001  3.592598e+001  1.338582e+001
      vertex  1.300000e+001  3.566665e+001  1.324720e+001
    endloop
  endfacet
  facet normal  0.000000e+000  4.713954e-001 -8.819220e-001
    outer loop
      vertex  0.000000e+000  3.592598e+001  1.338582e+001
      vertex  1.300000e+001  3.566665e+001  1.324720e+001
      vertex  0.000000e+000  3.566665e+001  1.324720e+001
    endloop
  endfacet
  facet normal  0.000000e+000  6.343911e-001 -7.730123e-001
    outer loop
      vertex  0.000000e+000  3.566665e+001  1.324720e+001
      vertex  1.300000e+001  3.566665e+001  1.324720e+001
      vertex  1.300000e+001  3.543934e+001  1.306066e+001
    endloop
  endfacet
  facet normal  0.000000e+000  6.343911e-001 -7.730123e-001
    outer loop
      vertex  0.000000e+000  3.566665e+001  1.324720e+001
      vertex  1.300000e+001  3.543934e+001  1.306066e+001
      vertex  0.000000e+000  3.543934e+001  1.306066e+001
    endloop
  endfacet
  facet normal  0.000000e+000  7.730142e-001 -6.343888e-001
    outer loop
      vertex  0.000000e+000  3.543934e+001  1.306066e+001
      vertex  1.300000e+001  3.543934e+001  1.306066e+001
      vertex  1.300000e+001  3.525280e+001  1.283335e+001
    endloop
  endfacet
  facet normal  0.000000e+000  7.730142e-001 -6.343888e-001
    outer loop
      vertex  0.000000e+000  3.543934e+001  1.306066e+001
      vertex  1.300000e+001  3.525280e+001  1.283335e+001
      vertex  0.000000e+000  3.525280e+001  1.283335e+001
    endloop
  endfacet
  facet normal  0.000000e+000  8.819213e-001 -4.713967e-001
    outer loop
      vertex  0.000000e+000  3.525280e+001  1.283335e+001
      vertex  1.300000e+001  3.525280e+001  1.283335e+001
      vertex  1.300000e+001  3.511418e+001  1.257403e+001
    endloop
  endfacet
  facet normal  0.000000e+000  8.819213e-001 -4.713967e-001
    outer loop
      vertex  0.000000e+000  3.525280e+001  1.283335e+001
      vertex  1.300000e+001  3.511418e+001  1.257403e+001
      vertex  0.000000e+000  3.511418e+001  1.257403e+001
    endloop
  endfacet
  facet normal  0.000000e+000  9.569412e-001 -2.902821e-001
    outer loop
      vertex  0.000000e+000  3.511418e+001  1.257403e+001
      vertex  1.300000e+001  3.511418e+001  1.257403e+001
      vertex  1.300000e+001  3.502882e+001  1.229264e+001
    endloop
  endfacet
  facet normal  0.000000e+000  9.569412e-001 -2.902821e-001
    outer loop
      vertex  0.000000e+000  3.511418e+001  1.257403e+001
      vertex  1.300000e+001  3.502882e+001  1.229264e+001
      vertex  0.000000e+000  3.502882e+001  1.229264e+001
    endloop
  endfacet
  facet normal  0.000000e+000  9.951842e-001 -9.802297e-002
    outer loop
      vertex  0.000000e+000  3.502882e+001  1.229264e+001
      vertex  1.300000e+001  3.502882e+001  1.229264e+001
      vertex  1.300000e+001  3.500000e+001  1.200000e+001
    endloop
  endfacet
  facet normal  0.000000e+000  9.951842e-001 -9.802297e-002
    outer loop
      vertex  0.000000e+000  3.502882e+001  1.229264e+001
      vertex  1.300000e+001  3.500000e+001  1.200000e+001
      vertex  0.000000e+000  3.500000e+001  1.200000e+001
    endloop
  endfacet
  facet normal  0.000000e+000  9.801622e-002 -9.951848e-001
    outer loop
      vertex  1.300000e+001  3.620736e+001  1.347118e+001
      vertex  0.000000e+000  3.650000e+001  1.350000e+001
      vertex  1.300000e+001  3.650000e+001  1.350000e+001
    endloop
  endfacet
  facet normal  -0.000000e+000 -9.801622e-002 -9.951848e-001
    outer loop
      vertex  1.300000e+001  3.650000e+001  1.350000e+001
      vertex  0.000000e+000  3.650000e+001  1.350000e+001
      vertex  0.000000e+000  3.679264e+001  1.347118e+001
    endloop
  endfacet
  facet normal  0.000000e+000 -9.801622e-002 -9.951848e-001
    outer loop
      vertex  1.300000e+001  3.650000e+001  1.350000e+001
      vertex  0.000000e+000  3.679264e+001  1.347118e+001
      vertex  1.300000e+001  3.679264e+001  1.347118e+001
    endloop
  endfacet
  facet normal  -0.000000e+000 -2.902869e-001 -9.569397e-001
    outer loop
      vertex  1.300000e+001  3.679264e+001  1.347118e+001
      vertex  0.000000e+000  3.679264e+001  1.347118e+001
      vertex  0.000000e+000  3.707402e+001  1.338582e+001
    endloop
  endfacet
  facet normal  0.000000e+000 -2.902869e-001 -9.569397e-001
    outer loop
      vertex  1.300000e+001  3.679264e+001  1.347118e+001
      vertex  0.000000e+000  3.707402e+001  1.338582e+001
      vertex  1.300000e+001  3.707402e+001  1.338582e+001
    endloop
  endfacet
  facet normal  -0.000000e+000 -4.713954e-001 -8.819220e-001
    outer loop
      vertex  1.300000e+001  3.707402e+001  1.338582e+001
      vertex  0.000000e+000  3.707402e+001  1.338582e+001
      vertex  0.000000e+000  3.733335e+001  1.324720e+001
    endloop
  endfacet
  facet normal  0.000000e+000 -4.713954e-001 -8.819220e-001
    outer loop
      vertex  1.300000e+001  3.707402e+001  1.338582e+001
      vertex  0.000000e+000  3.733335e+001  1.324720e+001
      vertex  1.300000e+001  3.733335e+001  1.324720e+001
    endloop
  endfacet
  facet normal  -0.000000e+000 -6.343911e-001 -7.730123e-001
    outer loop
      vertex  1.300000e+001  3.733335e+001  1.324720e+001
      vertex  0.000000e+000  3.733335e+001  1.324720e+001
      vertex  0.000000e+000  3.756066e+001  1.306066e+001
    endloop
  endfacet
  facet normal  0.000000e+000 -6.343911e-001 -7.730123e-001
    outer loop
      vertex  1.300000e+001  3.733335e+001  1.324720e+001
      vertex  0.000000e+000  3.756066e+001  1.306066e+001
      vertex  1.300000e+001  3.756066e+001  1.306066e+001
    endloop
  endfacet
  facet normal  -0.000000e+000 -7.730142e-001 -6.343888e-001
    outer loop
      vertex  1.300000e+001  3.756066e+001  1.306066e+001
      vertex  0.000000e+000  3.756066e+001  1.306066e+001
      vertex  0.000000e+000  3.774720e+001  1.283335e+001
    endloop
  endfacet
  facet normal  0.000000e+000 -7.730142e-001 -6.343888e-001
    outer loop
      vertex  1.300000e+001  3.756066e+001  1.306066e+001
      vertex  0.000000e+000  3.774720e+001  1.283335e+001
      vertex  1.300000e+001  3.774720e+001  1.283335e+001
    endloop
  endfacet
  facet normal  -0.000000e+000 -8.819213e-001 -4.713967e-001
    outer loop
      vertex  1.300000e+001  3.774720e+001  1.283335e+001
      vertex  0.000000e+000  3.774720e+001  1.283335e+001
      vertex  0.000000e+000  3.788582e+001  1.257403e+001
    endloop
  endfacet
  facet normal  0.000000e+000 -8.819213e-001 -4.713967e-001
    outer loop
      vertex  1.300000e+001  3.774720e+001  1.283335e+001
      vertex  0.000000e+000  3.788582e+001  1.257403e+001
      vertex  1.300000e+001  3.788582e+001  1.257403e+001
    endloop
  endfacet
  facet normal  -0.000000e+000 -9.569412e-001 -2.902821e-001
    outer loop
      vertex  1.300000e+001  3.788582e+001  1.257403e+001
      vertex  0.000000e+000  3.788582e+001  1.257403e+001
      vertex  0.000000e+000  3.797118e+001  1.229264e+001
    endloop
  endfacet
  facet normal  0.000000e+000 -9.569412e-001 -2.902821e-001
    outer loop
      vertex  1.300000e+001  3.788582e+001  1.257403e+001
      vertex  0.000000e+000  3.797118e+001  1.229264e+001
      vertex  1.300000e+001  3.797118e+001  1.229264e+001
    endloop
  endfacet
  facet normal  -0.000000e+000 -9.951842e-001 -9.802297e-002
    outer loop
      vertex  1.300000e+001  3.797118e+001  1.229264e+001
      vertex  0.000000e+000  3.797118e+001  1.229264e+001
      vertex  0.000000e+000  3.800000e+001  1.200000e+001
    endloop
  endfacet
  facet normal  0.000000e+000 -9.951842e-001 -9.802297e-002
    outer loop
      vertex  1.300000e+001  3.797118e+001  1.229264e+001
      vertex  0.000000e+000  3.800000e+001  1.200000e+001
      vertex  1.300000e+001  3.800000e+001  1.200000e+001
    endloop
  endfacet
  facet normal  0.000000e+000 -9.801622e-002  9.951848e-001
    outer loop
      vertex  0.000000e+000  3.650000e+001  1.050000e+001
      vertex  1.300000e+001  3.679264e+001  1.052882e+001
      vertex  0.000000e+000  3.679264e+001  1.052882e+001
    endloop
  endfacet
  facet normal  0.000000e+000 -2.902869e-001  9.569397e-001
    outer loop
      vertex  0.000000e+000  3.679264e+001  1.052882e+001
      vertex  1.300000e+001  3.679264e+001  1.052882e+001
      vertex  1.300000e+001  3.707402e+001  1.061418e+001
    endloop
  endfacet
  facet normal  0.000000e+000 -2.902869e-001  9.569397e-001
    outer loop
      vertex  0.000000e+000  3.679264e+001  1.052882e+001
      vertex  1.300000e+001  3.707402e+001  1.061418e+001
      vertex  0.000000e+000  3.707402e+001  1.061418e+001
    endloop
  endfacet
  facet normal  0.000000e+000 -4.713954e-001  8.819220e-001
    outer loop
      vertex  0.000000e+000  3.707402e+001  1.061418e+001
      vertex  1.300000e+001  3.707402e+001  1.061418e+001
      vertex  1.300000e+001  3.733335e+001  1.075280e+001
    endloop
  endfacet
  facet normal  0.000000e+000 -4.713954e-001  8.819220e-001
    outer loop
      vertex  0.000000e+000  3.707402e+001  1.061418e+001
      vertex  1.300000e+001  3.733335e+001  1.075280e+001
      vertex  0.000000e+000  3.733335e+001  1.075280e+001
    endloop
  endfacet
  facet normal  0.000000e+000 -6.343911e-001  7.730123e-001
    outer loop
      vertex  0.000000e+000  3.733335e+001  1.075280e+001
      vertex  1.300000e+001  3.733335e+001  1.075280e+001
      vertex  1.300000e+001  3.756066e+001  1.093934e+001
    endloop
  endfacet
  facet normal  0.000000e+000 -6.343911e-001  7.730123e-001
    outer loop
      vertex  0.000000e+000  3.733335e+001  1.075280e+001
      vertex  1.300000e+001  3.756066e+001  1.093934e+001
      vertex  0.000000e+000  3.756066e+001  1.093934e+001
    endloop
  endfacet
  facet normal  0.000000e+000 -7.730142e-001  6.343888e-001
    outer loop
      vertex  0.000000e+000  3.756066e+001  1.093934e+001
      vertex  1.300000e+001  3.756066e+001  1.093934e+001
      vertex  1.300000e+001  3.774720e+001  1.116665e+001
    endloop
  endfacet
  facet normal  0.000000e+000 -7.730142e-001  6.343888e-001
    outer loop
      vertex  0.000000e+000  3.756066e+001  1.093934e+001
      vertex  1.300000e+001  3.774720e+001  1.116665e+001
      vertex  0.000000e+000  3.774720e+001  1.116665e+001
    endloop
  endfacet
  facet normal  0.000000e+000 -8.819213e-001  4.713967e-001
    outer loop
      vertex  0.000000e+000  3.774720e+001  1.116665e+001
      vertex  1.300000e+001  3.774720e+001  1.116665e+001
      vertex  1.300000e+001  3.788582e+001  1.142597e+001
    endloop
  endfacet
  facet normal  0.000000e+000 -8.819213e-001  4.713967e-001
    outer loop
      vertex  0.000000e+000  3.774720e+001  1.116665e+001
      vertex  1.300000e+001  3.788582e+001  1.142597e+001
      vertex  0.000000e+000  3.788582e+001  1.142597e+001
    endloop
  endfacet
  facet normal  0.000000e+000 -9.569412e-001  2.902821e-001
    outer loop
      vertex  0.000000e+000  3.788582e+001  1.142597e+001
      vertex  1.300000e+001  3.788582e+001  1.142597e+001
      vertex  1.300000e+001  3.797118e+001  1.170736e+001
    endloop
  endfacet
  facet normal  0.000000e+000 -9.569412e-001  2.902821e-001
    outer loop
      vertex  0.000000e+000  3.788582e+001  1.142597e+001
      vertex  1.300000e+001  3.797118e+001  1.170736e+001
      vertex  0.000000e+000  3.797118e+001  1.170736e+001
    endloop
  endfacet
  facet normal  0.000000e+000 -9.951842e-001  9.802297e-002
    outer loop
      vertex  0.000000e+000  3.797118e+001  1.170736e+001
      vertex  1.300000e+001  3.797118e+001  1.170736e+001
      vertex  1.300000e+001  3.800000e+001  1.200000e+001
    endloop
  endfacet
  facet normal  0.000000e+000 -9.951842e-001  9.802297e-002
    outer loop
      vertex  0.000000e+000  3.797118e+001  1.170736e+001
      vertex  1.300000e+001  3.800000e+001  1.200000e+001
      vertex  0.000000e+000  3.800000e+001  1.200000e+001
    endloop
  endfacet
  facet normal  0.000000e+000 -9.801622e-002  9.951848e-001
    outer loop
      vertex  1.300000e+001  3.679264e+001  1.052882e+001
      vertex  0.000000e+000  3.650000e+001  1.050000e+001
      vertex  1.300000e+001  3.650000e+001  1.050000e+001
    endloop
  endfacet
  facet normal  0.000000e+000  9.801622e-002  9.951848e-001
    outer loop
      vertex  1.300000e+001  3.650000e+001  1.050000e+001
      vertex  0.000000e+000  3.650000e+001  1.050000e+001
      vertex  0.000000e+000  3.620736e+001  1.052882e+001
    endloop
  endfacet
  facet normal  -0.000000e+000  9.801622e-002  9.951848e-001
    outer loop
      vertex  1.300000e+001  3.650000e+001  1.050000e+001
      vertex  0.000000e+000  3.620736e+001  1.052882e+001
      vertex  1.300000e+001  3.620736e+001  1.052882e+001
    endloop
  endfacet
  facet normal  0.000000e+000  2.902869e-001  9.569397e-001
    outer loop
      vertex  1.300000e+001  3.620736e+001  1.052882e+001
      vertex  0.000000e+000  3.620736e+001  1.052882e+001
      vertex  0.000000e+000  3.592598e+001  1.061418e+001
    endloop
  endfacet
  facet normal  -0.000000e+000  2.902869e-001  9.569397e-001
    outer loop
      vertex  1.300000e+001  3.620736e+001  1.052882e+001
      vertex  0.000000e+000  3.592598e+001  1.061418e+001
      vertex  1.300000e+001  3.592598e+001  1.061418e+001
    endloop
  endfacet
  facet normal  0.000000e+000  4.713954e-001  8.819220e-001
    outer loop
      vertex  1.300000e+001  3.592598e+001  1.061418e+001
      vertex  0.000000e+000  3.592598e+001  1.061418e+001
      vertex  0.000000e+000  3.566665e+001  1.075280e+001
    endloop
  endfacet
  facet normal  -0.000000e+000  4.713954e-001  8.819220e-001
    outer loop
      vertex  1.300000e+001  3.592598e+001  1.061418e+001
      vertex  0.000000e+000  3.566665e+001  1.075280e+001
      vertex  1.300000e+001  3.566665e+001  1.075280e+001
    endloop
  endfacet
  facet normal  0.000000e+000  6.343911e-001  7.730123e-001
    outer loop
      vertex  1.300000e+001  3.566665e+001  1.075280e+001
      vertex  0.000000e+000  3.566665e+001  1.075280e+001
      vertex  0.000000e+000  3.543934e+001  1.093934e+001
    endloop
  endfacet
  facet normal  -0.000000e+000  6.343911e-001  7.730123e-001
    outer loop
      vertex  1.300000e+001  3.566665e+001  1.075280e+001
      vertex  0.000000e+000  3.543934e+001  1.093934e+001
      vertex  1.300000e+001  3.543934e+001  1.093934e+001
    endloop
  endfacet
  facet normal  0.000000e+000  7.730142e-001  6.343888e-001
    outer loop
      vertex  1.300000e+001  3.543934e+001  1.093934e+001
      vertex  0.000000e+000  3.543934e+001  1.093934e+001
      vertex  0.000000e+000  3.525280e+001  1.116665e+001
    endloop
  endfacet
  facet normal  -0.000000e+000  7.730142e-001  6.343888e-001
    outer loop
      vertex  1.300000e+001  3.543934e+001  1.093934e+001
      vertex  0.000000e+000  3.525280e+001  1.116665e+001
      vertex  1.300000e+001  3.525280e+001  1.116665e+001
    endloop
  endfacet
  facet normal  0.000000e+000  8.819213e-001  4.713967e-001
    outer loop
      vertex  1.300000e+001  3.525280e+001  1.116665e+001
      vertex  0.000000e+000  3.525280e+001  1.116665e+001
      vertex  0.000000e+000  3.511418e+001  1.142597e+001
    endloop
  endfacet
  facet normal  -0.000000e+000  8.819213e-001  4.713967e-001
    outer loop
      vertex  1.300000e+001  3.525280e+001  1.116665e+001
      vertex  0.000000e+000  3.511418e+001  1.142597e+001
      vertex  1.300000e+001  3.511418e+001  1.142597e+001
    endloop
  endfacet
  facet normal  0.000000e+000  9.569412e-001  2.902821e-001
    outer loop
      vertex  1.300000e+001  3.511418e+001  1.142597e+001
      vertex  0.000000e+000  3.511418e+001  1.142597e+001
      vertex  0.000000e+000  3.502882e+001  1.170736e+001
    endloop
  endfacet
  facet normal  -0.000000e+000  9.569412e-001  2.902821e-001
    outer loop
      vertex  1.300000e+001  3.511418e+001  1.142597e+001
      vertex  0.000000e+000  3.502882e+001  1.170736e+001
      vertex  1.300000e+001  3.502882e+001  1.170736e+001
    endloop
  endfacet
  facet normal  0.000000e+000  9.951842e-001  9.802297e-002
    outer loop
      vertex  1.300000e+001  3.502882e+001  1.170736e+001
      vertex  0.000000e+000  3.502882e+001  1.170736e+001
      vertex  0.000000e+000  3.500000e+001  1.200000e+001
    endloop
  endfacet
  facet normal  -0.000000e+000  9.951842e-001  9.802297e-002
    outer loop
      vertex  1.300000e+001  3.502882e+001  1.170736e+001
      vertex  0.000000e+000  3.500000e+001  1.200000e+001
      vertex  1.300000e+001  3.500000e+001  1.200000e+001
    endloop
  endfacet
  facet normal  0.000000e+000  0.000000e+000  1.000000e+000
    outer loop
      vertex  1.300000e+001  6.000000e+000  2.000000e+000
      vertex  1.300000e+001  3.400000e+001  2.000000e+000
      vertex  0.000000e+000  6.000000e+000  2.000000e+000
    endloop
  endfacet
  facet normal  0.000000e+000  0.000000e+000  1.000000e+000
    outer loop
      vertex  0.000000e+000  6.000000e+000  2.000000e+000
      vertex  1.300000e+001  3.400000e+001  2.000000e+000
      vertex  0.000000e+000  3.400000e+001  2.000000e+000
    endloop
  endfacet
  facet normal  0.000000e+000  0.000000e+000 -1.000000e+000
    outer loop
      vertex  1.300000e+001  3.400000e+001  2.200000e+001
      vertex  1.300000e+001  6.000000e+000  2.200000e+001
      vertex  0.000000e+000  3.400000e+001  2.200000e+001
    endloop
  endfacet
  facet normal  0.000000e+000  0.000000e+000 -1.000000e+000
    outer loop
      vertex  0.000000e+000  3.400000e+001  2.200000e+001
      vertex  1.300000e+001  6.000000e+000  2.200000e+001
      vertex  0.000000e+000  6.000000e+000  2.200000e+001
    endloop
  endfacet
  facet normal  0.000000e+000 -1.000000e+000  -0.000000e+000
    outer loop
      vertex  1.300000e+001  3.400000e+001  2.000000e+000
      vertex  1.300000e+001  3.400000e+001  2.200000e+001
      vertex  0.000000e+000  3.400000e+001  2.000000e+000
    endloop
  endfacet
  facet normal  0.000000e+000 -1.000000e+000  0.000000e+000
    outer loop
      vertex  0.000000e+000  3.400000e+001  2.000000e+000
      vertex  1.300000e+001  3.400000e+001  2.200000e+001
      vertex  0.000000e+000  3.400000e+001  2.200000e+001
    endloop
  endfacet
  facet normal  0.000000e+000  1.000000e+000  -0.000000e+000
    outer loop
      vertex  1.300000e+001  6.000000e+000  2.200000e+001
      vertex  1.300000e+001  6.000000e+000  2.000000e+000
      vertex  0.000000e+000  6.000000e+000  2.200000e+001
    endloop
  endfacet
  facet normal  0.000000e+000  1.000000e+000  0.000000e+000
    outer loop
      vertex  0.000000e+000  6.000000e+000  2.200000e+001
      vertex  1.300000e+001  6.000000e+000  2.000000e+000
      vertex  0.000000e+000  6.000000e+000  2.000000e+000
    endloop
  endfacet
  facet normal -1.000000e+000  -0.000000e+000  0.000000e+000
    outer loop
      vertex  5.000000e+000 -4.000000e+000  3.000000e+001
      vertex  5.000000e+000  0.000000e+000  0.000000e+000
      vertex  5.000000e+000 -4.000000e+000 -6.000000e+000
    endloop
  endfacet
  facet normal -1.000000e+000  0.000000e+000  0.000000e+000
    outer loop
      vertex  5.000000e+000 -4.000000e+000 -6.000000e+000
      vertex  5.000000e+000  0.000000e+000  0.000000e+000
      vertex  5.000000e+000  4.000000e+001 -1.332268e-015
    endloop
  endfacet
  facet normal -1.000000e+000  0.000000e+000  -0.000000e+000
    outer loop
      vertex  5.000000e+000 -4.000000e+000 -6.000000e+000
      vertex  5.000000e+000  4.000000e+001 -1.332268e-015
      vertex  5.000000e+000  4.400000e+001 -6.000000e+000
    endloop
  endfacet
  facet normal -1.000000e+000  0.000000e+000  0.000000e+000
    outer loop
      vertex  5.000000e+000  0.000000e+000  0.000000e+000
      vertex  5.000000e+000 -4.000000e+000  3.000000e+001
      vertex  5.000000e+000  0.000000e+000  2.500000e+001
    endloop
  endfacet
  facet normal -1.000000e+000  0.000000e+000  0.000000e+000
    outer loop
      vertex  5.000000e+000  0.000000e+000  2.500000e+001
      vertex  5.000000e+000 -4.000000e+000  3.000000e+001
      vertex  5.000000e+000  4.400000e+001  3.000000e+001
    endloop
  endfacet
  facet normal -1.000000e+000  0.000000e+000  0.000000e+000
    outer loop
      vertex  5.000000e+000  0.000000e+000  2.500000e+001
      vertex  5.000000e+000  4.400000e+001  3.000000e+001
      vertex  5.000000e+000  4.000000e+001  2.500000e+001
    endloop
  endfacet
  facet normal -1.000000e+000  0.000000e+000  0.000000e+000
    outer loop
      vertex  5.000000e+000  4.000000e+001  2.500000e+001
      vertex  5.000000e+000  4.400000e+001  3.000000e+001
      vertex  5.000000e+000  4.400000e+001 -6.000000e+000
    endloop
  endfacet
  facet normal -1.000000e+000  0.000000e+000  0.000000e+000
    outer loop
      vertex  5.000000e+000  4.000000e+001  2.500000e+001
      vertex  5.000000e+000  4.400000e+001 -6.000000e+000
      vertex  5.000000e+000  4.000000e+001 -1.332268e-015
    endloop
  endfacet
  facet normal  0.000000e+000 -1.000000e+000  0.000000e+000
    outer loop
      vertex  5.000000e+000  0.000000e+000  2.500000e+001
      vertex  0.000000e+000  0.000000e+000  2.500000e+001
      vertex  5.000000e+000  0.000000e+000  0.000000e+000
    endloop
  endfacet
  facet normal  0.000000e+000 -1.000000e+000  0.000000e+000
    outer loop
      vertex  5.000000e+000  0.000000e+000  0.000000e+000
      vertex  0.000000e+000  0.000000e+000  2.500000e+001
      vertex  0.000000e+000  0.000000e+000  0.000000e+000
    endloop
  endfacet
  facet normal  -0.000000e+000  0.000000e+000  1.000000e+000
    outer loop
      vertex  5.000000e+000  4.000000e+001  2.500000e+001
      vertex  0.000000e+000  4.000000e+001  2.500000e+001
      vertex  5.000000e+000  0.000000e+000  2.500000e+001
    endloop
  endfacet
  facet normal  0.000000e+000  0.000000e+000  1.000000e+000
    outer loop
      vertex  5.000000e+000  0.000000e+000  2.500000e+001
      vertex  0.000000e+000  4.000000e+001  2.500000e+001
      vertex  0.000000e+000  0.000000e+000  2.500000e+001
    endloop
  endfacet
  facet normal  -0.000000e+000  1.000000e+000  0.000000e+000
    outer loop
      vertex  5.000000e+000  4.000000e+001 -1.332268e-015
      vertex  0.000000e+000  4.000000e+001  0.000000e+000
      vertex  5.000000e+000  4.000000e+001  2.500000e+001
    endloop
  endfacet
  facet normal  0.000000e+000  1.000000e+000  0.000000e+000
    outer loop
      vertex  5.000000e+000  4.000000e+001  2.500000e+001
      vertex  0.000000e+000  4.000000e+001  0.000000e+000
      vertex  0.000000e+000  4.000000e+001  2.500000e+001
    endloop
  endfacet
  facet normal  0.000000e+000 -3.330669e-017 -1.000000e+000
    outer loop
      vertex  5.000000e+000  0.000000e+000  0.000000e+000
      vertex  0.000000e+000  0.000000e+000  0.000000e+000
      vertex  5.000000e+000  4.000000e+001 -1.332268e-015
    endloop
  endfacet
  facet normal -2.664535e-016  0.000000e+000 -1.000000e+000
    outer loop
      vertex  5.000000e+000  4.000000e+001 -1.332268e-015
      vertex  0.000000e+000  0.000000e+000  0.000000e+000
      vertex  0.000000e+000  4.000000e+001  0.000000e+000
    endloop
  endfacet
  facet normal  0.000000e+000  0.000000e+000  1.000000e+000
    outer loop
      vertex  1.300000e+001 -4.000000e+000  3.000000e+001
      vertex  1.300000e+001  4.400000e+001  3.000000e+001
      vertex  5.000000e+000 -4.000000e+000  3.000000e+001
    endloop
  endfacet
  facet normal  0.000000e+000  0.000000e+000  1.000000e+000
    outer loop
      vertex  5.000000e+000 -4.000000e+000  3.000000e+001
      vertex  1.300000e+001  4.400000e+001  3.000000e+001
      vertex  5.000000e+000  4.400000e+001  3.000000e+001
    endloop
  endfacet
  facet normal  0.000000e+000  1.000000e+000  0.000000e+000
    outer loop
      vertex  1.300000e+001  4.400000e+001 -6.000000e+000
      vertex  5.000000e+000  4.400000e+001 -6.000000e+000
      vertex  1.300000e+001  4.400000e+001  3.000000e+001
    endloop
  endfacet
  facet normal  0.000000e+000  1.000000e+000  0.000000e+000
    outer loop
      vertex  1.300000e+001  4.400000e+001  3.000000e+001
      vertex  5.000000e+000  4.400000e+001 -6.000000e+000
      vertex  5.000000e+000  4.400000e+001  3.000000e+001
    endloop
  endfacet
  facet normal  0.000000e+000  0.000000e+000 -1.000000e+000
    outer loop
      vertex  1.300000e+001  4.400000e+001 -6.000000e+000
      vertex  1.300000e+001 -4.000000e+000 -6.000000e+000
      vertex  5.000000e+000  4.400000e+001 -6.000000e+000
    endloop
  endfacet
  facet normal  0.000000e+000  0.000000e+000 -1.000000e+000
    outer loop
      vertex  5.000000e+000  4.400000e+001 -6.000000e+000
      vertex  1.300000e+001 -4.000000e+000 -6.000000e+000
      vertex  5.000000e+000 -4.000000e+000 -6.000000e+000
    endloop
  endfacet
  facet normal  0.000000e+000 -1.000000e+000  0.000000e+000
    outer loop
      vertex  1.300000e+001 -4.000000e+000  3.000000e+001
      vertex  5.000000e+000 -4.000000e+000  3.000000e+001
      vertex  1.300000e+001 -4.000000e+000 -6.000000e+000
    endloop
  endfacet
  facet normal  0.000000e+000 -1.000000e+000  0.000000e+000
    outer loop
      vertex  1.300000e+001 -4.000000e+000 -6.000000e+000
      vertex  5.000000e+000 -4.000000e+000  3.000000e+001
      vertex  5.000000e+000 -4.000000e+000 -6.000000e+000
    endloop
  endfacet
endsolid CATIA STL
