solid CATIA STL
  facet normal -1.000000e+000  0.000000e+000  0.000000e+000
    outer loop
      vertex  4.000000e+001 -1.551919e+000  1.414761e+000
      vertex  4.000000e+001 -4.842916e+000  1.243449e+000
      vertex  4.000000e+001 -1.265533e+000  1.675836e+000
    endloop
  endfacet
  facet normal -1.000000e+000  0.000000e+000  0.000000e+000
    outer loop
      vertex  4.000000e+001 -1.785456e+000  1.105507e+000
      vertex  4.000000e+001 -4.842916e+000  1.243449e+000
      vertex  4.000000e+001 -1.551919e+000  1.414761e+000
    endloop
  endfacet
  facet normal -1.000000e+000  0.000000e+000  0.000000e+000
    outer loop
      vertex  4.000000e+001 -9.360505e-001 -1.879843e+000
      vertex  4.000000e+001 -4.648882e+000 -1.840623e+000
      vertex  4.000000e+001 -1.265533e+000 -1.675836e+000
    endloop
  endfacet
  facet normal -1.000000e+000  0.000000e+000  0.000000e+000
    outer loop
      vertex  4.000000e+001  1.551919e+000  1.414761e+000
      vertex  4.000000e+001  1.265533e+000  1.675836e+000
      vertex  4.000000e+001  4.842916e+000  1.243449e+000
    endloop
  endfacet
  facet normal -1.000000e+000  0.000000e+000  0.000000e+000
    outer loop
      vertex  4.000000e+001  4.842916e+000  1.243449e+000
      vertex  4.000000e+001  1.785456e+000  1.105507e+000
      vertex  4.000000e+001  1.551919e+000  1.414761e+000
    endloop
  endfacet
  facet normal -1.000000e+000  0.000000e+000  0.000000e+000
    outer loop
      vertex  4.000000e+001 -4.381534e+000 -2.408768e+000
      vertex  4.000000e+001 -4.648882e+000 -1.840623e+000
      vertex  4.000000e+001 -9.360505e-001 -1.879843e+000
    endloop
  endfacet
  facet normal -1.000000e+000  0.000000e+000  -0.000000e+000
    outer loop
      vertex  4.000000e+001 -4.381534e+000 -2.408768e+000
      vertex  4.000000e+001 -9.360505e-001 -1.879843e+000
      vertex  4.000000e+001 -5.746923e-001 -2.019834e+000
    endloop
  endfacet
  facet normal -1.000000e+000  0.000000e+000  -0.000000e+000
    outer loop
      vertex  4.000000e+001 -4.381534e+000 -2.408768e+000
      vertex  4.000000e+001 -5.746923e-001 -2.019834e+000
      vertex  4.000000e+001 -1.937636e-001 -2.091042e+000
    endloop
  endfacet
  facet normal -1.000000e+000  0.000000e+000  0.000000e+000
    outer loop
      vertex  4.000000e+001 -4.381534e+000 -2.408768e+000
      vertex  4.000000e+001 -1.937636e-001 -2.091042e+000
      vertex  4.000000e+001 -3.139526e-001 -4.990134e+000
    endloop
  endfacet
  facet normal -1.000000e+000  0.000000e+000  0.000000e+000
    outer loop
      vertex  4.000000e+001 -4.381534e+000 -2.408768e+000
      vertex  4.000000e+001 -3.139526e-001 -4.990134e+000
      vertex  4.000000e+001 -9.369066e-001 -4.911436e+000
    endloop
  endfacet
  facet normal -9.999999e-001  0.000000e+000  0.000000e+000
    outer loop
      vertex  4.000000e+001 -4.381534e+000 -2.408768e+000
      vertex  4.000000e+001 -9.369066e-001 -4.911436e+000
      vertex  4.000000e+001 -1.545085e+000 -4.755282e+000
    endloop
  endfacet
  facet normal -1.000000e+000  0.000000e+000  0.000000e+000
    outer loop
      vertex  4.000000e+001 -4.381534e+000 -2.408768e+000
      vertex  4.000000e+001 -1.545085e+000 -4.755282e+000
      vertex  4.000000e+001 -2.128896e+000 -4.524135e+000
    endloop
  endfacet
  facet normal -1.000000e+000  0.000000e+000  0.000000e+000
    outer loop
      vertex  4.000000e+001 -4.381534e+000 -2.408768e+000
      vertex  4.000000e+001 -2.128896e+000 -4.524135e+000
      vertex  4.000000e+001 -2.679134e+000 -4.221640e+000
    endloop
  endfacet
  facet normal -1.000000e+000  0.000000e+000  0.000000e+000
    outer loop
      vertex  4.000000e+001 -4.381534e+000 -2.408768e+000
      vertex  4.000000e+001 -2.679134e+000 -4.221640e+000
      vertex  4.000000e+001 -3.187120e+000 -3.852566e+000
    endloop
  endfacet
  facet normal -1.000000e+000  0.000000e+000  0.000000e+000
    outer loop
      vertex  4.000000e+001 -4.381534e+000 -2.408768e+000
      vertex  4.000000e+001 -3.187120e+000 -3.852566e+000
      vertex  4.000000e+001 -3.644843e+000 -3.422735e+000
    endloop
  endfacet
  facet normal -1.000000e+000  0.000000e+000  0.000000e+000
    outer loop
      vertex  4.000000e+001 -4.381534e+000 -2.408768e+000
      vertex  4.000000e+001 -3.644843e+000 -3.422735e+000
      vertex  4.000000e+001 -4.045085e+000 -2.938926e+000
    endloop
  endfacet
  facet normal -1.000000e+000  0.000000e+000  -0.000000e+000
    outer loop
      vertex  4.000000e+001  1.937636e-001 -2.091042e+000
      vertex  4.000000e+001  5.746923e-001 -2.019834e+000
      vertex  4.000000e+001  4.381534e+000 -2.408768e+000
    endloop
  endfacet
  facet normal -1.000000e+000  -0.000000e+000  0.000000e+000
    outer loop
      vertex  4.000000e+001  1.937636e-001 -2.091042e+000
      vertex  4.000000e+001  4.381534e+000 -2.408768e+000
      vertex  4.000000e+001  4.045085e+000 -2.938926e+000
    endloop
  endfacet
  facet normal -1.000000e+000  -0.000000e+000  0.000000e+000
    outer loop
      vertex  4.000000e+001  1.937636e-001 -2.091042e+000
      vertex  4.000000e+001  4.045085e+000 -2.938926e+000
      vertex  4.000000e+001  3.644843e+000 -3.422735e+000
    endloop
  endfacet
  facet normal -1.000000e+000  -0.000000e+000  0.000000e+000
    outer loop
      vertex  4.000000e+001  1.937636e-001 -2.091042e+000
      vertex  4.000000e+001  3.644843e+000 -3.422735e+000
      vertex  4.000000e+001  3.187120e+000 -3.852566e+000
    endloop
  endfacet
  facet normal -1.000000e+000  -0.000000e+000  0.000000e+000
    outer loop
      vertex  4.000000e+001  1.937636e-001 -2.091042e+000
      vertex  4.000000e+001  3.187120e+000 -3.852566e+000
      vertex  4.000000e+001  2.679134e+000 -4.221640e+000
    endloop
  endfacet
  facet normal -1.000000e+000  -0.000000e+000  0.000000e+000
    outer loop
      vertex  4.000000e+001  1.937636e-001 -2.091042e+000
      vertex  4.000000e+001  2.679134e+000 -4.221640e+000
      vertex  4.000000e+001  2.128896e+000 -4.524135e+000
    endloop
  endfacet
  facet normal -1.000000e+000  -0.000000e+000  0.000000e+000
    outer loop
      vertex  4.000000e+001  1.937636e-001 -2.091042e+000
      vertex  4.000000e+001  2.128896e+000 -4.524135e+000
      vertex  4.000000e+001  1.545085e+000 -4.755282e+000
    endloop
  endfacet
  facet normal -1.000000e+000  -0.000000e+000  0.000000e+000
    outer loop
      vertex  4.000000e+001  1.937636e-001 -2.091042e+000
      vertex  4.000000e+001  1.545085e+000 -4.755282e+000
      vertex  4.000000e+001  9.369066e-001 -4.911436e+000
    endloop
  endfacet
  facet normal -1.000000e+000  -0.000000e+000  0.000000e+000
    outer loop
      vertex  4.000000e+001  1.937636e-001 -2.091042e+000
      vertex  4.000000e+001  9.369066e-001 -4.911436e+000
      vertex  4.000000e+001  3.139526e-001 -4.990134e+000
    endloop
  endfacet
  facet normal -1.000000e+000  0.000000e+000  0.000000e+000
    outer loop
      vertex  4.000000e+001  1.937636e-001 -2.091042e+000
      vertex  4.000000e+001  3.139526e-001 -4.990134e+000
      vertex  4.000000e+001 -3.139526e-001 -4.990134e+000
    endloop
  endfacet
  facet normal -1.000000e+000  0.000000e+000  0.000000e+000
    outer loop
      vertex  4.000000e+001  1.937636e-001 -2.091042e+000
      vertex  4.000000e+001 -3.139526e-001 -4.990134e+000
      vertex  4.000000e+001 -1.937636e-001 -2.091042e+000
    endloop
  endfacet
  facet normal -1.000000e+000  0.000000e+000  -0.000000e+000
    outer loop
      vertex  4.000000e+001 -4.381534e+000  2.408768e+000
      vertex  4.000000e+001 -4.045085e+000  2.938926e+000
      vertex  4.000000e+001 -3.644843e+000  3.422735e+000
    endloop
  endfacet
  facet normal -1.000000e+000  0.000000e+000  -0.000000e+000
    outer loop
      vertex  4.000000e+001 -4.381534e+000  2.408768e+000
      vertex  4.000000e+001 -3.644843e+000  3.422735e+000
      vertex  4.000000e+001 -3.187120e+000  3.852566e+000
    endloop
  endfacet
  facet normal -1.000000e+000  0.000000e+000  -0.000000e+000
    outer loop
      vertex  4.000000e+001 -4.381534e+000  2.408768e+000
      vertex  4.000000e+001 -3.187120e+000  3.852566e+000
      vertex  4.000000e+001 -2.679134e+000  4.221640e+000
    endloop
  endfacet
  facet normal -1.000000e+000  0.000000e+000  -0.000000e+000
    outer loop
      vertex  4.000000e+001 -4.381534e+000  2.408768e+000
      vertex  4.000000e+001 -2.679134e+000  4.221640e+000
      vertex  4.000000e+001 -2.128896e+000  4.524135e+000
    endloop
  endfacet
  facet normal -1.000000e+000  0.000000e+000  -0.000000e+000
    outer loop
      vertex  4.000000e+001 -4.381534e+000  2.408768e+000
      vertex  4.000000e+001 -2.128896e+000  4.524135e+000
      vertex  4.000000e+001 -1.545085e+000  4.755282e+000
    endloop
  endfacet
  facet normal -9.999999e-001  0.000000e+000  -0.000000e+000
    outer loop
      vertex  4.000000e+001 -4.381534e+000  2.408768e+000
      vertex  4.000000e+001 -1.545085e+000  4.755282e+000
      vertex  4.000000e+001 -9.369066e-001  4.911436e+000
    endloop
  endfacet
  facet normal -1.000000e+000  0.000000e+000  -0.000000e+000
    outer loop
      vertex  4.000000e+001 -4.381534e+000  2.408768e+000
      vertex  4.000000e+001 -9.369066e-001  4.911436e+000
      vertex  4.000000e+001 -3.139526e-001  4.990134e+000
    endloop
  endfacet
  facet normal -1.000000e+000  0.000000e+000  -0.000000e+000
    outer loop
      vertex  4.000000e+001 -4.381534e+000  2.408768e+000
      vertex  4.000000e+001 -3.139526e-001  4.990134e+000
      vertex  4.000000e+001 -1.937636e-001  2.091042e+000
    endloop
  endfacet
  facet normal -1.000000e+000  -0.000000e+000  0.000000e+000
    outer loop
      vertex  4.000000e+001 -4.381534e+000  2.408768e+000
      vertex  4.000000e+001 -1.937636e-001  2.091042e+000
      vertex  4.000000e+001 -5.746923e-001  2.019834e+000
    endloop
  endfacet
  facet normal -1.000000e+000  -0.000000e+000  0.000000e+000
    outer loop
      vertex  4.000000e+001 -4.381534e+000  2.408768e+000
      vertex  4.000000e+001 -5.746923e-001  2.019834e+000
      vertex  4.000000e+001 -4.648882e+000  1.840623e+000
    endloop
  endfacet
  facet normal -1.000000e+000  0.000000e+000  0.000000e+000
    outer loop
      vertex  4.000000e+001  1.937636e-001  2.091042e+000
      vertex  4.000000e+001 -1.937636e-001  2.091042e+000
      vertex  4.000000e+001 -3.139526e-001  4.990134e+000
    endloop
  endfacet
  facet normal -1.000000e+000  0.000000e+000  0.000000e+000
    outer loop
      vertex  4.000000e+001  1.937636e-001  2.091042e+000
      vertex  4.000000e+001 -3.139526e-001  4.990134e+000
      vertex  4.000000e+001  3.139526e-001  4.990134e+000
    endloop
  endfacet
  facet normal -1.000000e+000  0.000000e+000  -0.000000e+000
    outer loop
      vertex  4.000000e+001  1.937636e-001  2.091042e+000
      vertex  4.000000e+001  3.139526e-001  4.990134e+000
      vertex  4.000000e+001  9.369066e-001  4.911436e+000
    endloop
  endfacet
  facet normal -1.000000e+000  0.000000e+000  -0.000000e+000
    outer loop
      vertex  4.000000e+001  1.937636e-001  2.091042e+000
      vertex  4.000000e+001  9.369066e-001  4.911436e+000
      vertex  4.000000e+001  1.545085e+000  4.755282e+000
    endloop
  endfacet
  facet normal -1.000000e+000  0.000000e+000  -0.000000e+000
    outer loop
      vertex  4.000000e+001  1.937636e-001  2.091042e+000
      vertex  4.000000e+001  1.545085e+000  4.755282e+000
      vertex  4.000000e+001  2.128896e+000  4.524135e+000
    endloop
  endfacet
  facet normal -1.000000e+000  0.000000e+000  -0.000000e+000
    outer loop
      vertex  4.000000e+001  1.937636e-001  2.091042e+000
      vertex  4.000000e+001  2.128896e+000  4.524135e+000
      vertex  4.000000e+001  2.679134e+000  4.221640e+000
    endloop
  endfacet
  facet normal -1.000000e+000  0.000000e+000  -0.000000e+000
    outer loop
      vertex  4.000000e+001  1.937636e-001  2.091042e+000
      vertex  4.000000e+001  2.679134e+000  4.221640e+000
      vertex  4.000000e+001  3.187120e+000  3.852566e+000
    endloop
  endfacet
  facet normal -1.000000e+000  0.000000e+000  -0.000000e+000
    outer loop
      vertex  4.000000e+001  1.937636e-001  2.091042e+000
      vertex  4.000000e+001  3.187120e+000  3.852566e+000
      vertex  4.000000e+001  3.644843e+000  3.422735e+000
    endloop
  endfacet
  facet normal -1.000000e+000  0.000000e+000  -0.000000e+000
    outer loop
      vertex  4.000000e+001  1.937636e-001  2.091042e+000
      vertex  4.000000e+001  3.644843e+000  3.422735e+000
      vertex  4.000000e+001  4.045085e+000  2.938926e+000
    endloop
  endfacet
  facet normal -1.000000e+000  0.000000e+000  -0.000000e+000
    outer loop
      vertex  4.000000e+001  1.937636e-001  2.091042e+000
      vertex  4.000000e+001  4.045085e+000  2.938926e+000
      vertex  4.000000e+001  4.381534e+000  2.408768e+000
    endloop
  endfacet
  facet normal -1.000000e+000  0.000000e+000  -0.000000e+000
    outer loop
      vertex  4.000000e+001  1.937636e-001  2.091042e+000
      vertex  4.000000e+001  4.381534e+000  2.408768e+000
      vertex  4.000000e+001  4.648882e+000  1.840623e+000
    endloop
  endfacet
  facet normal -1.000000e+000  0.000000e+000  0.000000e+000
    outer loop
      vertex  4.000000e+001  1.937636e-001  2.091042e+000
      vertex  4.000000e+001  4.648882e+000  1.840623e+000
      vertex  4.000000e+001  5.746923e-001  2.019834e+000
    endloop
  endfacet
  facet normal -1.000000e+000  -0.000000e+000  0.000000e+000
    outer loop
      vertex  4.000000e+001 -5.746923e-001  2.019834e+000
      vertex  4.000000e+001 -9.360505e-001  1.879843e+000
      vertex  4.000000e+001 -4.648882e+000  1.840623e+000
    endloop
  endfacet
  facet normal -1.000000e+000  0.000000e+000  0.000000e+000
    outer loop
      vertex  4.000000e+001 -4.648882e+000  1.840623e+000
      vertex  4.000000e+001 -9.360505e-001  1.879843e+000
      vertex  4.000000e+001 -1.265533e+000  1.675836e+000
    endloop
  endfacet
  facet normal -1.000000e+000  -0.000000e+000  0.000000e+000
    outer loop
      vertex  4.000000e+001 -4.648882e+000  1.840623e+000
      vertex  4.000000e+001 -1.265533e+000  1.675836e+000
      vertex  4.000000e+001 -4.842916e+000  1.243449e+000
    endloop
  endfacet
  facet normal -1.000000e+000  0.000000e+000  0.000000e+000
    outer loop
      vertex  4.000000e+001 -2.100000e+000  2.571673e-016
      vertex  4.000000e+001 -5.000000e+000  6.123032e-016
      vertex  4.000000e+001 -2.064244e+000  3.858740e-001
    endloop
  endfacet
  facet normal -1.000000e+000  -0.000000e+000  0.000000e+000
    outer loop
      vertex  4.000000e+001 -2.064244e+000  3.858740e-001
      vertex  4.000000e+001 -5.000000e+000  6.123032e-016
      vertex  4.000000e+001 -4.960574e+000  6.266662e-001
    endloop
  endfacet
  facet normal -1.000000e+000  0.000000e+000  0.000000e+000
    outer loop
      vertex  4.000000e+001 -2.064244e+000  3.858740e-001
      vertex  4.000000e+001 -4.960574e+000  6.266662e-001
      vertex  4.000000e+001 -1.958192e+000  7.586075e-001
    endloop
  endfacet
  facet normal -1.000000e+000  -0.000000e+000  0.000000e+000
    outer loop
      vertex  4.000000e+001 -1.958192e+000  7.586075e-001
      vertex  4.000000e+001 -4.960574e+000  6.266662e-001
      vertex  4.000000e+001 -4.842916e+000  1.243449e+000
    endloop
  endfacet
  facet normal -1.000000e+000  0.000000e+000  0.000000e+000
    outer loop
      vertex  4.000000e+001 -1.958192e+000  7.586075e-001
      vertex  4.000000e+001 -4.842916e+000  1.243449e+000
      vertex  4.000000e+001 -1.785456e+000  1.105507e+000
    endloop
  endfacet
  facet normal -1.000000e+000  0.000000e+000  0.000000e+000
    outer loop
      vertex  4.000000e+001 -1.958192e+000 -7.586075e-001
      vertex  4.000000e+001 -4.960574e+000 -6.266662e-001
      vertex  4.000000e+001 -2.064244e+000 -3.858740e-001
    endloop
  endfacet
  facet normal -1.000000e+000  -0.000000e+000  0.000000e+000
    outer loop
      vertex  4.000000e+001 -2.064244e+000 -3.858740e-001
      vertex  4.000000e+001 -4.960574e+000 -6.266662e-001
      vertex  4.000000e+001 -5.000000e+000  6.123032e-016
    endloop
  endfacet
  facet normal -1.000000e+000  0.000000e+000  0.000000e+000
    outer loop
      vertex  4.000000e+001 -2.064244e+000 -3.858740e-001
      vertex  4.000000e+001 -5.000000e+000  6.123032e-016
      vertex  4.000000e+001 -2.100000e+000  2.571673e-016
    endloop
  endfacet
  facet normal -1.000000e+000  0.000000e+000  0.000000e+000
    outer loop
      vertex  4.000000e+001 -1.265533e+000 -1.675836e+000
      vertex  4.000000e+001 -4.648882e+000 -1.840623e+000
      vertex  4.000000e+001 -1.551919e+000 -1.414761e+000
    endloop
  endfacet
  facet normal -9.999999e-001  -0.000000e+000  0.000000e+000
    outer loop
      vertex  4.000000e+001 -1.551919e+000 -1.414761e+000
      vertex  4.000000e+001 -4.648882e+000 -1.840623e+000
      vertex  4.000000e+001 -4.842916e+000 -1.243449e+000
    endloop
  endfacet
  facet normal -1.000000e+000  0.000000e+000  0.000000e+000
    outer loop
      vertex  4.000000e+001 -1.551919e+000 -1.414761e+000
      vertex  4.000000e+001 -4.842916e+000 -1.243449e+000
      vertex  4.000000e+001 -1.785456e+000 -1.105507e+000
    endloop
  endfacet
  facet normal -9.999999e-001  -0.000000e+000  0.000000e+000
    outer loop
      vertex  4.000000e+001 -1.785456e+000 -1.105507e+000
      vertex  4.000000e+001 -4.842916e+000 -1.243449e+000
      vertex  4.000000e+001 -4.960574e+000 -6.266662e-001
    endloop
  endfacet
  facet normal -1.000000e+000  0.000000e+000  0.000000e+000
    outer loop
      vertex  4.000000e+001 -1.785456e+000 -1.105507e+000
      vertex  4.000000e+001 -4.960574e+000 -6.266662e-001
      vertex  4.000000e+001 -1.958192e+000 -7.586075e-001
    endloop
  endfacet
  facet normal -1.000000e+000  0.000000e+000  0.000000e+000
    outer loop
      vertex  4.000000e+001  5.746923e-001  2.019834e+000
      vertex  4.000000e+001  4.648882e+000  1.840623e+000
      vertex  4.000000e+001  9.360505e-001  1.879843e+000
    endloop
  endfacet
  facet normal -1.000000e+000  0.000000e+000  0.000000e+000
    outer loop
      vertex  4.000000e+001  9.360505e-001  1.879843e+000
      vertex  4.000000e+001  4.648882e+000  1.840623e+000
      vertex  4.000000e+001  4.842916e+000  1.243449e+000
    endloop
  endfacet
  facet normal -1.000000e+000  0.000000e+000  0.000000e+000
    outer loop
      vertex  4.000000e+001  9.360505e-001  1.879843e+000
      vertex  4.000000e+001  4.842916e+000  1.243449e+000
      vertex  4.000000e+001  1.265533e+000  1.675836e+000
    endloop
  endfacet
  facet normal -1.000000e+000  0.000000e+000  0.000000e+000
    outer loop
      vertex  4.000000e+001  2.100000e+000  0.000000e+000
      vertex  4.000000e+001  2.064244e+000  3.858740e-001
      vertex  4.000000e+001  5.000000e+000  0.000000e+000
    endloop
  endfacet
  facet normal -1.000000e+000  0.000000e+000  0.000000e+000
    outer loop
      vertex  4.000000e+001  5.000000e+000  0.000000e+000
      vertex  4.000000e+001  2.064244e+000  3.858740e-001
      vertex  4.000000e+001  1.958192e+000  7.586075e-001
    endloop
  endfacet
  facet normal -1.000000e+000  0.000000e+000  0.000000e+000
    outer loop
      vertex  4.000000e+001  5.000000e+000  0.000000e+000
      vertex  4.000000e+001  1.958192e+000  7.586075e-001
      vertex  4.000000e+001  4.960574e+000  6.266662e-001
    endloop
  endfacet
  facet normal -1.000000e+000  0.000000e+000  0.000000e+000
    outer loop
      vertex  4.000000e+001  4.960574e+000  6.266662e-001
      vertex  4.000000e+001  1.958192e+000  7.586075e-001
      vertex  4.000000e+001  1.785456e+000  1.105507e+000
    endloop
  endfacet
  facet normal -9.999999e-001  0.000000e+000  0.000000e+000
    outer loop
      vertex  4.000000e+001  4.960574e+000  6.266662e-001
      vertex  4.000000e+001  1.785456e+000  1.105507e+000
      vertex  4.000000e+001  4.842916e+000  1.243449e+000
    endloop
  endfacet
  facet normal -1.000000e+000  0.000000e+000  -0.000000e+000
    outer loop
      vertex  4.000000e+001  1.958192e+000 -7.586075e-001
      vertex  4.000000e+001  2.064244e+000 -3.858740e-001
      vertex  4.000000e+001  4.960574e+000 -6.266662e-001
    endloop
  endfacet
  facet normal -1.000000e+000  0.000000e+000  0.000000e+000
    outer loop
      vertex  4.000000e+001  4.960574e+000 -6.266662e-001
      vertex  4.000000e+001  2.064244e+000 -3.858740e-001
      vertex  4.000000e+001  2.100000e+000  0.000000e+000
    endloop
  endfacet
  facet normal -1.000000e+000  0.000000e+000  0.000000e+000
    outer loop
      vertex  4.000000e+001  4.960574e+000 -6.266662e-001
      vertex  4.000000e+001  2.100000e+000  0.000000e+000
      vertex  4.000000e+001  5.000000e+000  0.000000e+000
    endloop
  endfacet
  facet normal -1.000000e+000  0.000000e+000  -0.000000e+000
    outer loop
      vertex  4.000000e+001  1.265533e+000 -1.675836e+000
      vertex  4.000000e+001  1.551919e+000 -1.414761e+000
      vertex  4.000000e+001  4.648882e+000 -1.840623e+000
    endloop
  endfacet
  facet normal -1.000000e+000  0.000000e+000  0.000000e+000
    outer loop
      vertex  4.000000e+001  4.648882e+000 -1.840623e+000
      vertex  4.000000e+001  1.551919e+000 -1.414761e+000
      vertex  4.000000e+001  1.785456e+000 -1.105507e+000
    endloop
  endfacet
  facet normal -1.000000e+000  0.000000e+000  0.000000e+000
    outer loop
      vertex  4.000000e+001  4.648882e+000 -1.840623e+000
      vertex  4.000000e+001  1.785456e+000 -1.105507e+000
      vertex  4.000000e+001  4.842916e+000 -1.243449e+000
    endloop
  endfacet
  facet normal -1.000000e+000  0.000000e+000  0.000000e+000
    outer loop
      vertex  4.000000e+001  4.842916e+000 -1.243449e+000
      vertex  4.000000e+001  1.785456e+000 -1.105507e+000
      vertex  4.000000e+001  1.958192e+000 -7.586075e-001
    endloop
  endfacet
  facet normal -1.000000e+000  0.000000e+000  0.000000e+000
    outer loop
      vertex  4.000000e+001  4.842916e+000 -1.243449e+000
      vertex  4.000000e+001  1.958192e+000 -7.586075e-001
      vertex  4.000000e+001  4.960574e+000 -6.266662e-001
    endloop
  endfacet
  facet normal -1.000000e+000  -0.000000e+000  0.000000e+000
    outer loop
      vertex  4.000000e+001  1.265533e+000 -1.675836e+000
      vertex  4.000000e+001  4.648882e+000 -1.840623e+000
      vertex  4.000000e+001  9.360505e-001 -1.879843e+000
    endloop
  endfacet
  facet normal -1.000000e+000  0.000000e+000  0.000000e+000
    outer loop
      vertex  4.000000e+001  9.360505e-001 -1.879843e+000
      vertex  4.000000e+001  4.648882e+000 -1.840623e+000
      vertex  4.000000e+001  4.381534e+000 -2.408768e+000
    endloop
  endfacet
  facet normal -1.000000e+000  0.000000e+000  0.000000e+000
    outer loop
      vertex  4.000000e+001  9.360505e-001 -1.879843e+000
      vertex  4.000000e+001  4.381534e+000 -2.408768e+000
      vertex  4.000000e+001  5.746923e-001 -2.019834e+000
    endloop
  endfacet
  facet normal  0.000000e+000  9.957342e-001 -9.226800e-002
    outer loop
      vertex  0.000000e+000  2.100000e+000  0.000000e+000
      vertex  4.000000e+001  2.100000e+000  0.000000e+000
      vertex  0.000000e+000  2.064244e+000 -3.858740e-001
    endloop
  endfacet
  facet normal  0.000000e+000  9.957342e-001 -9.226800e-002
    outer loop
      vertex  0.000000e+000  2.064244e+000 -3.858740e-001
      vertex  4.000000e+001  2.100000e+000  0.000000e+000
      vertex  4.000000e+001  2.064244e+000 -3.858740e-001
    endloop
  endfacet
  facet normal  0.000000e+000  9.618255e-001 -2.736632e-001
    outer loop
      vertex  0.000000e+000  2.064244e+000 -3.858740e-001
      vertex  4.000000e+001  2.064244e+000 -3.858740e-001
      vertex  0.000000e+000  1.958192e+000 -7.586075e-001
    endloop
  endfacet
  facet normal  0.000000e+000  9.618255e-001 -2.736632e-001
    outer loop
      vertex  0.000000e+000  1.958192e+000 -7.586075e-001
      vertex  4.000000e+001  2.064244e+000 -3.858740e-001
      vertex  4.000000e+001  1.958192e+000 -7.586075e-001
    endloop
  endfacet
  facet normal  0.000000e+000  8.951633e-001 -4.457384e-001
    outer loop
      vertex  0.000000e+000  1.958192e+000 -7.586075e-001
      vertex  4.000000e+001  1.958192e+000 -7.586075e-001
      vertex  0.000000e+000  1.785456e+000 -1.105507e+000
    endloop
  endfacet
  facet normal  0.000000e+000  8.951633e-001 -4.457384e-001
    outer loop
      vertex  0.000000e+000  1.785456e+000 -1.105507e+000
      vertex  4.000000e+001  1.958192e+000 -7.586075e-001
      vertex  4.000000e+001  1.785456e+000 -1.105507e+000
    endloop
  endfacet
  facet normal  0.000000e+000  7.980173e-001 -6.026345e-001
    outer loop
      vertex  0.000000e+000  1.785456e+000 -1.105507e+000
      vertex  4.000000e+001  1.785456e+000 -1.105507e+000
      vertex  0.000000e+000  1.551919e+000 -1.414761e+000
    endloop
  endfacet
  facet normal  0.000000e+000  7.980173e-001 -6.026345e-001
    outer loop
      vertex  0.000000e+000  1.551919e+000 -1.414761e+000
      vertex  4.000000e+001  1.785456e+000 -1.105507e+000
      vertex  4.000000e+001  1.551919e+000 -1.414761e+000
    endloop
  endfacet
  facet normal  0.000000e+000  6.736957e-001 -7.390088e-001
    outer loop
      vertex  0.000000e+000  1.551919e+000 -1.414761e+000
      vertex  4.000000e+001  1.551919e+000 -1.414761e+000
      vertex  0.000000e+000  1.265533e+000 -1.675836e+000
    endloop
  endfacet
  facet normal  0.000000e+000  6.736957e-001 -7.390088e-001
    outer loop
      vertex  0.000000e+000  1.265533e+000 -1.675836e+000
      vertex  4.000000e+001  1.551919e+000 -1.414761e+000
      vertex  4.000000e+001  1.265533e+000 -1.675836e+000
    endloop
  endfacet
  facet normal  0.000000e+000  5.264320e-001 -8.502172e-001
    outer loop
      vertex  0.000000e+000  1.265533e+000 -1.675836e+000
      vertex  4.000000e+001  1.265533e+000 -1.675836e+000
      vertex  0.000000e+000  9.360505e-001 -1.879843e+000
    endloop
  endfacet
  facet normal  0.000000e+000  5.264320e-001 -8.502172e-001
    outer loop
      vertex  0.000000e+000  9.360505e-001 -1.879843e+000
      vertex  4.000000e+001  1.265533e+000 -1.675836e+000
      vertex  4.000000e+001  9.360505e-001 -1.879843e+000
    endloop
  endfacet
  facet normal  0.000000e+000  3.612417e-001 -9.324722e-001
    outer loop
      vertex  0.000000e+000  9.360505e-001 -1.879843e+000
      vertex  4.000000e+001  9.360505e-001 -1.879843e+000
      vertex  0.000000e+000  5.746923e-001 -2.019834e+000
    endloop
  endfacet
  facet normal  0.000000e+000  3.612417e-001 -9.324722e-001
    outer loop
      vertex  0.000000e+000  5.746923e-001 -2.019834e+000
      vertex  4.000000e+001  9.360505e-001 -1.879843e+000
      vertex  4.000000e+001  5.746923e-001 -2.019834e+000
    endloop
  endfacet
  facet normal  0.000000e+000  1.837497e-001 -9.829730e-001
    outer loop
      vertex  0.000000e+000  5.746923e-001 -2.019834e+000
      vertex  4.000000e+001  5.746923e-001 -2.019834e+000
      vertex  0.000000e+000  1.937636e-001 -2.091042e+000
    endloop
  endfacet
  facet normal  0.000000e+000  1.837497e-001 -9.829730e-001
    outer loop
      vertex  0.000000e+000  1.937636e-001 -2.091042e+000
      vertex  4.000000e+001  5.746923e-001 -2.019834e+000
      vertex  4.000000e+001  1.937636e-001 -2.091042e+000
    endloop
  endfacet
  facet normal  -0.000000e+000  0.000000e+000 -1.000000e+000
    outer loop
      vertex  0.000000e+000  1.937636e-001 -2.091042e+000
      vertex  4.000000e+001  1.937636e-001 -2.091042e+000
      vertex  0.000000e+000 -1.937636e-001 -2.091042e+000
    endloop
  endfacet
  facet normal  0.000000e+000  0.000000e+000 -1.000000e+000
    outer loop
      vertex  0.000000e+000 -1.937636e-001 -2.091042e+000
      vertex  4.000000e+001  1.937636e-001 -2.091042e+000
      vertex  4.000000e+001 -1.937636e-001 -2.091042e+000
    endloop
  endfacet
  facet normal  -0.000000e+000 -1.837497e-001 -9.829730e-001
    outer loop
      vertex  0.000000e+000 -1.937636e-001 -2.091042e+000
      vertex  4.000000e+001 -1.937636e-001 -2.091042e+000
      vertex  0.000000e+000 -5.746923e-001 -2.019834e+000
    endloop
  endfacet
  facet normal  0.000000e+000 -1.837497e-001 -9.829730e-001
    outer loop
      vertex  0.000000e+000 -5.746923e-001 -2.019834e+000
      vertex  4.000000e+001 -1.937636e-001 -2.091042e+000
      vertex  4.000000e+001 -5.746923e-001 -2.019834e+000
    endloop
  endfacet
  facet normal  -0.000000e+000 -3.612417e-001 -9.324722e-001
    outer loop
      vertex  0.000000e+000 -5.746923e-001 -2.019834e+000
      vertex  4.000000e+001 -5.746923e-001 -2.019834e+000
      vertex  0.000000e+000 -9.360505e-001 -1.879843e+000
    endloop
  endfacet
  facet normal  0.000000e+000 -3.612417e-001 -9.324722e-001
    outer loop
      vertex  0.000000e+000 -9.360505e-001 -1.879843e+000
      vertex  4.000000e+001 -5.746923e-001 -2.019834e+000
      vertex  4.000000e+001 -9.360505e-001 -1.879843e+000
    endloop
  endfacet
  facet normal  -0.000000e+000 -5.264320e-001 -8.502172e-001
    outer loop
      vertex  0.000000e+000 -9.360505e-001 -1.879843e+000
      vertex  4.000000e+001 -9.360505e-001 -1.879843e+000
      vertex  0.000000e+000 -1.265533e+000 -1.675836e+000
    endloop
  endfacet
  facet normal  0.000000e+000 -5.264320e-001 -8.502172e-001
    outer loop
      vertex  0.000000e+000 -1.265533e+000 -1.675836e+000
      vertex  4.000000e+001 -9.360505e-001 -1.879843e+000
      vertex  4.000000e+001 -1.265533e+000 -1.675836e+000
    endloop
  endfacet
  facet normal  -0.000000e+000 -6.736957e-001 -7.390088e-001
    outer loop
      vertex  0.000000e+000 -1.265533e+000 -1.675836e+000
      vertex  4.000000e+001 -1.265533e+000 -1.675836e+000
      vertex  0.000000e+000 -1.551919e+000 -1.414761e+000
    endloop
  endfacet
  facet normal  0.000000e+000 -6.736957e-001 -7.390088e-001
    outer loop
      vertex  0.000000e+000 -1.551919e+000 -1.414761e+000
      vertex  4.000000e+001 -1.265533e+000 -1.675836e+000
      vertex  4.000000e+001 -1.551919e+000 -1.414761e+000
    endloop
  endfacet
  facet normal  -0.000000e+000 -7.980173e-001 -6.026345e-001
    outer loop
      vertex  0.000000e+000 -1.551919e+000 -1.414761e+000
      vertex  4.000000e+001 -1.551919e+000 -1.414761e+000
      vertex  0.000000e+000 -1.785456e+000 -1.105507e+000
    endloop
  endfacet
  facet normal  0.000000e+000 -7.980173e-001 -6.026345e-001
    outer loop
      vertex  0.000000e+000 -1.785456e+000 -1.105507e+000
      vertex  4.000000e+001 -1.551919e+000 -1.414761e+000
      vertex  4.000000e+001 -1.785456e+000 -1.105507e+000
    endloop
  endfacet
  facet normal  -0.000000e+000 -8.951633e-001 -4.457384e-001
    outer loop
      vertex  0.000000e+000 -1.785456e+000 -1.105507e+000
      vertex  4.000000e+001 -1.785456e+000 -1.105507e+000
      vertex  0.000000e+000 -1.958192e+000 -7.586075e-001
    endloop
  endfacet
  facet normal  0.000000e+000 -8.951633e-001 -4.457384e-001
    outer loop
      vertex  0.000000e+000 -1.958192e+000 -7.586075e-001
      vertex  4.000000e+001 -1.785456e+000 -1.105507e+000
      vertex  4.000000e+001 -1.958192e+000 -7.586075e-001
    endloop
  endfacet
  facet normal  -0.000000e+000 -9.618255e-001 -2.736632e-001
    outer loop
      vertex  0.000000e+000 -1.958192e+000 -7.586075e-001
      vertex  4.000000e+001 -1.958192e+000 -7.586075e-001
      vertex  0.000000e+000 -2.064244e+000 -3.858740e-001
    endloop
  endfacet
  facet normal  0.000000e+000 -9.618255e-001 -2.736632e-001
    outer loop
      vertex  0.000000e+000 -2.064244e+000 -3.858740e-001
      vertex  4.000000e+001 -1.958192e+000 -7.586075e-001
      vertex  4.000000e+001 -2.064244e+000 -3.858740e-001
    endloop
  endfacet
  facet normal  -0.000000e+000 -9.957342e-001 -9.226800e-002
    outer loop
      vertex  0.000000e+000 -2.064244e+000 -3.858740e-001
      vertex  4.000000e+001 -2.064244e+000 -3.858740e-001
      vertex  0.000000e+000 -2.100000e+000  2.571673e-016
    endloop
  endfacet
  facet normal  0.000000e+000 -9.957342e-001 -9.226800e-002
    outer loop
      vertex  0.000000e+000 -2.100000e+000  2.571673e-016
      vertex  4.000000e+001 -2.064244e+000 -3.858740e-001
      vertex  4.000000e+001 -2.100000e+000  2.571673e-016
    endloop
  endfacet
  facet normal  0.000000e+000 -9.957342e-001  9.226800e-002
    outer loop
      vertex  0.000000e+000 -2.100000e+000  2.571673e-016
      vertex  4.000000e+001 -2.100000e+000  2.571673e-016
      vertex  0.000000e+000 -2.064244e+000  3.858740e-001
    endloop
  endfacet
  facet normal  0.000000e+000 -9.957342e-001  9.226800e-002
    outer loop
      vertex  0.000000e+000 -2.064244e+000  3.858740e-001
      vertex  4.000000e+001 -2.100000e+000  2.571673e-016
      vertex  4.000000e+001 -2.064244e+000  3.858740e-001
    endloop
  endfacet
  facet normal  0.000000e+000 -9.618255e-001  2.736632e-001
    outer loop
      vertex  0.000000e+000 -2.064244e+000  3.858740e-001
      vertex  4.000000e+001 -2.064244e+000  3.858740e-001
      vertex  0.000000e+000 -1.958192e+000  7.586075e-001
    endloop
  endfacet
  facet normal  0.000000e+000 -9.618255e-001  2.736632e-001
    outer loop
      vertex  0.000000e+000 -1.958192e+000  7.586075e-001
      vertex  4.000000e+001 -2.064244e+000  3.858740e-001
      vertex  4.000000e+001 -1.958192e+000  7.586075e-001
    endloop
  endfacet
  facet normal  0.000000e+000 -8.951633e-001  4.457384e-001
    outer loop
      vertex  0.000000e+000 -1.958192e+000  7.586075e-001
      vertex  4.000000e+001 -1.958192e+000  7.586075e-001
      vertex  0.000000e+000 -1.785456e+000  1.105507e+000
    endloop
  endfacet
  facet normal  0.000000e+000 -8.951633e-001  4.457384e-001
    outer loop
      vertex  0.000000e+000 -1.785456e+000  1.105507e+000
      vertex  4.000000e+001 -1.958192e+000  7.586075e-001
      vertex  4.000000e+001 -1.785456e+000  1.105507e+000
    endloop
  endfacet
  facet normal  0.000000e+000 -7.980173e-001  6.026345e-001
    outer loop
      vertex  0.000000e+000 -1.785456e+000  1.105507e+000
      vertex  4.000000e+001 -1.785456e+000  1.105507e+000
      vertex  0.000000e+000 -1.551919e+000  1.414761e+000
    endloop
  endfacet
  facet normal  0.000000e+000 -7.980173e-001  6.026345e-001
    outer loop
      vertex  0.000000e+000 -1.551919e+000  1.414761e+000
      vertex  4.000000e+001 -1.785456e+000  1.105507e+000
      vertex  4.000000e+001 -1.551919e+000  1.414761e+000
    endloop
  endfacet
  facet normal  0.000000e+000 -6.736957e-001  7.390088e-001
    outer loop
      vertex  0.000000e+000 -1.551919e+000  1.414761e+000
      vertex  4.000000e+001 -1.551919e+000  1.414761e+000
      vertex  0.000000e+000 -1.265533e+000  1.675836e+000
    endloop
  endfacet
  facet normal  0.000000e+000 -6.736957e-001  7.390088e-001
    outer loop
      vertex  0.000000e+000 -1.265533e+000  1.675836e+000
      vertex  4.000000e+001 -1.551919e+000  1.414761e+000
      vertex  4.000000e+001 -1.265533e+000  1.675836e+000
    endloop
  endfacet
  facet normal  0.000000e+000 -5.264320e-001  8.502172e-001
    outer loop
      vertex  0.000000e+000 -1.265533e+000  1.675836e+000
      vertex  4.000000e+001 -1.265533e+000  1.675836e+000
      vertex  0.000000e+000 -9.360505e-001  1.879843e+000
    endloop
  endfacet
  facet normal  0.000000e+000 -5.264320e-001  8.502172e-001
    outer loop
      vertex  0.000000e+000 -9.360505e-001  1.879843e+000
      vertex  4.000000e+001 -1.265533e+000  1.675836e+000
      vertex  4.000000e+001 -9.360505e-001  1.879843e+000
    endloop
  endfacet
  facet normal  0.000000e+000 -3.612417e-001  9.324722e-001
    outer loop
      vertex  0.000000e+000 -9.360505e-001  1.879843e+000
      vertex  4.000000e+001 -9.360505e-001  1.879843e+000
      vertex  0.000000e+000 -5.746923e-001  2.019834e+000
    endloop
  endfacet
  facet normal  0.000000e+000 -3.612417e-001  9.324722e-001
    outer loop
      vertex  0.000000e+000 -5.746923e-001  2.019834e+000
      vertex  4.000000e+001 -9.360505e-001  1.879843e+000
      vertex  4.000000e+001 -5.746923e-001  2.019834e+000
    endloop
  endfacet
  facet normal  0.000000e+000 -1.837497e-001  9.829730e-001
    outer loop
      vertex  0.000000e+000 -5.746923e-001  2.019834e+000
      vertex  4.000000e+001 -5.746923e-001  2.019834e+000
      vertex  0.000000e+000 -1.937636e-001  2.091042e+000
    endloop
  endfacet
  facet normal  0.000000e+000 -1.837497e-001  9.829730e-001
    outer loop
      vertex  0.000000e+000 -1.937636e-001  2.091042e+000
      vertex  4.000000e+001 -5.746923e-001  2.019834e+000
      vertex  4.000000e+001 -1.937636e-001  2.091042e+000
    endloop
  endfacet
  facet normal  0.000000e+000  0.000000e+000  1.000000e+000
    outer loop
      vertex  0.000000e+000 -1.937636e-001  2.091042e+000
      vertex  4.000000e+001 -1.937636e-001  2.091042e+000
      vertex  0.000000e+000  1.937636e-001  2.091042e+000
    endloop
  endfacet
  facet normal  -0.000000e+000  0.000000e+000  1.000000e+000
    outer loop
      vertex  0.000000e+000  1.937636e-001  2.091042e+000
      vertex  4.000000e+001 -1.937636e-001  2.091042e+000
      vertex  4.000000e+001  1.937636e-001  2.091042e+000
    endloop
  endfacet
  facet normal  0.000000e+000  1.837497e-001  9.829730e-001
    outer loop
      vertex  0.000000e+000  1.937636e-001  2.091042e+000
      vertex  4.000000e+001  1.937636e-001  2.091042e+000
      vertex  0.000000e+000  5.746923e-001  2.019834e+000
    endloop
  endfacet
  facet normal  -0.000000e+000  1.837497e-001  9.829730e-001
    outer loop
      vertex  0.000000e+000  5.746923e-001  2.019834e+000
      vertex  4.000000e+001  1.937636e-001  2.091042e+000
      vertex  4.000000e+001  5.746923e-001  2.019834e+000
    endloop
  endfacet
  facet normal  0.000000e+000  3.612417e-001  9.324722e-001
    outer loop
      vertex  0.000000e+000  5.746923e-001  2.019834e+000
      vertex  4.000000e+001  5.746923e-001  2.019834e+000
      vertex  0.000000e+000  9.360505e-001  1.879843e+000
    endloop
  endfacet
  facet normal  -0.000000e+000  3.612417e-001  9.324722e-001
    outer loop
      vertex  0.000000e+000  9.360505e-001  1.879843e+000
      vertex  4.000000e+001  5.746923e-001  2.019834e+000
      vertex  4.000000e+001  9.360505e-001  1.879843e+000
    endloop
  endfacet
  facet normal  0.000000e+000  5.264320e-001  8.502172e-001
    outer loop
      vertex  0.000000e+000  9.360505e-001  1.879843e+000
      vertex  4.000000e+001  9.360505e-001  1.879843e+000
      vertex  0.000000e+000  1.265533e+000  1.675836e+000
    endloop
  endfacet
  facet normal  -0.000000e+000  5.264320e-001  8.502172e-001
    outer loop
      vertex  0.000000e+000  1.265533e+000  1.675836e+000
      vertex  4.000000e+001  9.360505e-001  1.879843e+000
      vertex  4.000000e+001  1.265533e+000  1.675836e+000
    endloop
  endfacet
  facet normal  0.000000e+000  6.736957e-001  7.390088e-001
    outer loop
      vertex  0.000000e+000  1.265533e+000  1.675836e+000
      vertex  4.000000e+001  1.265533e+000  1.675836e+000
      vertex  0.000000e+000  1.551919e+000  1.414761e+000
    endloop
  endfacet
  facet normal  -0.000000e+000  6.736957e-001  7.390088e-001
    outer loop
      vertex  0.000000e+000  1.551919e+000  1.414761e+000
      vertex  4.000000e+001  1.265533e+000  1.675836e+000
      vertex  4.000000e+001  1.551919e+000  1.414761e+000
    endloop
  endfacet
  facet normal  0.000000e+000  7.980173e-001  6.026345e-001
    outer loop
      vertex  0.000000e+000  1.551919e+000  1.414761e+000
      vertex  4.000000e+001  1.551919e+000  1.414761e+000
      vertex  0.000000e+000  1.785456e+000  1.105507e+000
    endloop
  endfacet
  facet normal  -0.000000e+000  7.980173e-001  6.026345e-001
    outer loop
      vertex  0.000000e+000  1.785456e+000  1.105507e+000
      vertex  4.000000e+001  1.551919e+000  1.414761e+000
      vertex  4.000000e+001  1.785456e+000  1.105507e+000
    endloop
  endfacet
  facet normal  0.000000e+000  8.951633e-001  4.457384e-001
    outer loop
      vertex  0.000000e+000  1.785456e+000  1.105507e+000
      vertex  4.000000e+001  1.785456e+000  1.105507e+000
      vertex  0.000000e+000  1.958192e+000  7.586075e-001
    endloop
  endfacet
  facet normal  -0.000000e+000  8.951633e-001  4.457384e-001
    outer loop
      vertex  0.000000e+000  1.958192e+000  7.586075e-001
      vertex  4.000000e+001  1.785456e+000  1.105507e+000
      vertex  4.000000e+001  1.958192e+000  7.586075e-001
    endloop
  endfacet
  facet normal  0.000000e+000  9.618255e-001  2.736632e-001
    outer loop
      vertex  0.000000e+000  1.958192e+000  7.586075e-001
      vertex  4.000000e+001  1.958192e+000  7.586075e-001
      vertex  0.000000e+000  2.064244e+000  3.858740e-001
    endloop
  endfacet
  facet normal  -0.000000e+000  9.618255e-001  2.736632e-001
    outer loop
      vertex  0.000000e+000  2.064244e+000  3.858740e-001
      vertex  4.000000e+001  1.958192e+000  7.586075e-001
      vertex  4.000000e+001  2.064244e+000  3.858740e-001
    endloop
  endfacet
  facet normal  0.000000e+000  9.957342e-001  9.226800e-002
    outer loop
      vertex  0.000000e+000  2.064244e+000  3.858740e-001
      vertex  4.000000e+001  2.064244e+000  3.858740e-001
      vertex  0.000000e+000  2.100000e+000  0.000000e+000
    endloop
  endfacet
  facet normal  -0.000000e+000  9.957342e-001  9.226800e-002
    outer loop
      vertex  0.000000e+000  2.100000e+000  0.000000e+000
      vertex  4.000000e+001  2.064244e+000  3.858740e-001
      vertex  4.000000e+001  2.100000e+000  0.000000e+000
    endloop
  endfacet
  facet normal  1.000000e+000  -0.000000e+000  0.000000e+000
    outer loop
      vertex  4.500000e+001  3.139526e-001  4.990134e+000
      vertex  4.500000e+001 -3.139526e-001  4.990134e+000
      vertex  4.500000e+001  9.369066e-001  4.911436e+000
    endloop
  endfacet
  facet normal  1.000000e+000  0.000000e+000  0.000000e+000
    outer loop
      vertex  4.500000e+001  9.369066e-001  4.911436e+000
      vertex  4.500000e+001 -3.139526e-001  4.990134e+000
      vertex  4.500000e+001 -9.369066e-001  4.911436e+000
    endloop
  endfacet
  facet normal  1.000000e+000  -0.000000e+000  0.000000e+000
    outer loop
      vertex  4.500000e+001  9.369066e-001  4.911436e+000
      vertex  4.500000e+001 -9.369066e-001  4.911436e+000
      vertex  4.500000e+001  1.545085e+000  4.755282e+000
    endloop
  endfacet
  facet normal  1.000000e+000  0.000000e+000  0.000000e+000
    outer loop
      vertex  4.500000e+001  1.545085e+000  4.755282e+000
      vertex  4.500000e+001 -9.369066e-001  4.911436e+000
      vertex  4.500000e+001 -1.545085e+000  4.755282e+000
    endloop
  endfacet
  facet normal  9.999999e-001  -0.000000e+000  0.000000e+000
    outer loop
      vertex  4.500000e+001  1.545085e+000  4.755282e+000
      vertex  4.500000e+001 -1.545085e+000  4.755282e+000
      vertex  4.500000e+001  2.128896e+000  4.524135e+000
    endloop
  endfacet
  facet normal  9.999999e-001  0.000000e+000  0.000000e+000
    outer loop
      vertex  4.500000e+001  2.128896e+000  4.524135e+000
      vertex  4.500000e+001 -1.545085e+000  4.755282e+000
      vertex  4.500000e+001 -2.128896e+000  4.524135e+000
    endloop
  endfacet
  facet normal  9.999999e-001  -0.000000e+000  0.000000e+000
    outer loop
      vertex  4.500000e+001  2.128896e+000  4.524135e+000
      vertex  4.500000e+001 -2.128896e+000  4.524135e+000
      vertex  4.500000e+001  2.679134e+000  4.221640e+000
    endloop
  endfacet
  facet normal  1.000000e+000  0.000000e+000  0.000000e+000
    outer loop
      vertex  4.500000e+001  2.679134e+000  4.221640e+000
      vertex  4.500000e+001 -2.128896e+000  4.524135e+000
      vertex  4.500000e+001 -2.679134e+000  4.221640e+000
    endloop
  endfacet
  facet normal  9.999999e-001  -0.000000e+000  0.000000e+000
    outer loop
      vertex  4.500000e+001  2.679134e+000  4.221640e+000
      vertex  4.500000e+001 -2.679134e+000  4.221640e+000
      vertex  4.500000e+001  3.187120e+000  3.852566e+000
    endloop
  endfacet
  facet normal  9.999999e-001  0.000000e+000  0.000000e+000
    outer loop
      vertex  4.500000e+001  3.187120e+000  3.852566e+000
      vertex  4.500000e+001 -2.679134e+000  4.221640e+000
      vertex  4.500000e+001 -3.187120e+000  3.852566e+000
    endloop
  endfacet
  facet normal  1.000000e+000  -0.000000e+000  0.000000e+000
    outer loop
      vertex  4.500000e+001  3.187120e+000  3.852566e+000
      vertex  4.500000e+001 -3.187120e+000  3.852566e+000
      vertex  4.500000e+001  3.644843e+000  3.422735e+000
    endloop
  endfacet
  facet normal  9.999999e-001  0.000000e+000  0.000000e+000
    outer loop
      vertex  4.500000e+001  3.644843e+000  3.422735e+000
      vertex  4.500000e+001 -3.187120e+000  3.852566e+000
      vertex  4.500000e+001 -3.644843e+000  3.422735e+000
    endloop
  endfacet
  facet normal  1.000000e+000  -0.000000e+000  0.000000e+000
    outer loop
      vertex  4.500000e+001  3.644843e+000  3.422735e+000
      vertex  4.500000e+001 -3.644843e+000  3.422735e+000
      vertex  4.500000e+001  4.045085e+000  2.938926e+000
    endloop
  endfacet
  facet normal  1.000000e+000  0.000000e+000  0.000000e+000
    outer loop
      vertex  4.500000e+001  4.045085e+000  2.938926e+000
      vertex  4.500000e+001 -3.644843e+000  3.422735e+000
      vertex  4.500000e+001 -4.045085e+000  2.938926e+000
    endloop
  endfacet
  facet normal  1.000000e+000  -0.000000e+000  0.000000e+000
    outer loop
      vertex  4.500000e+001  4.045085e+000  2.938926e+000
      vertex  4.500000e+001 -4.045085e+000  2.938926e+000
      vertex  4.500000e+001  4.381534e+000  2.408768e+000
    endloop
  endfacet
  facet normal  1.000000e+000  0.000000e+000  0.000000e+000
    outer loop
      vertex  4.500000e+001  4.381534e+000  2.408768e+000
      vertex  4.500000e+001 -4.045085e+000  2.938926e+000
      vertex  4.500000e+001 -4.381534e+000  2.408768e+000
    endloop
  endfacet
  facet normal  1.000000e+000  -0.000000e+000  0.000000e+000
    outer loop
      vertex  4.500000e+001  4.381534e+000  2.408768e+000
      vertex  4.500000e+001 -4.381534e+000  2.408768e+000
      vertex  4.500000e+001  4.648882e+000  1.840623e+000
    endloop
  endfacet
  facet normal  1.000000e+000  0.000000e+000  0.000000e+000
    outer loop
      vertex  4.500000e+001  4.648882e+000  1.840623e+000
      vertex  4.500000e+001 -4.381534e+000  2.408768e+000
      vertex  4.500000e+001 -4.648882e+000  1.840623e+000
    endloop
  endfacet
  facet normal  1.000000e+000  -0.000000e+000  0.000000e+000
    outer loop
      vertex  4.500000e+001  4.648882e+000  1.840623e+000
      vertex  4.500000e+001 -4.648882e+000  1.840623e+000
      vertex  4.500000e+001  4.842916e+000  1.243449e+000
    endloop
  endfacet
  facet normal  1.000000e+000  0.000000e+000  0.000000e+000
    outer loop
      vertex  4.500000e+001  4.842916e+000  1.243449e+000
      vertex  4.500000e+001 -4.648882e+000  1.840623e+000
      vertex  4.500000e+001 -4.842916e+000  1.243449e+000
    endloop
  endfacet
  facet normal  1.000000e+000  -0.000000e+000  0.000000e+000
    outer loop
      vertex  4.500000e+001  4.842916e+000  1.243449e+000
      vertex  4.500000e+001 -4.842916e+000  1.243449e+000
      vertex  4.500000e+001  4.960574e+000  6.266662e-001
    endloop
  endfacet
  facet normal  1.000000e+000  0.000000e+000  0.000000e+000
    outer loop
      vertex  4.500000e+001  4.960574e+000  6.266662e-001
      vertex  4.500000e+001 -4.842916e+000  1.243449e+000
      vertex  4.500000e+001 -4.960574e+000  6.266662e-001
    endloop
  endfacet
  facet normal  1.000000e+000  -0.000000e+000  0.000000e+000
    outer loop
      vertex  4.500000e+001  4.960574e+000  6.266662e-001
      vertex  4.500000e+001 -4.960574e+000  6.266662e-001
      vertex  4.500000e+001  5.000000e+000  0.000000e+000
    endloop
  endfacet
  facet normal  1.000000e+000  0.000000e+000  0.000000e+000
    outer loop
      vertex  4.500000e+001  5.000000e+000  0.000000e+000
      vertex  4.500000e+001 -4.960574e+000  6.266662e-001
      vertex  4.500000e+001 -5.000000e+000  6.123032e-016
    endloop
  endfacet
  facet normal  1.000000e+000  0.000000e+000  0.000000e+000
    outer loop
      vertex  4.500000e+001  5.000000e+000  0.000000e+000
      vertex  4.500000e+001 -5.000000e+000  6.123032e-016
      vertex  4.500000e+001  4.960574e+000 -6.266662e-001
    endloop
  endfacet
  facet normal  1.000000e+000  0.000000e+000  0.000000e+000
    outer loop
      vertex  4.500000e+001  4.960574e+000 -6.266662e-001
      vertex  4.500000e+001 -5.000000e+000  6.123032e-016
      vertex  4.500000e+001 -4.960574e+000 -6.266662e-001
    endloop
  endfacet
  facet normal  1.000000e+000  -0.000000e+000  0.000000e+000
    outer loop
      vertex  4.500000e+001  4.960574e+000 -6.266662e-001
      vertex  4.500000e+001 -4.960574e+000 -6.266662e-001
      vertex  4.500000e+001  4.842916e+000 -1.243449e+000
    endloop
  endfacet
  facet normal  1.000000e+000  0.000000e+000  0.000000e+000
    outer loop
      vertex  4.500000e+001  4.842916e+000 -1.243449e+000
      vertex  4.500000e+001 -4.960574e+000 -6.266662e-001
      vertex  4.500000e+001 -4.842916e+000 -1.243449e+000
    endloop
  endfacet
  facet normal  1.000000e+000  -0.000000e+000  0.000000e+000
    outer loop
      vertex  4.500000e+001  4.842916e+000 -1.243449e+000
      vertex  4.500000e+001 -4.842916e+000 -1.243449e+000
      vertex  4.500000e+001  4.648882e+000 -1.840623e+000
    endloop
  endfacet
  facet normal  1.000000e+000  0.000000e+000  0.000000e+000
    outer loop
      vertex  4.500000e+001  4.648882e+000 -1.840623e+000
      vertex  4.500000e+001 -4.842916e+000 -1.243449e+000
      vertex  4.500000e+001 -4.648882e+000 -1.840623e+000
    endloop
  endfacet
  facet normal  1.000000e+000  -0.000000e+000  0.000000e+000
    outer loop
      vertex  4.500000e+001  4.648882e+000 -1.840623e+000
      vertex  4.500000e+001 -4.648882e+000 -1.840623e+000
      vertex  4.500000e+001  4.381534e+000 -2.408768e+000
    endloop
  endfacet
  facet normal  1.000000e+000  0.000000e+000  0.000000e+000
    outer loop
      vertex  4.500000e+001  4.381534e+000 -2.408768e+000
      vertex  4.500000e+001 -4.648882e+000 -1.840623e+000
      vertex  4.500000e+001 -4.381534e+000 -2.408768e+000
    endloop
  endfacet
  facet normal  1.000000e+000  -0.000000e+000  0.000000e+000
    outer loop
      vertex  4.500000e+001  4.381534e+000 -2.408768e+000
      vertex  4.500000e+001 -4.381534e+000 -2.408768e+000
      vertex  4.500000e+001  4.045085e+000 -2.938926e+000
    endloop
  endfacet
  facet normal  1.000000e+000  0.000000e+000  0.000000e+000
    outer loop
      vertex  4.500000e+001  4.045085e+000 -2.938926e+000
      vertex  4.500000e+001 -4.381534e+000 -2.408768e+000
      vertex  4.500000e+001 -4.045085e+000 -2.938926e+000
    endloop
  endfacet
  facet normal  1.000000e+000  -0.000000e+000  0.000000e+000
    outer loop
      vertex  4.500000e+001  4.045085e+000 -2.938926e+000
      vertex  4.500000e+001 -4.045085e+000 -2.938926e+000
      vertex  4.500000e+001  3.644843e+000 -3.422735e+000
    endloop
  endfacet
  facet normal  1.000000e+000  0.000000e+000  0.000000e+000
    outer loop
      vertex  4.500000e+001  3.644843e+000 -3.422735e+000
      vertex  4.500000e+001 -4.045085e+000 -2.938926e+000
      vertex  4.500000e+001 -3.644843e+000 -3.422735e+000
    endloop
  endfacet
  facet normal  9.999999e-001  -0.000000e+000  0.000000e+000
    outer loop
      vertex  4.500000e+001  3.644843e+000 -3.422735e+000
      vertex  4.500000e+001 -3.644843e+000 -3.422735e+000
      vertex  4.500000e+001  3.187120e+000 -3.852566e+000
    endloop
  endfacet
  facet normal  1.000000e+000  0.000000e+000  0.000000e+000
    outer loop
      vertex  4.500000e+001  3.187120e+000 -3.852566e+000
      vertex  4.500000e+001 -3.644843e+000 -3.422735e+000
      vertex  4.500000e+001 -3.187120e+000 -3.852566e+000
    endloop
  endfacet
  facet normal  9.999999e-001  -0.000000e+000  0.000000e+000
    outer loop
      vertex  4.500000e+001  3.187120e+000 -3.852566e+000
      vertex  4.500000e+001 -3.187120e+000 -3.852566e+000
      vertex  4.500000e+001  2.679134e+000 -4.221640e+000
    endloop
  endfacet
  facet normal  9.999999e-001  0.000000e+000  0.000000e+000
    outer loop
      vertex  4.500000e+001  2.679134e+000 -4.221640e+000
      vertex  4.500000e+001 -3.187120e+000 -3.852566e+000
      vertex  4.500000e+001 -2.679134e+000 -4.221640e+000
    endloop
  endfacet
  facet normal  1.000000e+000  -0.000000e+000  0.000000e+000
    outer loop
      vertex  4.500000e+001  2.679134e+000 -4.221640e+000
      vertex  4.500000e+001 -2.679134e+000 -4.221640e+000
      vertex  4.500000e+001  2.128896e+000 -4.524135e+000
    endloop
  endfacet
  facet normal  9.999999e-001  0.000000e+000  0.000000e+000
    outer loop
      vertex  4.500000e+001  2.128896e+000 -4.524135e+000
      vertex  4.500000e+001 -2.679134e+000 -4.221640e+000
      vertex  4.500000e+001 -2.128896e+000 -4.524135e+000
    endloop
  endfacet
  facet normal  9.999999e-001  -0.000000e+000  0.000000e+000
    outer loop
      vertex  4.500000e+001  2.128896e+000 -4.524135e+000
      vertex  4.500000e+001 -2.128896e+000 -4.524135e+000
      vertex  4.500000e+001  1.545085e+000 -4.755282e+000
    endloop
  endfacet
  facet normal  9.999999e-001  0.000000e+000  0.000000e+000
    outer loop
      vertex  4.500000e+001  1.545085e+000 -4.755282e+000
      vertex  4.500000e+001 -2.128896e+000 -4.524135e+000
      vertex  4.500000e+001 -1.545085e+000 -4.755282e+000
    endloop
  endfacet
  facet normal  1.000000e+000  -0.000000e+000  0.000000e+000
    outer loop
      vertex  4.500000e+001  1.545085e+000 -4.755282e+000
      vertex  4.500000e+001 -1.545085e+000 -4.755282e+000
      vertex  4.500000e+001  9.369066e-001 -4.911436e+000
    endloop
  endfacet
  facet normal  1.000000e+000  0.000000e+000  0.000000e+000
    outer loop
      vertex  4.500000e+001  9.369066e-001 -4.911436e+000
      vertex  4.500000e+001 -1.545085e+000 -4.755282e+000
      vertex  4.500000e+001 -9.369066e-001 -4.911436e+000
    endloop
  endfacet
  facet normal  1.000000e+000  -0.000000e+000  0.000000e+000
    outer loop
      vertex  4.500000e+001  9.369066e-001 -4.911436e+000
      vertex  4.500000e+001 -9.369066e-001 -4.911436e+000
      vertex  4.500000e+001  3.139526e-001 -4.990134e+000
    endloop
  endfacet
  facet normal  1.000000e+000  0.000000e+000  0.000000e+000
    outer loop
      vertex  4.500000e+001  3.139526e-001 -4.990134e+000
      vertex  4.500000e+001 -9.369066e-001 -4.911436e+000
      vertex  4.500000e+001 -3.139526e-001 -4.990134e+000
    endloop
  endfacet
  facet normal  0.000000e+000  9.980268e-001 -6.279026e-002
    outer loop
      vertex  4.000000e+001  5.000000e+000  0.000000e+000
      vertex  4.500000e+001  5.000000e+000  0.000000e+000
      vertex  4.000000e+001  4.960574e+000 -6.266662e-001
    endloop
  endfacet
  facet normal  0.000000e+000  9.980268e-001 -6.279026e-002
    outer loop
      vertex  4.000000e+001  4.960574e+000 -6.266662e-001
      vertex  4.500000e+001  5.000000e+000  0.000000e+000
      vertex  4.500000e+001  4.960574e+000 -6.266662e-001
    endloop
  endfacet
  facet normal  0.000000e+000  9.822873e-001 -1.873813e-001
    outer loop
      vertex  4.000000e+001  4.960574e+000 -6.266662e-001
      vertex  4.500000e+001  4.960574e+000 -6.266662e-001
      vertex  4.000000e+001  4.842916e+000 -1.243449e+000
    endloop
  endfacet
  facet normal  0.000000e+000  9.822873e-001 -1.873813e-001
    outer loop
      vertex  4.000000e+001  4.842916e+000 -1.243449e+000
      vertex  4.500000e+001  4.960574e+000 -6.266662e-001
      vertex  4.500000e+001  4.842916e+000 -1.243449e+000
    endloop
  endfacet
  facet normal  0.000000e+000  9.510564e-001 -3.090174e-001
    outer loop
      vertex  4.000000e+001  4.842916e+000 -1.243449e+000
      vertex  4.500000e+001  4.842916e+000 -1.243449e+000
      vertex  4.000000e+001  4.648882e+000 -1.840623e+000
    endloop
  endfacet
  facet normal  0.000000e+000  9.510564e-001 -3.090174e-001
    outer loop
      vertex  4.000000e+001  4.648882e+000 -1.840623e+000
      vertex  4.500000e+001  4.842916e+000 -1.243449e+000
      vertex  4.500000e+001  4.648882e+000 -1.840623e+000
    endloop
  endfacet
  facet normal  0.000000e+000  9.048272e-001 -4.257789e-001
    outer loop
      vertex  4.000000e+001  4.648882e+000 -1.840623e+000
      vertex  4.500000e+001  4.648882e+000 -1.840623e+000
      vertex  4.000000e+001  4.381534e+000 -2.408768e+000
    endloop
  endfacet
  facet normal  0.000000e+000  9.048272e-001 -4.257789e-001
    outer loop
      vertex  4.000000e+001  4.381534e+000 -2.408768e+000
      vertex  4.500000e+001  4.648882e+000 -1.840623e+000
      vertex  4.500000e+001  4.381534e+000 -2.408768e+000
    endloop
  endfacet
  facet normal  0.000000e+000  8.443277e-001 -5.358271e-001
    outer loop
      vertex  4.000000e+001  4.381534e+000 -2.408768e+000
      vertex  4.500000e+001  4.381534e+000 -2.408768e+000
      vertex  4.000000e+001  4.045085e+000 -2.938926e+000
    endloop
  endfacet
  facet normal  0.000000e+000  8.443277e-001 -5.358271e-001
    outer loop
      vertex  4.000000e+001  4.045085e+000 -2.938926e+000
      vertex  4.500000e+001  4.381534e+000 -2.408768e+000
      vertex  4.500000e+001  4.045085e+000 -2.938926e+000
    endloop
  endfacet
  facet normal  0.000000e+000  7.705132e-001 -6.374241e-001
    outer loop
      vertex  4.000000e+001  4.045085e+000 -2.938926e+000
      vertex  4.500000e+001  4.045085e+000 -2.938926e+000
      vertex  4.000000e+001  3.644843e+000 -3.422735e+000
    endloop
  endfacet
  facet normal  0.000000e+000  7.705132e-001 -6.374241e-001
    outer loop
      vertex  4.000000e+001  3.644843e+000 -3.422735e+000
      vertex  4.500000e+001  4.045085e+000 -2.938926e+000
      vertex  4.500000e+001  3.644843e+000 -3.422735e+000
    endloop
  endfacet
  facet normal  0.000000e+000  6.845472e-001 -7.289686e-001
    outer loop
      vertex  4.000000e+001  3.644843e+000 -3.422735e+000
      vertex  4.500000e+001  3.644843e+000 -3.422735e+000
      vertex  4.000000e+001  3.187120e+000 -3.852566e+000
    endloop
  endfacet
  facet normal  0.000000e+000  6.845472e-001 -7.289686e-001
    outer loop
      vertex  4.000000e+001  3.187120e+000 -3.852566e+000
      vertex  4.500000e+001  3.644843e+000 -3.422735e+000
      vertex  4.500000e+001  3.187120e+000 -3.852566e+000
    endloop
  endfacet
  facet normal  0.000000e+000  5.877851e-001 -8.090171e-001
    outer loop
      vertex  4.000000e+001  3.187120e+000 -3.852566e+000
      vertex  4.500000e+001  3.187120e+000 -3.852566e+000
      vertex  4.000000e+001  2.679134e+000 -4.221640e+000
    endloop
  endfacet
  facet normal  0.000000e+000  5.877851e-001 -8.090171e-001
    outer loop
      vertex  4.000000e+001  2.679134e+000 -4.221640e+000
      vertex  4.500000e+001  3.187120e+000 -3.852566e+000
      vertex  4.500000e+001  2.679134e+000 -4.221640e+000
    endloop
  endfacet
  facet normal  0.000000e+000  4.817536e-001 -8.763068e-001
    outer loop
      vertex  4.000000e+001  2.679134e+000 -4.221640e+000
      vertex  4.500000e+001  2.679134e+000 -4.221640e+000
      vertex  4.000000e+001  2.128896e+000 -4.524135e+000
    endloop
  endfacet
  facet normal  0.000000e+000  4.817536e-001 -8.763068e-001
    outer loop
      vertex  4.000000e+001  2.128896e+000 -4.524135e+000
      vertex  4.500000e+001  2.679134e+000 -4.221640e+000
      vertex  4.500000e+001  2.128896e+000 -4.524135e+000
    endloop
  endfacet
  facet normal  0.000000e+000  3.681245e-001 -9.297765e-001
    outer loop
      vertex  4.000000e+001  2.128896e+000 -4.524135e+000
      vertex  4.500000e+001  2.128896e+000 -4.524135e+000
      vertex  4.000000e+001  1.545085e+000 -4.755282e+000
    endloop
  endfacet
  facet normal  0.000000e+000  3.681245e-001 -9.297765e-001
    outer loop
      vertex  4.000000e+001  1.545085e+000 -4.755282e+000
      vertex  4.500000e+001  2.128896e+000 -4.524135e+000
      vertex  4.500000e+001  1.545085e+000 -4.755282e+000
    endloop
  endfacet
  facet normal  0.000000e+000  2.486899e-001 -9.685832e-001
    outer loop
      vertex  4.000000e+001  1.545085e+000 -4.755282e+000
      vertex  4.500000e+001  1.545085e+000 -4.755282e+000
      vertex  4.000000e+001  9.369066e-001 -4.911436e+000
    endloop
  endfacet
  facet normal  0.000000e+000  2.486899e-001 -9.685832e-001
    outer loop
      vertex  4.000000e+001  9.369066e-001 -4.911436e+000
      vertex  4.500000e+001  1.545085e+000 -4.755282e+000
      vertex  4.500000e+001  9.369066e-001 -4.911436e+000
    endloop
  endfacet
  facet normal  0.000000e+000  1.253337e-001 -9.921147e-001
    outer loop
      vertex  4.000000e+001  9.369066e-001 -4.911436e+000
      vertex  4.500000e+001  9.369066e-001 -4.911436e+000
      vertex  4.000000e+001  3.139526e-001 -4.990134e+000
    endloop
  endfacet
  facet normal  0.000000e+000  1.253337e-001 -9.921147e-001
    outer loop
      vertex  4.000000e+001  3.139526e-001 -4.990134e+000
      vertex  4.500000e+001  9.369066e-001 -4.911436e+000
      vertex  4.500000e+001  3.139526e-001 -4.990134e+000
    endloop
  endfacet
  facet normal  -0.000000e+000  0.000000e+000 -1.000000e+000
    outer loop
      vertex  4.000000e+001  3.139526e-001 -4.990134e+000
      vertex  4.500000e+001  3.139526e-001 -4.990134e+000
      vertex  4.000000e+001 -3.139526e-001 -4.990134e+000
    endloop
  endfacet
  facet normal  0.000000e+000  0.000000e+000 -1.000000e+000
    outer loop
      vertex  4.000000e+001 -3.139526e-001 -4.990134e+000
      vertex  4.500000e+001  3.139526e-001 -4.990134e+000
      vertex  4.500000e+001 -3.139526e-001 -4.990134e+000
    endloop
  endfacet
  facet normal  -0.000000e+000 -1.253337e-001 -9.921147e-001
    outer loop
      vertex  4.000000e+001 -3.139526e-001 -4.990134e+000
      vertex  4.500000e+001 -3.139526e-001 -4.990134e+000
      vertex  4.000000e+001 -9.369066e-001 -4.911436e+000
    endloop
  endfacet
  facet normal  0.000000e+000 -1.253337e-001 -9.921147e-001
    outer loop
      vertex  4.000000e+001 -9.369066e-001 -4.911436e+000
      vertex  4.500000e+001 -3.139526e-001 -4.990134e+000
      vertex  4.500000e+001 -9.369066e-001 -4.911436e+000
    endloop
  endfacet
  facet normal  -0.000000e+000 -2.486899e-001 -9.685832e-001
    outer loop
      vertex  4.000000e+001 -9.369066e-001 -4.911436e+000
      vertex  4.500000e+001 -9.369066e-001 -4.911436e+000
      vertex  4.000000e+001 -1.545085e+000 -4.755282e+000
    endloop
  endfacet
  facet normal  0.000000e+000 -2.486899e-001 -9.685832e-001
    outer loop
      vertex  4.000000e+001 -1.545085e+000 -4.755282e+000
      vertex  4.500000e+001 -9.369066e-001 -4.911436e+000
      vertex  4.500000e+001 -1.545085e+000 -4.755282e+000
    endloop
  endfacet
  facet normal  -0.000000e+000 -3.681245e-001 -9.297765e-001
    outer loop
      vertex  4.000000e+001 -1.545085e+000 -4.755282e+000
      vertex  4.500000e+001 -1.545085e+000 -4.755282e+000
      vertex  4.000000e+001 -2.128896e+000 -4.524135e+000
    endloop
  endfacet
  facet normal  0.000000e+000 -3.681245e-001 -9.297765e-001
    outer loop
      vertex  4.000000e+001 -2.128896e+000 -4.524135e+000
      vertex  4.500000e+001 -1.545085e+000 -4.755282e+000
      vertex  4.500000e+001 -2.128896e+000 -4.524135e+000
    endloop
  endfacet
  facet normal  -0.000000e+000 -4.817536e-001 -8.763068e-001
    outer loop
      vertex  4.000000e+001 -2.128896e+000 -4.524135e+000
      vertex  4.500000e+001 -2.128896e+000 -4.524135e+000
      vertex  4.000000e+001 -2.679134e+000 -4.221640e+000
    endloop
  endfacet
  facet normal  0.000000e+000 -4.817536e-001 -8.763068e-001
    outer loop
      vertex  4.000000e+001 -2.679134e+000 -4.221640e+000
      vertex  4.500000e+001 -2.128896e+000 -4.524135e+000
      vertex  4.500000e+001 -2.679134e+000 -4.221640e+000
    endloop
  endfacet
  facet normal  -0.000000e+000 -5.877851e-001 -8.090171e-001
    outer loop
      vertex  4.000000e+001 -2.679134e+000 -4.221640e+000
      vertex  4.500000e+001 -2.679134e+000 -4.221640e+000
      vertex  4.000000e+001 -3.187120e+000 -3.852566e+000
    endloop
  endfacet
  facet normal  0.000000e+000 -5.877851e-001 -8.090171e-001
    outer loop
      vertex  4.000000e+001 -3.187120e+000 -3.852566e+000
      vertex  4.500000e+001 -2.679134e+000 -4.221640e+000
      vertex  4.500000e+001 -3.187120e+000 -3.852566e+000
    endloop
  endfacet
  facet normal  -0.000000e+000 -6.845472e-001 -7.289686e-001
    outer loop
      vertex  4.000000e+001 -3.187120e+000 -3.852566e+000
      vertex  4.500000e+001 -3.187120e+000 -3.852566e+000
      vertex  4.000000e+001 -3.644843e+000 -3.422735e+000
    endloop
  endfacet
  facet normal  0.000000e+000 -6.845472e-001 -7.289686e-001
    outer loop
      vertex  4.000000e+001 -3.644843e+000 -3.422735e+000
      vertex  4.500000e+001 -3.187120e+000 -3.852566e+000
      vertex  4.500000e+001 -3.644843e+000 -3.422735e+000
    endloop
  endfacet
  facet normal  -0.000000e+000 -7.705132e-001 -6.374241e-001
    outer loop
      vertex  4.000000e+001 -3.644843e+000 -3.422735e+000
      vertex  4.500000e+001 -3.644843e+000 -3.422735e+000
      vertex  4.000000e+001 -4.045085e+000 -2.938926e+000
    endloop
  endfacet
  facet normal  0.000000e+000 -7.705132e-001 -6.374241e-001
    outer loop
      vertex  4.000000e+001 -4.045085e+000 -2.938926e+000
      vertex  4.500000e+001 -3.644843e+000 -3.422735e+000
      vertex  4.500000e+001 -4.045085e+000 -2.938926e+000
    endloop
  endfacet
  facet normal  -0.000000e+000 -8.443277e-001 -5.358271e-001
    outer loop
      vertex  4.000000e+001 -4.045085e+000 -2.938926e+000
      vertex  4.500000e+001 -4.045085e+000 -2.938926e+000
      vertex  4.000000e+001 -4.381534e+000 -2.408768e+000
    endloop
  endfacet
  facet normal  0.000000e+000 -8.443277e-001 -5.358271e-001
    outer loop
      vertex  4.000000e+001 -4.381534e+000 -2.408768e+000
      vertex  4.500000e+001 -4.045085e+000 -2.938926e+000
      vertex  4.500000e+001 -4.381534e+000 -2.408768e+000
    endloop
  endfacet
  facet normal  -0.000000e+000 -9.048272e-001 -4.257789e-001
    outer loop
      vertex  4.000000e+001 -4.381534e+000 -2.408768e+000
      vertex  4.500000e+001 -4.381534e+000 -2.408768e+000
      vertex  4.000000e+001 -4.648882e+000 -1.840623e+000
    endloop
  endfacet
  facet normal  0.000000e+000 -9.048272e-001 -4.257789e-001
    outer loop
      vertex  4.000000e+001 -4.648882e+000 -1.840623e+000
      vertex  4.500000e+001 -4.381534e+000 -2.408768e+000
      vertex  4.500000e+001 -4.648882e+000 -1.840623e+000
    endloop
  endfacet
  facet normal  -0.000000e+000 -9.510564e-001 -3.090174e-001
    outer loop
      vertex  4.000000e+001 -4.648882e+000 -1.840623e+000
      vertex  4.500000e+001 -4.648882e+000 -1.840623e+000
      vertex  4.000000e+001 -4.842916e+000 -1.243449e+000
    endloop
  endfacet
  facet normal  0.000000e+000 -9.510564e-001 -3.090174e-001
    outer loop
      vertex  4.000000e+001 -4.842916e+000 -1.243449e+000
      vertex  4.500000e+001 -4.648882e+000 -1.840623e+000
      vertex  4.500000e+001 -4.842916e+000 -1.243449e+000
    endloop
  endfacet
  facet normal  -0.000000e+000 -9.822873e-001 -1.873813e-001
    outer loop
      vertex  4.000000e+001 -4.842916e+000 -1.243449e+000
      vertex  4.500000e+001 -4.842916e+000 -1.243449e+000
      vertex  4.000000e+001 -4.960574e+000 -6.266662e-001
    endloop
  endfacet
  facet normal  0.000000e+000 -9.822873e-001 -1.873813e-001
    outer loop
      vertex  4.000000e+001 -4.960574e+000 -6.266662e-001
      vertex  4.500000e+001 -4.842916e+000 -1.243449e+000
      vertex  4.500000e+001 -4.960574e+000 -6.266662e-001
    endloop
  endfacet
  facet normal  -0.000000e+000 -9.980268e-001 -6.279026e-002
    outer loop
      vertex  4.000000e+001 -4.960574e+000 -6.266662e-001
      vertex  4.500000e+001 -4.960574e+000 -6.266662e-001
      vertex  4.000000e+001 -5.000000e+000  6.123032e-016
    endloop
  endfacet
  facet normal  0.000000e+000 -9.980268e-001 -6.279026e-002
    outer loop
      vertex  4.000000e+001 -5.000000e+000  6.123032e-016
      vertex  4.500000e+001 -4.960574e+000 -6.266662e-001
      vertex  4.500000e+001 -5.000000e+000  6.123032e-016
    endloop
  endfacet
  facet normal  0.000000e+000 -9.980268e-001  6.279026e-002
    outer loop
      vertex  4.000000e+001 -5.000000e+000  6.123032e-016
      vertex  4.500000e+001 -5.000000e+000  6.123032e-016
      vertex  4.000000e+001 -4.960574e+000  6.266662e-001
    endloop
  endfacet
  facet normal  0.000000e+000 -9.980268e-001  6.279026e-002
    outer loop
      vertex  4.000000e+001 -4.960574e+000  6.266662e-001
      vertex  4.500000e+001 -5.000000e+000  6.123032e-016
      vertex  4.500000e+001 -4.960574e+000  6.266662e-001
    endloop
  endfacet
  facet normal  0.000000e+000 -9.822873e-001  1.873813e-001
    outer loop
      vertex  4.000000e+001 -4.960574e+000  6.266662e-001
      vertex  4.500000e+001 -4.960574e+000  6.266662e-001
      vertex  4.000000e+001 -4.842916e+000  1.243449e+000
    endloop
  endfacet
  facet normal  0.000000e+000 -9.822873e-001  1.873813e-001
    outer loop
      vertex  4.000000e+001 -4.842916e+000  1.243449e+000
      vertex  4.500000e+001 -4.960574e+000  6.266662e-001
      vertex  4.500000e+001 -4.842916e+000  1.243449e+000
    endloop
  endfacet
  facet normal  0.000000e+000 -9.510564e-001  3.090174e-001
    outer loop
      vertex  4.000000e+001 -4.842916e+000  1.243449e+000
      vertex  4.500000e+001 -4.842916e+000  1.243449e+000
      vertex  4.000000e+001 -4.648882e+000  1.840623e+000
    endloop
  endfacet
  facet normal  0.000000e+000 -9.510564e-001  3.090174e-001
    outer loop
      vertex  4.000000e+001 -4.648882e+000  1.840623e+000
      vertex  4.500000e+001 -4.842916e+000  1.243449e+000
      vertex  4.500000e+001 -4.648882e+000  1.840623e+000
    endloop
  endfacet
  facet normal  0.000000e+000 -9.048272e-001  4.257789e-001
    outer loop
      vertex  4.000000e+001 -4.648882e+000  1.840623e+000
      vertex  4.500000e+001 -4.648882e+000  1.840623e+000
      vertex  4.000000e+001 -4.381534e+000  2.408768e+000
    endloop
  endfacet
  facet normal  0.000000e+000 -9.048272e-001  4.257789e-001
    outer loop
      vertex  4.000000e+001 -4.381534e+000  2.408768e+000
      vertex  4.500000e+001 -4.648882e+000  1.840623e+000
      vertex  4.500000e+001 -4.381534e+000  2.408768e+000
    endloop
  endfacet
  facet normal  0.000000e+000 -8.443277e-001  5.358271e-001
    outer loop
      vertex  4.000000e+001 -4.381534e+000  2.408768e+000
      vertex  4.500000e+001 -4.381534e+000  2.408768e+000
      vertex  4.000000e+001 -4.045085e+000  2.938926e+000
    endloop
  endfacet
  facet normal  0.000000e+000 -8.443277e-001  5.358271e-001
    outer loop
      vertex  4.000000e+001 -4.045085e+000  2.938926e+000
      vertex  4.500000e+001 -4.381534e+000  2.408768e+000
      vertex  4.500000e+001 -4.045085e+000  2.938926e+000
    endloop
  endfacet
  facet normal  0.000000e+000 -7.705132e-001  6.374241e-001
    outer loop
      vertex  4.000000e+001 -4.045085e+000  2.938926e+000
      vertex  4.500000e+001 -4.045085e+000  2.938926e+000
      vertex  4.000000e+001 -3.644843e+000  3.422735e+000
    endloop
  endfacet
  facet normal  0.000000e+000 -7.705132e-001  6.374241e-001
    outer loop
      vertex  4.000000e+001 -3.644843e+000  3.422735e+000
      vertex  4.500000e+001 -4.045085e+000  2.938926e+000
      vertex  4.500000e+001 -3.644843e+000  3.422735e+000
    endloop
  endfacet
  facet normal  0.000000e+000 -6.845472e-001  7.289686e-001
    outer loop
      vertex  4.000000e+001 -3.644843e+000  3.422735e+000
      vertex  4.500000e+001 -3.644843e+000  3.422735e+000
      vertex  4.000000e+001 -3.187120e+000  3.852566e+000
    endloop
  endfacet
  facet normal  0.000000e+000 -6.845472e-001  7.289686e-001
    outer loop
      vertex  4.000000e+001 -3.187120e+000  3.852566e+000
      vertex  4.500000e+001 -3.644843e+000  3.422735e+000
      vertex  4.500000e+001 -3.187120e+000  3.852566e+000
    endloop
  endfacet
  facet normal  0.000000e+000 -5.877851e-001  8.090171e-001
    outer loop
      vertex  4.000000e+001 -3.187120e+000  3.852566e+000
      vertex  4.500000e+001 -3.187120e+000  3.852566e+000
      vertex  4.000000e+001 -2.679134e+000  4.221640e+000
    endloop
  endfacet
  facet normal  0.000000e+000 -5.877851e-001  8.090171e-001
    outer loop
      vertex  4.000000e+001 -2.679134e+000  4.221640e+000
      vertex  4.500000e+001 -3.187120e+000  3.852566e+000
      vertex  4.500000e+001 -2.679134e+000  4.221640e+000
    endloop
  endfacet
  facet normal  0.000000e+000 -4.817536e-001  8.763068e-001
    outer loop
      vertex  4.000000e+001 -2.679134e+000  4.221640e+000
      vertex  4.500000e+001 -2.679134e+000  4.221640e+000
      vertex  4.000000e+001 -2.128896e+000  4.524135e+000
    endloop
  endfacet
  facet normal  0.000000e+000 -4.817536e-001  8.763068e-001
    outer loop
      vertex  4.000000e+001 -2.128896e+000  4.524135e+000
      vertex  4.500000e+001 -2.679134e+000  4.221640e+000
      vertex  4.500000e+001 -2.128896e+000  4.524135e+000
    endloop
  endfacet
  facet normal  0.000000e+000 -3.681245e-001  9.297765e-001
    outer loop
      vertex  4.000000e+001 -2.128896e+000  4.524135e+000
      vertex  4.500000e+001 -2.128896e+000  4.524135e+000
      vertex  4.000000e+001 -1.545085e+000  4.755282e+000
    endloop
  endfacet
  facet normal  0.000000e+000 -3.681245e-001  9.297765e-001
    outer loop
      vertex  4.000000e+001 -1.545085e+000  4.755282e+000
      vertex  4.500000e+001 -2.128896e+000  4.524135e+000
      vertex  4.500000e+001 -1.545085e+000  4.755282e+000
    endloop
  endfacet
  facet normal  0.000000e+000 -2.486899e-001  9.685832e-001
    outer loop
      vertex  4.000000e+001 -1.545085e+000  4.755282e+000
      vertex  4.500000e+001 -1.545085e+000  4.755282e+000
      vertex  4.000000e+001 -9.369066e-001  4.911436e+000
    endloop
  endfacet
  facet normal  0.000000e+000 -2.486899e-001  9.685832e-001
    outer loop
      vertex  4.000000e+001 -9.369066e-001  4.911436e+000
      vertex  4.500000e+001 -1.545085e+000  4.755282e+000
      vertex  4.500000e+001 -9.369066e-001  4.911436e+000
    endloop
  endfacet
  facet normal  0.000000e+000 -1.253337e-001  9.921147e-001
    outer loop
      vertex  4.000000e+001 -9.369066e-001  4.911436e+000
      vertex  4.500000e+001 -9.369066e-001  4.911436e+000
      vertex  4.000000e+001 -3.139526e-001  4.990134e+000
    endloop
  endfacet
  facet normal  0.000000e+000 -1.253337e-001  9.921147e-001
    outer loop
      vertex  4.000000e+001 -3.139526e-001  4.990134e+000
      vertex  4.500000e+001 -9.369066e-001  4.911436e+000
      vertex  4.500000e+001 -3.139526e-001  4.990134e+000
    endloop
  endfacet
  facet normal  0.000000e+000  0.000000e+000  1.000000e+000
    outer loop
      vertex  4.000000e+001 -3.139526e-001  4.990134e+000
      vertex  4.500000e+001 -3.139526e-001  4.990134e+000
      vertex  4.000000e+001  3.139526e-001  4.990134e+000
    endloop
  endfacet
  facet normal  -0.000000e+000  0.000000e+000  1.000000e+000
    outer loop
      vertex  4.000000e+001  3.139526e-001  4.990134e+000
      vertex  4.500000e+001 -3.139526e-001  4.990134e+000
      vertex  4.500000e+001  3.139526e-001  4.990134e+000
    endloop
  endfacet
  facet normal  0.000000e+000  1.253337e-001  9.921147e-001
    outer loop
      vertex  4.000000e+001  3.139526e-001  4.990134e+000
      vertex  4.500000e+001  3.139526e-001  4.990134e+000
      vertex  4.000000e+001  9.369066e-001  4.911436e+000
    endloop
  endfacet
  facet normal  -0.000000e+000  1.253337e-001  9.921147e-001
    outer loop
      vertex  4.000000e+001  9.369066e-001  4.911436e+000
      vertex  4.500000e+001  3.139526e-001  4.990134e+000
      vertex  4.500000e+001  9.369066e-001  4.911436e+000
    endloop
  endfacet
  facet normal  0.000000e+000  2.486899e-001  9.685832e-001
    outer loop
      vertex  4.000000e+001  9.369066e-001  4.911436e+000
      vertex  4.500000e+001  9.369066e-001  4.911436e+000
      vertex  4.000000e+001  1.545085e+000  4.755282e+000
    endloop
  endfacet
  facet normal  -0.000000e+000  2.486899e-001  9.685832e-001
    outer loop
      vertex  4.000000e+001  1.545085e+000  4.755282e+000
      vertex  4.500000e+001  9.369066e-001  4.911436e+000
      vertex  4.500000e+001  1.545085e+000  4.755282e+000
    endloop
  endfacet
  facet normal  0.000000e+000  3.681245e-001  9.297765e-001
    outer loop
      vertex  4.000000e+001  1.545085e+000  4.755282e+000
      vertex  4.500000e+001  1.545085e+000  4.755282e+000
      vertex  4.000000e+001  2.128896e+000  4.524135e+000
    endloop
  endfacet
  facet normal  -0.000000e+000  3.681245e-001  9.297765e-001
    outer loop
      vertex  4.000000e+001  2.128896e+000  4.524135e+000
      vertex  4.500000e+001  1.545085e+000  4.755282e+000
      vertex  4.500000e+001  2.128896e+000  4.524135e+000
    endloop
  endfacet
  facet normal  0.000000e+000  4.817536e-001  8.763068e-001
    outer loop
      vertex  4.000000e+001  2.128896e+000  4.524135e+000
      vertex  4.500000e+001  2.128896e+000  4.524135e+000
      vertex  4.000000e+001  2.679134e+000  4.221640e+000
    endloop
  endfacet
  facet normal  -0.000000e+000  4.817536e-001  8.763068e-001
    outer loop
      vertex  4.000000e+001  2.679134e+000  4.221640e+000
      vertex  4.500000e+001  2.128896e+000  4.524135e+000
      vertex  4.500000e+001  2.679134e+000  4.221640e+000
    endloop
  endfacet
  facet normal  0.000000e+000  5.877851e-001  8.090171e-001
    outer loop
      vertex  4.000000e+001  2.679134e+000  4.221640e+000
      vertex  4.500000e+001  2.679134e+000  4.221640e+000
      vertex  4.000000e+001  3.187120e+000  3.852566e+000
    endloop
  endfacet
  facet normal  -0.000000e+000  5.877851e-001  8.090171e-001
    outer loop
      vertex  4.000000e+001  3.187120e+000  3.852566e+000
      vertex  4.500000e+001  2.679134e+000  4.221640e+000
      vertex  4.500000e+001  3.187120e+000  3.852566e+000
    endloop
  endfacet
  facet normal  0.000000e+000  6.845472e-001  7.289686e-001
    outer loop
      vertex  4.000000e+001  3.187120e+000  3.852566e+000
      vertex  4.500000e+001  3.187120e+000  3.852566e+000
      vertex  4.000000e+001  3.644843e+000  3.422735e+000
    endloop
  endfacet
  facet normal  -0.000000e+000  6.845472e-001  7.289686e-001
    outer loop
      vertex  4.000000e+001  3.644843e+000  3.422735e+000
      vertex  4.500000e+001  3.187120e+000  3.852566e+000
      vertex  4.500000e+001  3.644843e+000  3.422735e+000
    endloop
  endfacet
  facet normal  0.000000e+000  7.705132e-001  6.374241e-001
    outer loop
      vertex  4.000000e+001  3.644843e+000  3.422735e+000
      vertex  4.500000e+001  3.644843e+000  3.422735e+000
      vertex  4.000000e+001  4.045085e+000  2.938926e+000
    endloop
  endfacet
  facet normal  -0.000000e+000  7.705132e-001  6.374241e-001
    outer loop
      vertex  4.000000e+001  4.045085e+000  2.938926e+000
      vertex  4.500000e+001  3.644843e+000  3.422735e+000
      vertex  4.500000e+001  4.045085e+000  2.938926e+000
    endloop
  endfacet
  facet normal  0.000000e+000  8.443277e-001  5.358271e-001
    outer loop
      vertex  4.000000e+001  4.045085e+000  2.938926e+000
      vertex  4.500000e+001  4.045085e+000  2.938926e+000
      vertex  4.000000e+001  4.381534e+000  2.408768e+000
    endloop
  endfacet
  facet normal  -0.000000e+000  8.443277e-001  5.358271e-001
    outer loop
      vertex  4.000000e+001  4.381534e+000  2.408768e+000
      vertex  4.500000e+001  4.045085e+000  2.938926e+000
      vertex  4.500000e+001  4.381534e+000  2.408768e+000
    endloop
  endfacet
  facet normal  0.000000e+000  9.048272e-001  4.257789e-001
    outer loop
      vertex  4.000000e+001  4.381534e+000  2.408768e+000
      vertex  4.500000e+001  4.381534e+000  2.408768e+000
      vertex  4.000000e+001  4.648882e+000  1.840623e+000
    endloop
  endfacet
  facet normal  -0.000000e+000  9.048272e-001  4.257789e-001
    outer loop
      vertex  4.000000e+001  4.648882e+000  1.840623e+000
      vertex  4.500000e+001  4.381534e+000  2.408768e+000
      vertex  4.500000e+001  4.648882e+000  1.840623e+000
    endloop
  endfacet
  facet normal  0.000000e+000  9.510564e-001  3.090174e-001
    outer loop
      vertex  4.000000e+001  4.648882e+000  1.840623e+000
      vertex  4.500000e+001  4.648882e+000  1.840623e+000
      vertex  4.000000e+001  4.842916e+000  1.243449e+000
    endloop
  endfacet
  facet normal  -0.000000e+000  9.510564e-001  3.090174e-001
    outer loop
      vertex  4.000000e+001  4.842916e+000  1.243449e+000
      vertex  4.500000e+001  4.648882e+000  1.840623e+000
      vertex  4.500000e+001  4.842916e+000  1.243449e+000
    endloop
  endfacet
  facet normal  0.000000e+000  9.822873e-001  1.873813e-001
    outer loop
      vertex  4.000000e+001  4.842916e+000  1.243449e+000
      vertex  4.500000e+001  4.842916e+000  1.243449e+000
      vertex  4.000000e+001  4.960574e+000  6.266662e-001
    endloop
  endfacet
  facet normal  -0.000000e+000  9.822873e-001  1.873813e-001
    outer loop
      vertex  4.000000e+001  4.960574e+000  6.266662e-001
      vertex  4.500000e+001  4.842916e+000  1.243449e+000
      vertex  4.500000e+001  4.960574e+000  6.266662e-001
    endloop
  endfacet
  facet normal  0.000000e+000  9.980268e-001  6.279026e-002
    outer loop
      vertex  4.000000e+001  4.960574e+000  6.266662e-001
      vertex  4.500000e+001  4.960574e+000  6.266662e-001
      vertex  4.000000e+001  5.000000e+000  0.000000e+000
    endloop
  endfacet
  facet normal  -0.000000e+000  9.980268e-001  6.279026e-002
    outer loop
      vertex  4.000000e+001  5.000000e+000  0.000000e+000
      vertex  4.500000e+001  4.960574e+000  6.266662e-001
      vertex  4.500000e+001  5.000000e+000  0.000000e+000
    endloop
  endfacet
  facet normal -1.000000e+000  0.000000e+000  0.000000e+000
    outer loop
      vertex  0.000000e+000  2.100000e+000  0.000000e+000
      vertex  0.000000e+000 -2.064244e+000  3.858740e-001
      vertex  0.000000e+000  2.064244e+000  3.858740e-001
    endloop
  endfacet
  facet normal -1.000000e+000  0.000000e+000  0.000000e+000
    outer loop
      vertex  0.000000e+000  2.064244e+000  3.858740e-001
      vertex  0.000000e+000 -2.064244e+000  3.858740e-001
      vertex  0.000000e+000 -1.958192e+000  7.586075e-001
    endloop
  endfacet
  facet normal -1.000000e+000  0.000000e+000  0.000000e+000
    outer loop
      vertex  0.000000e+000  2.064244e+000  3.858740e-001
      vertex  0.000000e+000 -1.958192e+000  7.586075e-001
      vertex  0.000000e+000  1.958192e+000  7.586075e-001
    endloop
  endfacet
  facet normal -1.000000e+000  0.000000e+000  0.000000e+000
    outer loop
      vertex  0.000000e+000  1.958192e+000  7.586075e-001
      vertex  0.000000e+000 -1.958192e+000  7.586075e-001
      vertex  0.000000e+000 -1.785456e+000  1.105507e+000
    endloop
  endfacet
  facet normal -1.000000e+000  0.000000e+000  0.000000e+000
    outer loop
      vertex  0.000000e+000  1.958192e+000  7.586075e-001
      vertex  0.000000e+000 -1.785456e+000  1.105507e+000
      vertex  0.000000e+000  1.785456e+000  1.105507e+000
    endloop
  endfacet
  facet normal -1.000000e+000  0.000000e+000  0.000000e+000
    outer loop
      vertex  0.000000e+000  1.785456e+000  1.105507e+000
      vertex  0.000000e+000 -1.785456e+000  1.105507e+000
      vertex  0.000000e+000 -1.551919e+000  1.414761e+000
    endloop
  endfacet
  facet normal -1.000000e+000  0.000000e+000  0.000000e+000
    outer loop
      vertex  0.000000e+000  1.785456e+000  1.105507e+000
      vertex  0.000000e+000 -1.551919e+000  1.414761e+000
      vertex  0.000000e+000  1.551919e+000  1.414761e+000
    endloop
  endfacet
  facet normal -1.000000e+000  0.000000e+000  0.000000e+000
    outer loop
      vertex  0.000000e+000  1.551919e+000  1.414761e+000
      vertex  0.000000e+000 -1.551919e+000  1.414761e+000
      vertex  0.000000e+000 -1.265533e+000  1.675836e+000
    endloop
  endfacet
  facet normal -1.000000e+000  0.000000e+000  0.000000e+000
    outer loop
      vertex  0.000000e+000  1.551919e+000  1.414761e+000
      vertex  0.000000e+000 -1.265533e+000  1.675836e+000
      vertex  0.000000e+000  1.265533e+000  1.675836e+000
    endloop
  endfacet
  facet normal -1.000000e+000  0.000000e+000  0.000000e+000
    outer loop
      vertex  0.000000e+000  1.265533e+000  1.675836e+000
      vertex  0.000000e+000 -1.265533e+000  1.675836e+000
      vertex  0.000000e+000 -9.360505e-001  1.879843e+000
    endloop
  endfacet
  facet normal -9.999999e-001  0.000000e+000  0.000000e+000
    outer loop
      vertex  0.000000e+000  1.265533e+000  1.675836e+000
      vertex  0.000000e+000 -9.360505e-001  1.879843e+000
      vertex  0.000000e+000  9.360505e-001  1.879843e+000
    endloop
  endfacet
  facet normal -1.000000e+000  0.000000e+000  0.000000e+000
    outer loop
      vertex  0.000000e+000  9.360505e-001  1.879843e+000
      vertex  0.000000e+000 -9.360505e-001  1.879843e+000
      vertex  0.000000e+000 -5.746923e-001  2.019834e+000
    endloop
  endfacet
  facet normal -1.000000e+000  0.000000e+000  0.000000e+000
    outer loop
      vertex  0.000000e+000  9.360505e-001  1.879843e+000
      vertex  0.000000e+000 -5.746923e-001  2.019834e+000
      vertex  0.000000e+000  5.746923e-001  2.019834e+000
    endloop
  endfacet
  facet normal -1.000000e+000  0.000000e+000  0.000000e+000
    outer loop
      vertex  0.000000e+000  5.746923e-001  2.019834e+000
      vertex  0.000000e+000 -5.746923e-001  2.019834e+000
      vertex  0.000000e+000 -1.937636e-001  2.091042e+000
    endloop
  endfacet
  facet normal -1.000000e+000  0.000000e+000  0.000000e+000
    outer loop
      vertex  0.000000e+000  5.746923e-001  2.019834e+000
      vertex  0.000000e+000 -1.937636e-001  2.091042e+000
      vertex  0.000000e+000  1.937636e-001  2.091042e+000
    endloop
  endfacet
  facet normal -1.000000e+000  0.000000e+000  0.000000e+000
    outer loop
      vertex  0.000000e+000 -2.064244e+000  3.858740e-001
      vertex  0.000000e+000  2.100000e+000  0.000000e+000
      vertex  0.000000e+000 -2.100000e+000  2.571673e-016
    endloop
  endfacet
  facet normal -1.000000e+000  0.000000e+000  0.000000e+000
    outer loop
      vertex  0.000000e+000 -2.100000e+000  2.571673e-016
      vertex  0.000000e+000  2.100000e+000  0.000000e+000
      vertex  0.000000e+000  2.064244e+000 -3.858740e-001
    endloop
  endfacet
  facet normal -1.000000e+000  0.000000e+000  0.000000e+000
    outer loop
      vertex  0.000000e+000 -2.100000e+000  2.571673e-016
      vertex  0.000000e+000  2.064244e+000 -3.858740e-001
      vertex  0.000000e+000 -2.064244e+000 -3.858740e-001
    endloop
  endfacet
  facet normal -1.000000e+000  0.000000e+000  0.000000e+000
    outer loop
      vertex  0.000000e+000 -2.064244e+000 -3.858740e-001
      vertex  0.000000e+000  2.064244e+000 -3.858740e-001
      vertex  0.000000e+000  1.958192e+000 -7.586075e-001
    endloop
  endfacet
  facet normal -1.000000e+000  0.000000e+000  0.000000e+000
    outer loop
      vertex  0.000000e+000 -2.064244e+000 -3.858740e-001
      vertex  0.000000e+000  1.958192e+000 -7.586075e-001
      vertex  0.000000e+000 -1.958192e+000 -7.586075e-001
    endloop
  endfacet
  facet normal -1.000000e+000  0.000000e+000  0.000000e+000
    outer loop
      vertex  0.000000e+000 -1.958192e+000 -7.586075e-001
      vertex  0.000000e+000  1.958192e+000 -7.586075e-001
      vertex  0.000000e+000  1.785456e+000 -1.105507e+000
    endloop
  endfacet
  facet normal -1.000000e+000  0.000000e+000  0.000000e+000
    outer loop
      vertex  0.000000e+000 -1.958192e+000 -7.586075e-001
      vertex  0.000000e+000  1.785456e+000 -1.105507e+000
      vertex  0.000000e+000 -1.785456e+000 -1.105507e+000
    endloop
  endfacet
  facet normal -1.000000e+000  0.000000e+000  0.000000e+000
    outer loop
      vertex  0.000000e+000 -1.785456e+000 -1.105507e+000
      vertex  0.000000e+000  1.785456e+000 -1.105507e+000
      vertex  0.000000e+000  1.551919e+000 -1.414761e+000
    endloop
  endfacet
  facet normal -1.000000e+000  0.000000e+000  0.000000e+000
    outer loop
      vertex  0.000000e+000 -1.785456e+000 -1.105507e+000
      vertex  0.000000e+000  1.551919e+000 -1.414761e+000
      vertex  0.000000e+000 -1.551919e+000 -1.414761e+000
    endloop
  endfacet
  facet normal -1.000000e+000  0.000000e+000  0.000000e+000
    outer loop
      vertex  0.000000e+000 -1.551919e+000 -1.414761e+000
      vertex  0.000000e+000  1.551919e+000 -1.414761e+000
      vertex  0.000000e+000  1.265533e+000 -1.675836e+000
    endloop
  endfacet
  facet normal -1.000000e+000  0.000000e+000  0.000000e+000
    outer loop
      vertex  0.000000e+000 -1.551919e+000 -1.414761e+000
      vertex  0.000000e+000  1.265533e+000 -1.675836e+000
      vertex  0.000000e+000 -1.265533e+000 -1.675836e+000
    endloop
  endfacet
  facet normal -1.000000e+000  0.000000e+000  0.000000e+000
    outer loop
      vertex  0.000000e+000 -1.265533e+000 -1.675836e+000
      vertex  0.000000e+000  1.265533e+000 -1.675836e+000
      vertex  0.000000e+000  9.360505e-001 -1.879843e+000
    endloop
  endfacet
  facet normal -9.999999e-001  0.000000e+000  0.000000e+000
    outer loop
      vertex  0.000000e+000 -1.265533e+000 -1.675836e+000
      vertex  0.000000e+000  9.360505e-001 -1.879843e+000
      vertex  0.000000e+000 -9.360505e-001 -1.879843e+000
    endloop
  endfacet
  facet normal -1.000000e+000  0.000000e+000  0.000000e+000
    outer loop
      vertex  0.000000e+000 -9.360505e-001 -1.879843e+000
      vertex  0.000000e+000  9.360505e-001 -1.879843e+000
      vertex  0.000000e+000  5.746923e-001 -2.019834e+000
    endloop
  endfacet
  facet normal -1.000000e+000  0.000000e+000  0.000000e+000
    outer loop
      vertex  0.000000e+000 -9.360505e-001 -1.879843e+000
      vertex  0.000000e+000  5.746923e-001 -2.019834e+000
      vertex  0.000000e+000 -5.746923e-001 -2.019834e+000
    endloop
  endfacet
  facet normal -1.000000e+000  0.000000e+000  0.000000e+000
    outer loop
      vertex  0.000000e+000 -5.746923e-001 -2.019834e+000
      vertex  0.000000e+000  5.746923e-001 -2.019834e+000
      vertex  0.000000e+000  1.937636e-001 -2.091042e+000
    endloop
  endfacet
  facet normal -1.000000e+000  0.000000e+000  0.000000e+000
    outer loop
      vertex  0.000000e+000 -5.746923e-001 -2.019834e+000
      vertex  0.000000e+000  1.937636e-001 -2.091042e+000
      vertex  0.000000e+000 -1.937636e-001 -2.091042e+000
    endloop
  endfacet
endsolid CATIA STL
